{"glyphs":{"0":{"ha":729,"x_min":0,"x_max":604,"o":"m 397 982 q 359 1053 386 1028 q 301 1078 332 1078 q 244 1053 271 1078 q 208 978 218 1029 q 194 863 200 932 q 185 710 189 793 q 181 540 182 628 q 182 369 179 451 q 190 216 185 286 q 207 101 196 146 q 244 31 217 56 q 303 6 272 7 q 360 30 333 6 q 396 106 386 54 q 409 222 403 151 q 419 374 415 292 q 424 545 422 457 q 422 715 425 633 q 413 867 419 797 q 397 982 407 938 m 546 1006 q 578 879 565 950 q 597 729 590 808 q 604 567 604 650 q 599 403 604 483 q 581 252 593 324 q 553 125 569 181 q 497 27 535 67 q 409 -33 458 -12 q 306 -58 360 -54 q 202 -47 251 -61 q 114 -1 153 -33 q 58 79 75 31 q 26 205 39 133 q 7 356 14 276 q 0 518 0 435 q 6 681 0 601 q 23 833 11 761 q 51 960 35 904 q 107 1058 68 1018 q 195 1118 146 1097 q 299 1142 244 1139 q 402 1132 353 1146 q 490 1086 451 1118 q 546 1006 528 1054 z "},"1":{"ha":413,"x_min":-36,"x_max":286,"o":"m 138 -39 q 127 26 132 -28 q 117 159 122 79 q 108 337 113 239 q 101 535 104 435 q 95 730 97 636 q 92 894 93 824 q 64 872 79 882 q 19 860 40 856 q -15 877 -1 864 q -32 906 -28 890 q -25 925 -36 921 q 49 971 19 942 q 93 1033 78 1000 q 131 1080 100 1067 q 194 1091 161 1093 q 254 1075 228 1089 q 281 1039 281 1061 q 280 982 281 1028 q 278 867 279 936 q 278 714 278 799 q 277 540 278 629 q 277 363 276 450 q 278 201 278 275 q 280 75 279 128 q 283 3 281 22 q 266 -33 286 -18 q 220 -55 246 -49 q 169 -58 194 -61 q 138 -39 144 -54 z "},"2":{"ha":717,"x_min":1,"x_max":575,"o":"m 78 969 q 138 1036 99 1008 q 224 1078 176 1064 q 324 1091 272 1092 q 422 1072 375 1090 q 504 1018 468 1054 q 556 925 540 982 q 573 813 571 871 q 565 698 575 756 q 531 585 554 640 q 474 481 508 529 q 378 369 432 424 q 277 261 325 314 q 197 158 229 208 q 164 58 164 107 q 217 57 186 57 q 283 57 249 57 q 352 58 318 57 q 414 57 386 58 q 485 37 461 56 q 517 -3 508 18 q 520 -42 525 -25 q 506 -58 515 -60 q 419 -51 478 -56 q 293 -44 361 -47 q 158 -40 225 -40 q 49 -43 92 -39 q 21 -33 31 -44 q 7 -7 11 -22 q 2 23 3 8 q 1 42 1 38 q 42 201 10 133 q 122 330 75 269 q 227 454 169 390 q 343 601 285 518 q 403 749 390 669 q 399 925 417 829 q 369 990 390 968 q 320 1016 347 1013 q 267 1006 293 1019 q 225 961 242 992 q 213 923 215 943 q 209 883 210 903 q 210 842 208 863 q 210 801 211 821 q 185 776 210 783 q 131 769 160 768 q 78 781 101 771 q 54 811 54 792 q 57 892 56 851 q 78 969 58 933 z "},"3":{"ha":675,"x_min":0,"x_max":538,"o":"m 361 961 q 331 1026 353 1004 q 283 1053 310 1049 q 231 1042 257 1057 q 189 997 204 1028 q 176 959 179 979 q 173 919 174 939 q 174 878 172 899 q 174 838 175 857 q 147 812 172 819 q 93 806 122 804 q 40 819 64 808 q 17 849 17 829 q 20 928 19 888 q 40 1006 21 969 q 101 1073 61 1044 q 188 1115 140 1101 q 288 1128 236 1129 q 385 1110 339 1128 q 467 1056 432 1092 q 519 963 503 1019 q 533 889 528 929 q 537 807 538 849 q 530 725 536 765 q 513 651 524 685 q 475 597 501 625 q 404 547 449 568 q 470 493 446 524 q 503 436 494 463 q 521 360 514 403 q 528 273 528 318 q 525 185 529 228 q 511 110 521 143 q 462 22 496 57 q 385 -33 428 -14 q 293 -57 342 -53 q 197 -53 244 -61 q 109 -23 150 -44 q 42 31 68 -1 q 15 77 24 51 q 3 130 6 103 q 1 185 0 157 q 4 239 1 213 q 17 256 4 247 q 49 269 31 264 q 89 275 68 274 q 127 269 110 276 q 156 244 144 261 q 164 199 167 228 q 161 156 161 178 q 164 112 161 133 q 174 72 167 90 q 194 42 181 54 q 237 21 213 25 q 285 24 261 17 q 327 51 308 32 q 353 101 346 69 q 364 189 361 140 q 365 285 367 238 q 357 376 363 333 q 342 444 351 418 q 324 470 336 460 q 297 488 313 481 q 265 499 282 496 q 232 503 247 503 q 212 517 219 503 q 204 546 204 531 q 211 574 204 561 q 235 588 218 588 q 267 592 250 588 q 300 606 285 597 q 328 626 315 614 q 346 653 340 638 q 362 716 356 679 q 370 794 368 753 q 370 880 372 836 q 361 961 368 924 z "},"4":{"ha":690,"x_min":0,"x_max":572,"o":"m 394 -39 q 387 -5 390 -32 q 381 63 383 22 q 374 158 378 104 q 368 274 371 213 q 337 273 363 274 q 276 271 311 272 q 203 268 242 269 q 132 265 165 267 q 77 263 99 264 q 56 263 56 263 q 31 269 43 263 q 12 285 19 275 q 2 303 4 294 q 4 315 0 311 q 46 377 18 325 q 108 504 74 429 q 178 667 142 579 q 247 835 214 754 q 304 980 279 917 q 339 1071 329 1043 q 378 1102 346 1092 q 447 1112 411 1113 q 510 1099 482 1111 q 538 1061 538 1086 q 537 979 538 1047 q 535 813 536 911 q 534 600 535 715 q 533 375 533 485 q 548 376 540 376 q 564 376 556 376 q 562 325 572 353 q 535 286 551 297 q 536 106 535 182 q 540 4 538 29 q 523 -33 543 -18 q 477 -55 503 -49 q 426 -58 451 -61 q 394 -39 401 -54 m 157 353 q 265 358 215 356 q 364 365 315 361 q 360 490 361 426 q 356 615 358 553 q 353 737 354 678 q 350 847 351 796 q 315 758 339 819 q 264 622 292 696 q 208 476 236 549 q 157 353 179 403 z "},"5":{"ha":669,"x_min":0,"x_max":539,"o":"m 36 521 q 20 597 28 539 q 8 729 13 656 q 1 879 3 803 q 3 1008 0 956 q 8 1040 0 1022 q 31 1072 17 1057 q 62 1096 46 1086 q 90 1104 78 1106 q 195 1096 133 1100 q 319 1090 257 1092 q 432 1092 381 1088 q 507 1108 483 1096 q 520 1096 515 1113 q 517 1056 525 1079 q 486 1013 510 1033 q 415 992 463 993 q 342 992 374 990 q 285 996 310 993 q 240 1002 260 999 q 200 1008 219 1006 l 190 1008 q 188 944 189 983 q 185 860 186 906 q 182 767 183 815 q 181 674 181 718 q 234 719 203 700 q 301 744 265 739 q 376 738 338 750 q 453 690 415 725 q 512 588 492 656 q 535 439 532 519 q 526 274 539 358 q 488 124 514 190 q 415 13 461 56 q 315 -47 368 -29 q 208 -57 263 -64 q 112 -22 154 -50 q 43 58 69 7 q 21 178 17 108 q 37 201 21 192 q 71 217 53 211 q 103 221 89 222 q 118 211 118 219 q 138 90 114 135 q 197 36 163 44 q 269 60 232 28 q 328 171 306 92 q 349 288 342 222 q 354 418 356 354 q 342 535 353 482 q 313 615 332 588 q 278 640 296 638 q 242 632 260 643 q 208 599 224 621 q 183 553 193 578 q 160 522 181 535 q 115 505 140 510 q 66 503 89 500 q 36 521 43 507 z "},"6":{"ha":675,"x_min":-1,"x_max":557,"o":"m 61 53 q 24 160 38 90 q 4 317 10 231 q 1 499 -1 404 q 9 683 3 594 q 26 843 15 771 q 47 956 36 915 q 101 1048 63 1011 q 190 1101 140 1085 q 296 1117 240 1118 q 400 1095 351 1115 q 485 1037 449 1075 q 532 943 521 999 q 538 890 538 918 q 538 843 539 863 q 512 822 536 829 q 459 816 488 815 q 408 825 431 817 q 386 851 385 833 q 388 897 388 872 q 386 936 388 922 q 359 1010 383 983 q 305 1038 335 1036 q 247 1019 275 1040 q 211 953 219 999 q 191 799 200 894 q 178 594 182 703 q 281 625 226 621 q 386 613 336 629 q 476 560 436 596 q 532 471 515 525 q 549 390 543 436 q 556 297 556 344 q 553 203 557 249 q 539 122 549 157 q 486 27 522 65 q 403 -33 450 -11 q 304 -58 357 -54 q 204 -51 251 -62 q 118 -13 157 -39 q 61 53 79 13 m 183 194 q 219 69 192 111 q 280 19 247 26 q 342 36 313 13 q 381 108 371 60 q 392 204 389 150 q 392 313 394 258 q 383 416 390 368 q 367 493 376 464 q 337 531 358 518 q 291 545 315 544 q 244 535 267 546 q 211 501 221 524 q 194 444 200 479 q 184 368 188 410 q 181 281 181 326 q 183 194 181 236 z "},"7":{"ha":717,"x_min":-3,"x_max":593,"o":"m 108 -17 q 122 62 107 -3 q 163 220 138 126 q 220 426 188 314 q 285 644 253 538 q 344 844 317 751 q 390 990 372 936 q 340 985 371 988 q 270 980 308 982 q 189 977 232 978 q 104 978 146 976 q 34 1000 57 979 q 4 1044 11 1021 q 2 1085 -3 1067 q 15 1099 7 1103 q 63 1090 28 1093 q 144 1084 97 1086 q 246 1081 192 1082 q 350 1081 300 1081 q 441 1083 400 1082 q 503 1086 482 1085 q 532 1076 515 1086 q 563 1052 549 1067 q 585 1019 576 1038 q 589 988 593 1001 q 569 931 585 976 q 531 819 554 886 q 481 669 508 753 q 425 499 454 586 q 369 328 396 413 q 319 172 342 243 q 281 49 296 101 q 261 -22 265 -3 q 233 -51 257 -43 q 183 -58 210 -60 q 133 -44 156 -56 q 108 -17 110 -33 z "},"8":{"ha":682,"x_min":0,"x_max":557,"o":"m 424 546 q 490 492 465 522 q 524 435 514 463 q 541 359 535 401 q 548 272 547 317 q 544 184 549 226 q 531 108 540 142 q 469 6 511 44 q 372 -47 426 -32 q 259 -57 318 -62 q 149 -28 200 -51 q 61 35 99 -4 q 14 129 24 75 q 3 207 7 165 q 1 290 0 249 q 10 371 3 332 q 31 442 17 410 q 63 496 43 469 q 114 542 82 522 q 63 579 82 557 q 33 629 44 601 q 13 699 19 660 q 5 779 6 738 q 8 863 4 821 q 21 942 13 906 q 70 1035 32 994 q 160 1099 108 1075 q 270 1128 211 1122 q 383 1117 329 1133 q 478 1063 436 1101 q 539 961 521 1025 q 553 888 549 928 q 556 806 557 847 q 550 724 556 764 q 532 651 544 685 q 495 595 522 624 q 424 546 468 567 m 372 100 q 383 190 381 139 q 383 290 385 240 q 374 385 381 340 q 358 456 368 429 q 328 492 350 479 q 282 505 307 504 q 235 495 257 506 q 201 464 213 485 q 181 390 188 436 q 172 290 174 343 q 174 184 171 236 q 186 93 178 132 q 221 35 194 54 q 278 18 247 17 q 337 40 310 19 q 372 100 364 60 m 360 629 q 377 697 369 656 q 388 783 385 738 q 390 876 390 829 q 382 960 389 922 q 346 1031 374 1008 q 287 1053 318 1054 q 228 1028 256 1051 q 192 963 201 1006 q 179 878 183 925 q 175 783 175 831 q 181 694 175 736 q 200 626 188 653 q 233 594 210 606 q 281 583 256 583 q 328 594 306 583 q 360 629 350 606 z "},"9":{"ha":682,"x_min":0,"x_max":558,"o":"m 496 1008 q 533 901 519 971 q 553 744 547 831 q 556 561 558 657 q 548 377 554 465 q 531 216 542 289 q 510 103 521 143 q 456 10 494 47 q 367 -43 417 -26 q 261 -58 317 -60 q 157 -37 206 -57 q 72 22 108 -17 q 25 115 36 60 q 19 169 19 140 q 19 217 18 197 q 45 238 21 231 q 98 244 69 244 q 149 234 126 243 q 171 208 172 225 q 169 162 169 186 q 171 124 169 138 q 198 49 174 75 q 252 19 222 22 q 310 38 282 17 q 346 107 338 60 q 366 261 357 165 q 379 465 375 357 q 276 435 331 439 q 171 447 221 431 q 81 499 121 463 q 25 589 42 535 q 8 669 14 624 q 1 763 1 715 q 4 857 0 811 q 18 939 8 903 q 70 1034 33 996 q 153 1094 107 1072 q 253 1119 200 1115 q 353 1112 306 1124 q 438 1074 400 1100 q 496 1008 476 1049 m 374 867 q 338 992 365 950 q 277 1042 310 1035 q 215 1026 244 1050 q 176 953 186 1001 q 165 856 168 911 q 165 747 163 801 q 174 644 167 692 q 190 567 181 596 q 220 528 199 542 q 266 515 242 515 q 313 524 290 514 q 346 558 335 535 q 363 615 356 581 q 373 692 369 650 q 376 779 376 733 q 374 867 376 825 z "},"\u0000":{"ha":0,"x_min":0,"x_max":0,"o":""},"\r":{"ha":428,"x_min":0,"x_max":0,"o":""}," ":{"ha":428,"x_min":0,"x_max":0,"o":""},"y":{"ha":692,"x_min":-1,"x_max":814,"o":"m 350 -17 q 353 22 351 3 q 356 83 354 42 q 304 24 339 47 q 227 -5 269 0 q 142 5 185 -10 q 67 58 99 19 q 21 160 35 97 q 3 291 7 224 q 0 419 -1 358 q 1 515 1 481 q 15 576 1 553 q 51 613 29 600 q 98 628 72 625 q 145 626 124 631 q 182 610 167 621 q 199 583 197 599 q 199 541 200 572 q 197 467 199 510 q 196 374 196 424 q 197 276 196 324 q 200 186 197 228 q 210 118 203 144 q 224 91 214 100 q 245 81 233 82 q 269 85 257 79 q 292 106 282 92 q 322 192 310 132 q 341 322 333 253 q 353 453 349 390 q 360 550 357 517 l 360 557 q 372 577 360 568 q 403 592 385 586 q 444 601 422 599 q 486 601 467 603 q 519 591 506 599 q 535 569 533 583 q 536 514 536 550 q 534 433 536 478 q 529 337 532 388 q 524 240 526 286 q 519 153 521 193 q 515 90 517 114 q 629 240 582 160 q 703 394 676 319 q 717 399 704 396 q 747 402 729 403 q 783 394 764 401 q 814 369 801 388 q 772 262 801 321 q 702 144 743 203 q 612 32 661 85 q 510 -57 563 -21 q 495 -205 504 -140 q 475 -318 486 -269 q 450 -402 464 -367 q 422 -464 436 -437 q 362 -537 397 -510 q 288 -574 326 -565 q 210 -573 249 -583 q 142 -532 172 -562 q 94 -446 107 -496 q 92 -339 81 -396 q 126 -243 101 -287 q 184 -160 150 -199 q 260 -85 218 -121 q 350 -17 303 -50 m 240 -499 q 270 -474 254 -494 q 301 -411 286 -453 q 327 -304 315 -369 q 344 -146 339 -239 q 231 -264 267 -200 q 190 -383 196 -328 q 199 -472 183 -437 q 240 -499 215 -506 z "},"w":{"ha":856,"x_min":0,"x_max":960,"o":"m 539 92 q 567 83 553 76 q 592 108 581 89 q 612 156 603 128 q 628 210 621 183 q 638 258 635 236 q 642 286 642 279 q 593 377 608 321 q 593 508 578 433 q 631 578 603 558 q 688 593 658 597 q 738 563 717 589 q 757 497 760 538 q 753 448 754 474 q 749 400 751 422 q 743 349 746 375 q 781 329 761 332 q 819 335 801 326 q 850 363 836 344 q 871 404 864 381 q 888 413 874 415 q 919 401 903 410 q 947 381 935 392 q 958 367 960 371 q 903 287 932 317 q 842 244 874 257 q 779 231 811 231 q 715 240 747 231 q 691 156 704 200 q 657 76 678 113 q 605 19 636 40 q 526 0 574 -3 q 416 45 456 6 q 356 143 376 85 q 315 75 339 99 q 261 43 290 51 q 200 38 232 35 q 102 69 140 42 q 42 139 64 97 q 12 231 21 181 q 1 333 3 282 q 2 428 0 383 q 4 506 4 474 q 17 567 3 543 q 53 603 32 590 q 99 619 74 617 q 147 616 125 621 q 185 600 169 611 q 201 574 200 589 q 199 511 203 558 q 192 405 196 464 q 188 285 189 346 q 194 181 188 224 q 219 125 201 139 q 269 146 236 111 q 288 181 279 157 q 305 237 297 206 q 318 305 313 268 q 328 378 324 342 q 330 449 329 417 q 331 506 331 482 q 360 588 331 561 q 427 619 390 614 q 495 610 464 624 q 528 574 526 596 q 527 524 529 561 q 522 439 525 488 q 515 335 518 390 q 513 231 513 281 q 519 144 514 182 q 539 92 525 106 z "},"l":{"ha":353,"x_min":0,"x_max":492,"o":"m 25 193 q 12 285 18 228 q 3 412 6 342 q 2 562 0 482 q 12 722 4 642 q 35 879 19 803 q 75 1021 50 956 q 128 1108 94 1072 q 203 1164 163 1144 q 286 1185 243 1183 q 367 1170 329 1188 q 434 1115 406 1153 q 475 1019 463 1078 q 478 858 492 940 q 426 700 465 775 q 324 565 388 625 q 178 472 261 506 q 174 391 175 436 q 176 301 174 346 q 182 217 178 257 q 195 151 186 178 q 218 116 204 125 q 251 125 232 107 q 289 174 272 143 q 319 243 306 206 q 344 320 333 281 q 365 396 356 360 q 375 401 365 399 q 399 401 385 403 q 430 392 414 400 q 458 367 446 385 q 387 148 431 225 q 292 40 343 71 q 189 17 242 10 q 93 54 136 25 q 51 108 68 72 q 25 193 35 144 m 178 558 q 267 643 232 592 q 321 752 301 694 q 346 868 340 810 q 347 974 351 926 q 331 1054 343 1022 q 303 1092 318 1086 q 259 1067 278 1099 q 227 981 240 1035 q 205 860 214 926 q 190 731 196 793 q 182 622 185 669 q 178 558 179 574 z "},"q":{"ha":660,"x_min":-1,"x_max":764,"o":"m 596 51 q 630 3 614 38 q 658 -78 646 -32 q 676 -179 669 -125 q 684 -287 683 -233 q 678 -392 685 -342 q 658 -479 672 -442 q 599 -556 639 -531 q 514 -579 558 -581 q 429 -549 469 -578 q 371 -465 389 -521 q 360 -398 364 -444 q 353 -291 356 -351 q 351 -163 351 -231 q 351 -33 351 -96 q 351 81 351 29 q 351 161 351 133 q 296 66 329 99 q 225 22 263 33 q 151 17 188 11 q 83 39 114 24 q 25 108 44 58 q 2 219 6 157 q 9 349 -1 282 q 41 475 19 417 q 94 573 63 533 q 163 618 125 613 q 217 619 189 622 q 272 606 246 617 q 319 575 299 594 q 351 525 340 556 q 352 550 351 539 q 353 568 353 561 l 353 583 q 408 599 376 593 q 467 605 439 606 q 514 595 496 604 q 531 564 532 586 q 527 493 528 539 q 526 388 526 447 q 525 258 525 328 q 525 114 525 188 q 560 143 543 121 q 591 194 576 165 q 618 257 606 224 q 640 319 631 290 q 653 369 649 349 q 660 397 658 390 q 672 403 660 400 q 700 403 683 406 q 734 394 717 401 q 764 368 751 386 q 735 263 753 313 q 694 171 717 213 q 647 99 672 129 q 596 51 621 68 m 200 119 q 248 124 226 103 q 284 185 269 144 q 307 279 299 226 q 315 381 315 332 q 304 466 314 429 q 274 511 294 503 q 231 499 251 521 q 196 437 211 476 q 172 348 181 397 q 162 252 163 299 q 170 169 161 206 q 200 119 179 132 m 565 -433 q 579 -346 574 -400 q 582 -230 585 -292 q 566 -106 579 -168 q 525 4 553 -44 q 523 -103 525 -36 q 519 -240 521 -169 q 517 -372 517 -310 q 524 -462 518 -433 q 542 -479 528 -486 q 565 -433 556 -472 z "},"j":{"ha":336,"x_min":-268,"x_max":440,"o":"m 3 -32 q 5 28 4 -11 q 7 119 6 68 q 9 227 8 169 q 10 342 10 285 q 11 450 11 399 q 11 540 11 501 q 38 569 11 557 q 97 584 64 581 q 156 581 129 588 q 186 553 183 574 q 188 498 188 535 q 185 416 188 461 q 181 320 183 371 q 176 223 179 269 q 171 137 174 176 q 168 74 168 97 q 227 150 201 108 q 274 235 253 192 q 311 322 294 279 q 342 401 328 365 q 353 403 342 404 q 379 397 364 403 q 411 381 394 392 q 440 353 428 371 q 403 245 428 304 q 342 127 378 186 q 260 15 306 68 q 163 -74 215 -37 q 148 -222 157 -157 q 127 -335 139 -286 q 101 -419 115 -383 q 74 -481 88 -454 q 13 -554 49 -526 q -61 -591 -22 -582 q -138 -590 -100 -600 q -207 -549 -176 -579 q -255 -462 -242 -512 q -257 -356 -268 -412 q -223 -260 -247 -304 q -164 -176 -199 -215 q -87 -101 -129 -136 q 3 -32 -44 -65 m -21 713 q -20 758 -25 735 q -3 801 -15 782 q 28 836 10 821 q 71 860 47 851 q 157 854 118 875 q 206 788 196 833 q 205 742 210 765 q 188 699 200 719 q 156 664 175 679 q 114 640 138 649 q 28 646 67 625 q -21 713 -11 667 m -107 -515 q -77 -490 -93 -511 q -47 -428 -61 -469 q -21 -321 -32 -386 q -3 -162 -10 -256 q -116 -280 -81 -215 q -158 -399 -151 -344 q -148 -487 -164 -453 q -107 -515 -132 -522 z "},"s":{"ha":483,"x_min":-6,"x_max":601,"o":"m 438 103 q 409 72 428 92 q 367 30 390 53 q 320 -14 344 7 q 274 -47 296 -35 q 174 -72 225 -75 q 90 -43 122 -68 q 58 8 64 -22 q 63 63 53 38 q 97 103 74 89 q 151 108 119 118 q 178 97 165 104 q 200 81 190 89 q 178 169 204 128 q 117 250 153 210 q 49 334 82 290 q 6 431 15 378 q 12 540 -6 492 q 63 620 29 588 q 142 668 97 653 q 230 678 186 683 q 310 648 274 674 q 365 572 347 622 q 363 533 371 557 q 340 490 354 508 q 311 466 326 471 q 288 486 296 461 q 262 524 279 510 q 226 540 244 539 q 192 531 206 540 q 169 506 178 521 q 160 474 161 492 q 164 444 158 457 q 172 426 167 435 q 183 408 176 418 q 228 350 203 381 q 278 286 254 319 q 319 215 301 253 q 339 132 336 176 q 430 263 392 194 q 490 394 468 332 q 504 401 492 397 q 534 403 517 404 q 570 396 551 403 q 601 371 589 389 q 577 308 593 342 q 540 238 561 274 q 492 168 518 203 q 438 103 465 133 z "},"o":{"ha":606,"x_min":-3,"x_max":710,"o":"m 468 519 q 488 429 482 481 q 493 319 494 378 q 574 332 538 308 q 622 400 610 356 q 640 410 625 413 q 670 398 654 407 q 698 378 686 389 q 708 364 710 368 q 660 289 685 318 q 608 244 635 260 q 550 223 581 228 q 485 221 519 218 q 457 111 476 164 q 390 18 435 53 q 290 -26 344 -17 q 183 -22 236 -36 q 90 29 129 -8 q 26 135 49 71 q 1 269 4 199 q 10 409 -3 339 q 50 533 22 479 q 111 613 79 589 q 174 641 143 638 q 229 632 204 644 q 269 603 254 619 q 283 573 283 588 q 264 556 283 558 q 235 528 249 554 q 210 463 221 503 q 194 373 200 422 q 188 274 188 324 q 194 181 188 225 q 215 108 200 136 q 254 69 231 79 q 313 81 278 60 q 353 142 339 96 q 374 246 368 188 q 317 293 338 264 q 287 356 296 322 q 280 424 278 389 q 292 490 282 460 q 328 546 303 525 q 380 572 353 567 q 432 564 407 576 q 468 519 457 551 z "},"g":{"ha":686,"x_min":-1,"x_max":797,"o":"m 365 583 q 381 601 367 594 q 417 610 396 608 q 462 611 438 613 q 506 603 486 610 q 540 588 526 597 q 554 564 554 578 q 550 508 554 544 q 540 428 546 472 q 525 333 533 383 q 509 237 517 283 q 495 151 501 190 q 486 89 489 113 q 608 231 558 151 q 689 399 657 310 q 703 403 690 401 q 733 403 715 406 q 768 391 750 400 q 797 363 786 382 q 753 235 785 297 q 676 119 721 174 q 576 19 631 64 q 465 -57 521 -26 q 435 -203 451 -140 q 403 -312 419 -265 q 369 -394 386 -360 q 335 -453 351 -428 q 267 -519 306 -494 q 190 -548 229 -543 q 113 -538 150 -553 q 49 -490 75 -524 q 10 -400 18 -451 q 19 -293 3 -349 q 65 -201 35 -243 q 135 -124 94 -160 q 222 -59 175 -89 q 319 0 269 -29 q 327 35 324 14 q 333 77 331 56 q 336 118 335 99 q 339 149 338 138 q 283 72 315 97 q 216 38 251 46 q 146 35 181 29 q 83 57 111 42 q 25 126 44 76 q 2 238 6 175 q 9 367 -1 300 q 41 493 19 435 q 94 591 63 551 q 163 636 125 631 q 223 637 192 640 q 281 619 254 633 q 329 582 308 606 q 358 521 350 558 q 363 557 361 542 q 365 583 364 572 m 200 138 q 248 141 226 121 q 284 202 269 161 q 307 296 299 243 q 315 397 315 349 q 304 483 314 446 q 274 528 294 519 q 231 516 251 538 q 196 455 211 494 q 172 366 181 415 q 162 270 163 317 q 170 187 161 224 q 200 138 179 150 m 299 -118 q 206 -187 243 -149 q 148 -265 169 -225 q 117 -342 126 -304 q 110 -408 108 -379 q 124 -454 113 -437 q 151 -468 135 -471 q 185 -444 165 -465 q 224 -381 204 -424 q 264 -274 244 -339 q 299 -118 283 -210 z "},"v":{"ha":528,"x_min":0,"x_max":632,"o":"m 213 88 q 240 78 226 72 q 265 104 253 85 q 285 151 276 124 q 301 206 294 179 q 312 254 308 233 q 315 282 315 275 q 270 360 285 314 q 261 469 256 407 q 294 550 265 525 q 353 575 322 575 q 409 553 385 575 q 431 493 433 531 q 426 442 429 469 q 419 392 422 415 q 415 353 417 369 q 413 338 413 338 q 453 323 432 324 q 492 331 474 322 q 524 358 510 340 q 544 400 538 376 q 562 410 547 413 q 592 398 576 407 q 620 378 608 389 q 631 364 632 368 q 575 283 604 314 q 515 240 546 253 q 451 226 483 226 q 388 236 419 226 q 364 152 376 196 q 331 72 351 108 q 278 15 310 36 q 200 -4 247 -7 q 102 31 140 0 q 42 108 64 63 q 12 210 21 154 q 1 319 3 265 q 2 422 0 374 q 4 501 4 471 q 18 563 4 539 q 53 600 32 588 q 100 615 75 613 q 147 613 125 618 q 185 597 169 608 q 201 571 200 586 q 200 522 203 558 q 194 435 197 485 q 188 331 190 386 q 185 227 185 276 q 192 140 186 178 q 213 88 199 101 z "},"b":{"ha":676,"x_min":0,"x_max":776,"o":"m 539 232 q 619 300 585 251 q 682 408 653 349 q 699 406 683 411 q 733 392 715 401 q 763 369 750 382 q 772 344 776 357 q 736 278 761 315 q 676 206 711 242 q 598 140 640 169 q 510 97 556 110 q 473 -3 499 44 q 413 -81 447 -51 q 339 -112 378 -110 q 264 -72 300 -114 q 240 -26 247 -53 q 242 33 233 1 q 276 96 250 64 q 350 157 301 128 q 367 260 363 207 q 366 356 371 313 q 345 428 361 400 q 303 458 329 457 q 262 435 281 458 q 228 374 243 411 q 203 291 214 336 q 184 205 192 246 q 174 133 176 164 q 174 92 171 101 q 159 49 179 63 q 110 41 139 36 q 53 67 81 46 q 18 128 26 89 q 6 226 11 163 q 1 371 1 290 q 5 543 0 451 q 19 726 10 635 q 46 900 29 817 q 88 1049 63 983 q 175 1162 117 1124 q 294 1201 233 1200 q 407 1164 356 1201 q 475 1051 458 1126 q 469 890 492 971 q 399 741 446 808 q 292 626 353 674 q 172 567 231 579 q 171 540 172 558 q 168 497 169 521 q 166 449 167 474 q 165 406 165 425 q 205 493 178 454 q 267 556 232 532 q 326 579 293 574 q 391 578 360 585 q 449 554 422 571 q 493 513 476 538 q 536 389 525 464 q 539 232 547 314 m 174 658 q 267 733 231 686 q 325 835 304 781 q 352 946 346 890 q 353 1046 358 1001 q 335 1116 349 1090 q 303 1136 322 1142 q 261 1099 279 1131 q 229 1020 243 1067 q 206 919 215 974 q 190 813 196 864 q 179 721 183 763 q 174 658 175 679 z "},"x":{"ha":569,"x_min":0,"x_max":688,"o":"m 1 503 q 26 547 0 528 q 83 574 51 565 q 144 580 115 583 q 176 557 172 576 q 202 465 186 508 q 238 383 218 422 q 303 477 271 433 q 365 553 336 521 q 405 572 379 567 q 452 570 431 576 q 481 548 474 564 q 468 506 489 532 q 395 403 438 465 q 308 271 353 340 q 335 226 317 256 q 379 171 354 196 q 431 135 404 146 q 481 150 457 125 q 535 250 510 182 q 576 394 561 318 q 589 401 576 397 q 619 403 601 404 q 656 394 638 401 q 688 369 675 388 q 663 272 679 321 q 625 179 647 222 q 575 102 603 136 q 518 50 547 68 q 431 13 471 19 q 356 16 392 6 q 285 51 321 26 q 211 113 250 76 q 177 53 192 81 q 151 4 163 25 q 122 -19 142 -17 q 85 -10 103 -21 q 60 24 68 1 q 64 76 51 46 q 92 137 75 104 q 128 206 108 169 q 38 360 72 281 q 1 503 4 440 z "},"d":{"ha":692,"x_min":-8,"x_max":829,"o":"m 193 94 q 241 99 219 78 q 277 160 263 119 q 300 253 292 200 q 308 356 308 307 q 297 441 307 404 q 267 486 288 478 q 224 474 244 496 q 189 412 204 451 q 165 323 174 372 q 155 227 156 274 q 163 144 154 181 q 193 94 172 107 m 369 183 q 367 197 368 190 q 365 211 367 204 q 314 72 349 121 q 238 3 279 22 q 153 -10 196 -15 q 76 14 110 -4 q 19 83 39 33 q -5 194 -1 132 q 2 324 -8 257 q 34 450 13 392 q 87 548 56 508 q 156 593 118 588 q 214 594 183 597 q 272 579 244 592 q 319 544 299 567 q 350 486 340 521 q 352 630 350 558 q 360 770 354 701 q 379 903 367 839 q 414 1024 392 967 q 502 1144 443 1101 q 624 1189 561 1186 q 741 1151 688 1192 q 813 1024 794 1111 q 817 860 829 944 q 768 697 806 775 q 669 558 731 619 q 524 463 607 496 q 520 382 521 426 q 521 293 519 338 q 526 209 522 249 q 540 143 531 169 q 563 108 549 117 q 596 117 576 99 q 635 173 617 135 q 667 253 653 211 q 690 335 681 296 q 703 396 699 375 q 715 401 703 397 q 743 403 726 404 q 778 394 760 401 q 808 369 796 388 q 739 139 783 219 q 642 28 694 58 q 536 8 590 -1 q 439 46 482 17 q 397 99 413 63 q 369 183 381 135 m 524 554 q 603 637 571 585 q 653 748 635 689 q 678 869 671 807 q 682 981 685 931 q 669 1065 679 1032 q 643 1104 658 1099 q 600 1078 618 1113 q 569 989 582 1044 q 549 864 557 933 q 535 731 540 794 q 528 619 531 668 q 524 554 525 569 z "},"u":{"ha":656,"x_min":0,"x_max":760,"o":"m 661 392 q 672 399 661 394 q 699 403 683 403 q 731 398 714 404 q 760 374 747 392 q 701 164 736 243 q 614 51 667 85 q 539 24 578 28 q 465 35 500 21 q 404 78 431 49 q 367 150 378 108 q 292 53 335 78 q 200 32 249 29 q 101 65 139 36 q 42 135 64 93 q 12 227 21 176 q 1 328 3 278 q 2 425 0 379 q 4 501 4 471 q 18 563 4 539 q 53 599 32 586 q 100 615 75 613 q 147 612 125 617 q 185 596 169 607 q 201 569 200 585 q 199 506 203 554 q 192 399 196 458 q 188 279 189 340 q 194 176 188 218 q 219 120 201 133 q 269 142 236 107 q 292 187 282 156 q 310 258 301 218 q 324 343 318 299 q 333 428 329 388 q 340 501 338 469 q 344 546 343 532 q 372 572 344 563 q 431 582 399 582 q 492 572 464 582 q 522 542 519 563 q 521 506 522 535 q 517 438 519 478 q 513 351 514 397 q 513 261 511 304 q 521 185 515 218 q 539 138 526 151 q 572 127 556 118 q 600 162 588 136 q 623 224 613 188 q 642 294 633 260 q 655 356 650 329 q 661 392 660 383 z "},"f":{"ha":432,"x_min":1,"x_max":532,"o":"m 139 -389 q 85 -335 107 -378 q 47 -228 63 -292 q 22 -85 32 -164 q 8 79 13 -6 q 2 248 3 164 q 2 405 1 332 q 5 535 3 478 q 8 621 7 592 q 31 716 11 676 q 78 780 50 756 q 138 814 106 804 q 202 817 171 824 q 260 791 233 811 q 303 736 288 771 q 321 655 318 703 q 309 556 324 607 q 258 456 294 504 q 160 374 222 408 q 156 319 157 333 q 155 301 156 306 q 155 294 154 297 q 156 269 156 290 q 232 251 189 253 q 317 265 275 250 q 394 312 360 279 q 442 397 428 344 q 460 408 444 411 q 493 395 476 406 q 521 370 510 385 q 528 344 532 356 q 467 249 504 285 q 387 194 429 213 q 303 174 344 176 q 231 178 261 171 q 292 69 264 139 q 333 -79 319 -1 q 339 -230 346 -157 q 294 -346 332 -303 q 222 -392 264 -381 q 139 -389 179 -404 m 168 490 q 215 550 199 515 q 238 618 232 585 q 240 678 243 651 q 228 714 236 706 q 208 713 217 725 q 192 677 199 701 q 181 621 185 653 q 174 560 176 589 q 169 512 171 532 q 168 490 168 492 m 203 -293 q 221 -309 207 -317 q 244 -262 235 -301 q 251 -174 253 -229 q 238 -59 250 -118 q 206 53 226 0 q 157 138 186 107 q 162 37 157 97 q 174 -87 167 -24 q 190 -208 182 -151 q 203 -293 197 -264 z "},"e":{"ha":468,"x_min":-6,"x_max":590,"o":"m 482 399 q 496 403 483 401 q 526 401 508 404 q 561 390 543 399 q 590 363 579 381 q 518 177 567 251 q 408 65 469 103 q 276 22 346 26 q 143 46 207 17 q 49 128 82 74 q 5 251 15 183 q 5 390 -6 318 q 42 524 15 463 q 110 613 67 581 q 202 653 154 646 q 294 642 250 661 q 363 576 339 622 q 385 478 386 532 q 363 376 385 424 q 300 299 342 329 q 199 269 258 268 q 208 208 200 244 q 232 142 217 171 q 272 101 247 113 q 335 115 297 90 q 390 175 365 136 q 433 256 415 214 q 463 338 451 299 q 482 399 475 376 m 253 561 q 228 546 239 564 q 209 497 217 528 q 198 424 201 465 q 194 339 194 382 q 240 346 221 333 q 273 382 260 358 q 292 435 286 406 q 295 491 297 464 q 283 538 293 518 q 253 561 272 557 z "},"c":{"ha":489,"x_min":-3,"x_max":600,"o":"m 496 401 q 508 403 496 403 q 538 397 521 403 q 572 381 554 392 q 600 350 589 369 q 513 137 560 215 q 413 19 467 58 q 342 -14 383 -1 q 256 -27 300 -26 q 169 -17 211 -28 q 99 17 128 -7 q 31 118 54 56 q 2 251 7 181 q 8 392 -3 321 q 42 518 18 463 q 128 621 71 588 q 242 650 185 654 q 341 603 299 646 q 383 476 383 560 q 370 452 383 463 q 342 438 357 442 q 313 440 326 435 q 300 463 300 444 q 286 528 301 504 q 253 556 271 551 q 225 535 238 558 q 206 472 213 511 q 196 383 199 433 q 197 282 193 332 q 210 186 200 232 q 236 110 219 140 q 277 72 253 81 q 335 86 301 64 q 392 151 365 107 q 440 243 419 194 q 475 335 461 292 q 496 401 489 379 z "},"h":{"ha":614,"x_min":0,"x_max":718,"o":"m 24 150 q 10 248 17 185 q 2 391 4 311 q 2 562 0 471 q 13 742 4 653 q 37 915 21 832 q 78 1063 53 997 q 130 1147 97 1113 q 202 1198 163 1181 q 284 1215 242 1215 q 363 1199 326 1215 q 426 1150 399 1183 q 464 1067 453 1117 q 460 905 481 985 q 397 759 440 825 q 294 647 353 693 q 176 589 236 601 q 175 540 175 572 q 174 468 175 508 q 229 567 197 531 q 293 614 261 603 q 369 624 331 626 q 439 606 408 622 q 488 557 469 589 q 503 479 507 525 q 489 359 499 426 q 474 233 479 292 q 472 137 468 175 q 501 104 476 99 q 529 128 515 107 q 556 182 543 150 q 581 251 569 214 q 600 321 592 288 q 614 378 608 354 q 621 410 619 403 q 632 410 621 411 q 658 402 643 408 q 689 385 672 396 q 718 356 706 374 q 683 232 700 286 q 649 137 667 178 q 609 69 631 96 q 560 26 588 42 q 513 10 540 15 q 458 6 486 4 q 405 15 431 7 q 361 39 379 24 q 315 124 325 69 q 307 240 304 179 q 318 363 310 301 q 329 471 326 425 q 313 527 332 522 q 265 488 293 532 q 244 433 256 471 q 220 347 232 394 q 198 249 208 300 q 181 157 188 199 q 172 85 182 110 q 145 55 161 61 q 109 56 129 49 q 72 79 89 64 q 40 114 54 94 q 24 150 26 133 m 176 675 q 261 762 226 711 q 317 866 296 813 q 345 972 338 919 q 350 1065 353 1025 q 335 1128 347 1106 q 304 1147 324 1151 q 263 1109 281 1140 q 231 1032 244 1078 q 208 932 218 986 q 192 828 199 878 q 182 736 186 778 q 176 675 178 694 z "},"t":{"ha":356,"x_min":-168,"x_max":474,"o":"m 32 803 q 67 888 33 858 q 139 924 100 917 q 210 921 178 932 q 242 888 242 910 q 235 824 242 875 q 222 703 229 774 q 267 709 243 706 q 315 715 292 713 q 356 720 338 718 q 386 722 375 722 q 396 712 394 722 q 392 687 397 701 q 373 656 386 672 q 342 628 360 640 q 292 617 326 617 q 214 613 258 618 q 204 488 208 551 q 199 365 200 424 q 199 256 197 306 q 210 174 201 206 q 233 132 218 142 q 271 143 247 122 q 308 196 292 161 q 338 269 325 231 q 358 344 350 308 q 369 401 365 381 q 381 403 369 404 q 409 398 393 403 q 443 383 425 393 q 474 354 461 372 q 404 158 447 229 q 311 59 361 88 q 209 37 261 31 q 114 72 157 43 q 51 157 72 99 q 21 289 29 215 q 14 445 13 363 q 19 604 15 528 q -83 600 -37 601 q -150 600 -128 599 q -155 619 -168 601 q -104 661 -142 638 q -54 679 -89 671 q 25 693 -19 688 q 29 753 28 725 q 32 803 31 781 z "},"i":{"ha":333,"x_min":-6,"x_max":438,"o":"m 351 401 q 360 403 351 404 q 383 398 369 403 q 410 383 396 393 q 438 354 425 372 q 388 181 421 250 q 313 72 354 111 q 227 20 272 32 q 142 19 182 8 q 72 63 103 31 q 29 144 42 96 q 13 244 18 186 q 7 360 8 303 q 6 467 6 418 q 7 539 7 515 q 34 565 7 556 q 94 574 61 574 q 154 565 126 575 q 185 535 182 556 q 183 499 185 528 q 179 431 182 471 q 175 344 176 390 q 175 254 174 297 q 183 178 176 211 q 201 131 189 144 q 235 122 218 111 q 269 160 253 132 q 299 226 285 188 q 325 300 314 264 q 343 365 336 336 q 351 401 350 393 m 94 860 q 181 854 142 875 q 229 788 221 833 q 228 742 233 765 q 211 699 224 719 q 180 664 199 679 q 138 640 161 649 q 51 647 90 625 q 3 713 13 668 q 21 801 -6 758 q 94 860 47 844 z "},"k":{"ha":582,"x_min":0,"x_max":700,"o":"m 422 379 q 390 355 407 364 q 354 343 372 346 q 359 293 353 326 q 380 227 365 260 q 417 172 394 194 q 469 156 439 150 q 505 179 488 160 q 538 231 522 199 q 567 305 554 263 q 589 396 579 347 q 601 401 589 399 q 632 403 614 404 q 669 396 650 403 q 700 371 688 389 q 676 272 692 321 q 638 181 660 224 q 588 103 615 138 q 531 50 560 69 q 425 19 481 18 q 323 53 369 19 q 243 151 276 86 q 203 311 210 215 q 194 258 199 294 q 185 183 190 222 q 176 113 181 144 q 167 74 171 82 q 131 51 153 50 q 86 68 108 53 q 47 106 64 83 q 25 149 29 129 q 12 247 18 183 q 3 390 6 310 q 2 560 0 469 q 12 739 4 650 q 35 911 19 828 q 75 1058 50 994 q 163 1173 104 1135 q 282 1212 221 1211 q 394 1175 343 1213 q 463 1063 446 1138 q 459 901 479 981 q 397 756 439 822 q 296 646 354 690 q 178 589 238 601 q 176 539 176 571 q 175 467 176 507 q 226 566 194 529 q 293 619 257 603 q 398 631 353 647 q 464 573 443 614 q 477 478 485 532 q 422 379 469 425 m 238 407 q 267 414 251 407 q 297 433 282 421 q 322 458 311 444 q 338 485 333 472 q 331 523 347 511 q 296 521 315 535 q 276 499 285 513 q 259 470 267 486 q 247 438 251 454 q 238 407 242 421 m 178 668 q 266 760 231 708 q 321 865 301 813 q 346 969 340 918 q 347 1057 351 1019 q 328 1115 342 1094 q 296 1132 315 1136 q 255 1094 272 1125 q 226 1019 238 1064 q 206 921 214 974 q 192 819 197 868 q 183 729 186 769 q 178 668 179 689 z "},"p":{"ha":675,"x_min":1,"x_max":789,"o":"m 182 -396 q 163 -480 186 -458 q 111 -494 140 -501 q 54 -456 82 -486 q 21 -386 26 -426 q 13 -302 17 -358 q 8 -173 10 -246 q 4 -15 6 -100 q 2 153 3 69 q 1 315 1 238 q 1 452 1 393 q 2 547 1 511 q 4 583 3 583 q 58 598 26 592 q 117 604 89 604 q 164 595 146 604 q 181 564 182 586 q 176 463 179 532 q 215 526 192 499 q 265 574 238 554 q 324 597 292 592 q 389 595 357 601 q 448 572 421 589 q 492 529 475 554 q 534 406 524 481 q 536 250 544 331 q 583 278 558 260 q 629 319 607 296 q 669 366 651 342 q 696 411 686 390 q 713 409 697 414 q 747 394 729 404 q 776 372 764 385 q 785 347 789 360 q 747 283 774 318 q 681 215 719 249 q 598 155 643 182 q 508 115 553 128 q 476 36 499 82 q 424 -44 454 -10 q 356 -91 393 -79 q 276 -69 318 -103 q 243 -23 254 -51 q 238 39 232 6 q 270 108 244 72 q 349 175 296 143 q 365 277 361 225 q 364 373 369 329 q 343 445 358 417 q 300 475 328 474 q 264 457 281 476 q 233 406 247 438 q 208 336 219 375 q 189 258 197 297 q 172 111 176 196 q 169 -65 168 26 q 174 -242 169 -156 q 182 -396 178 -329 z "},"n":{"ha":625,"x_min":0,"x_max":729,"o":"m 6 560 q 58 574 28 568 q 115 580 88 581 q 161 571 142 579 q 183 542 181 563 q 183 515 183 535 q 185 464 183 494 q 240 563 208 526 q 304 611 272 600 q 379 622 340 624 q 449 603 418 619 q 498 556 479 586 q 514 479 517 525 q 499 359 510 426 q 484 232 489 292 q 483 134 479 172 q 513 101 488 96 q 540 126 526 104 q 567 178 554 147 q 591 246 579 210 q 611 315 603 282 q 625 371 619 347 q 632 401 631 394 q 643 403 632 404 q 669 398 654 403 q 700 382 683 393 q 729 353 717 371 q 682 189 706 258 q 626 76 658 119 q 549 16 593 33 q 443 7 506 -1 q 368 40 394 13 q 329 106 342 67 q 316 192 317 144 q 320 290 315 240 q 331 385 325 339 q 339 468 338 432 q 323 524 342 519 q 276 485 304 529 q 247 405 263 463 q 216 281 231 347 q 192 156 201 215 q 182 71 182 97 q 181 69 182 68 q 153 54 176 58 q 103 59 131 50 q 49 94 75 68 q 15 169 24 119 q 6 246 10 204 q 1 331 3 288 q 0 416 0 375 q 1 489 0 457 q 3 540 1 521 q 6 560 4 560 z "},"r":{"ha":590,"x_min":-15,"x_max":708,"o":"m 601 397 q 614 402 601 400 q 644 401 626 404 q 680 390 663 399 q 708 361 697 381 q 654 207 681 275 q 595 91 628 139 q 522 17 563 43 q 425 -10 481 -8 q 342 10 375 -11 q 288 65 308 31 q 259 145 268 100 q 248 238 250 190 q 249 331 246 285 q 258 415 253 378 q 201 365 236 382 q 128 347 165 347 q 56 366 90 347 q 4 422 22 385 q -13 512 -11 454 q 1 635 -15 569 q 50 699 15 686 q 121 705 85 713 q 183 678 157 697 q 204 647 208 660 q 165 492 164 549 q 186 433 165 436 q 206 444 194 433 q 230 474 218 456 q 253 515 242 492 q 275 563 265 539 q 316 590 288 592 q 374 572 344 588 q 426 537 404 556 q 447 514 449 518 q 435 462 442 501 q 423 371 429 422 q 414 263 417 319 q 413 160 411 207 q 424 85 415 114 q 453 61 433 57 q 499 107 474 65 q 547 204 525 149 q 583 314 568 260 q 601 397 599 368 z "},"M":{"ha":1419,"x_min":0,"x_max":1268,"o":"m 47 -79 q 38 -24 43 -69 q 29 92 33 22 q 21 250 25 163 q 13 430 17 338 q 8 615 10 522 q 3 785 6 707 q 1 924 1 864 q 1 1011 0 983 q 19 1053 3 1038 q 58 1076 35 1068 q 109 1083 82 1083 q 159 1075 136 1082 q 197 1056 182 1068 q 213 1029 213 1044 q 210 958 211 1017 q 206 814 208 900 q 233 887 219 854 q 263 946 247 919 q 339 1034 296 1003 q 428 1076 382 1065 q 518 1083 475 1088 q 597 1061 561 1078 q 656 1017 632 1044 q 689 957 681 990 q 706 847 701 908 q 708 714 710 785 q 753 872 729 800 q 806 990 778 943 q 883 1078 840 1047 q 971 1121 925 1110 q 1061 1127 1018 1132 q 1140 1106 1104 1122 q 1200 1062 1175 1089 q 1233 1001 1225 1035 q 1251 868 1246 954 q 1256 676 1256 782 q 1253 455 1256 571 q 1251 233 1251 339 q 1252 38 1250 126 q 1264 -99 1254 -50 q 1252 -133 1268 -121 q 1209 -148 1236 -146 q 1150 -143 1182 -150 q 1090 -119 1118 -136 q 1041 -75 1061 -101 q 1019 -11 1021 -49 q 1019 133 1017 51 q 1024 307 1021 215 q 1032 494 1028 399 q 1038 676 1036 589 q 1035 838 1039 764 q 1023 963 1032 913 q 996 1033 1014 1013 q 949 1033 978 1054 q 878 942 911 1007 q 819 792 846 876 q 772 612 792 707 q 737 431 751 517 q 715 276 722 344 q 708 178 708 208 q 692 140 708 156 q 649 118 675 125 q 594 114 624 111 q 540 129 565 117 q 496 166 514 142 q 476 226 478 190 q 477 406 474 310 q 486 595 481 501 q 494 772 492 689 q 490 913 496 856 q 464 993 483 971 q 406 989 444 1015 q 341 917 371 964 q 285 805 311 869 q 237 663 258 740 q 197 501 215 586 q 193 323 194 411 q 191 161 192 235 q 190 35 190 88 q 193 -37 190 -18 q 176 -75 196 -60 q 130 -97 156 -90 q 79 -99 104 -103 q 47 -79 54 -94 z "},"K":{"ha":671,"x_min":-8,"x_max":1225,"o":"m 38 -117 q 28 -58 33 -107 q 19 66 24 -8 q 11 234 15 140 q 3 427 7 328 q -2 624 0 526 q -6 806 -4 722 q -8 953 -7 890 q -7 1043 -8 1015 q 27 1099 -6 1082 q 99 1115 60 1115 q 171 1099 139 1114 q 203 1061 203 1083 q 201 1013 203 1051 q 199 916 200 975 q 195 783 197 857 q 191 626 193 708 q 187 458 189 543 q 183 293 185 372 q 272 581 225 447 q 363 821 318 714 q 444 1006 407 928 q 506 1129 482 1085 q 545 1169 519 1156 q 599 1185 571 1182 q 656 1185 628 1189 q 704 1172 683 1181 q 735 1152 725 1163 q 738 1133 746 1142 q 702 1083 726 1121 q 645 988 678 1044 q 574 860 613 932 q 494 709 535 789 q 412 544 453 629 q 335 376 371 460 q 444 224 386 303 q 567 71 503 144 q 703 -67 632 -3 q 851 -178 774 -132 q 1014 -248 929 -225 q 1190 -261 1099 -271 q 1221 -272 1217 -258 q 1211 -309 1225 -286 q 1169 -358 1197 -332 q 1105 -407 1142 -385 q 1026 -443 1068 -429 q 943 -453 985 -457 q 821 -414 882 -447 q 700 -328 760 -381 q 583 -208 640 -275 q 473 -66 526 -140 q 369 85 419 8 q 276 235 319 163 q 217 60 240 139 q 194 -72 194 -19 q 188 -97 194 -87 q 169 -108 181 -106 q 137 -128 157 -121 q 97 -136 117 -135 q 60 -133 76 -137 q 38 -117 43 -129 z "},"W":{"ha":1251,"x_min":-1,"x_max":1147,"o":"m 369 -40 q 413 15 393 -22 q 451 103 433 51 q 483 217 468 154 q 508 349 497 279 q 491 524 499 433 q 476 701 483 615 q 464 864 469 788 q 453 997 458 940 q 466 1045 450 1026 q 507 1073 482 1064 q 563 1083 532 1082 q 622 1078 594 1085 q 669 1057 650 1071 q 693 1024 689 1043 q 695 1016 694 1019 q 696 1008 696 1013 q 695 978 696 993 q 693 949 694 964 q 693 819 693 894 q 694 660 693 744 q 699 485 696 575 q 708 311 703 394 q 724 156 714 228 q 747 34 733 83 q 778 -37 760 -15 q 819 -40 796 -58 q 885 60 856 -12 q 936 233 914 133 q 973 446 958 332 q 994 670 988 560 q 999 876 1000 781 q 988 1035 997 972 q 1008 1072 983 1064 q 1063 1072 1032 1079 q 1121 1048 1094 1065 q 1147 1008 1147 1031 q 1131 795 1143 908 q 1100 570 1118 682 q 1060 353 1082 458 q 1013 163 1038 249 q 964 18 989 78 q 917 -62 939 -42 q 756 -124 839 -136 q 592 -32 674 -112 q 567 18 578 -17 q 544 104 556 53 q 504 -1 524 42 q 467 -62 485 -44 q 306 -124 389 -136 q 142 -32 222 -112 q 104 54 121 -11 q 74 210 88 119 q 51 410 61 301 q 31 627 40 519 q 15 832 22 735 q 1 997 8 929 q 15 1045 -1 1026 q 59 1074 32 1064 q 117 1083 86 1083 q 176 1076 149 1083 q 223 1053 204 1068 q 242 1017 242 1038 q 242 914 242 982 q 242 758 242 846 q 246 572 243 671 q 254 378 249 474 q 269 199 260 283 q 292 54 278 114 q 324 -33 306 -6 q 369 -40 343 -60 z "},"R":{"ha":994,"x_min":0,"x_max":1219,"o":"m 47 -74 q 38 -18 43 -64 q 29 98 33 28 q 21 256 25 168 q 13 435 17 343 q 8 620 10 528 q 3 791 6 713 q 1 929 1 869 q 1 1017 0 989 q 19 1058 3 1043 q 58 1081 35 1074 q 109 1088 82 1089 q 159 1081 136 1088 q 197 1062 182 1074 q 213 1035 213 1050 q 211 990 213 1025 q 208 900 210 954 q 203 777 206 846 q 200 633 201 708 q 230 752 214 693 q 263 863 246 811 q 298 958 281 915 q 332 1029 315 1001 q 420 1126 368 1090 q 529 1173 472 1161 q 644 1172 586 1185 q 751 1126 703 1160 q 828 1041 799 1094 q 871 923 858 988 q 879 787 883 858 q 855 644 875 715 q 798 509 835 574 q 708 394 761 444 q 586 313 654 344 q 433 278 518 282 q 576 110 492 201 q 758 -58 660 19 q 966 -182 857 -135 q 1185 -218 1075 -229 q 1215 -230 1211 -215 q 1206 -267 1219 -244 q 1164 -316 1192 -289 q 1100 -365 1136 -343 q 1022 -400 1064 -386 q 939 -410 981 -414 q 788 -361 860 -403 q 654 -257 717 -319 q 537 -118 592 -194 q 435 35 482 -42 q 351 181 389 111 q 282 299 313 250 q 272 318 274 307 q 274 339 271 329 q 282 354 276 349 q 294 358 288 360 q 401 366 351 343 q 490 436 450 389 q 559 549 529 483 q 607 685 589 614 q 631 824 625 756 q 628 946 636 892 q 597 1032 619 1000 q 536 1061 575 1064 q 455 1017 493 1058 q 383 910 417 976 q 322 759 350 844 q 271 581 293 674 q 232 394 249 488 q 206 217 215 300 q 192 69 196 135 q 193 -32 189 4 q 176 -69 196 -54 q 130 -91 156 -85 q 79 -93 104 -97 q 47 -74 54 -89 z "},"Y":{"ha":907,"x_min":-1,"x_max":764,"o":"m 267 228 q 300 192 278 200 q 339 194 322 185 q 403 265 374 214 q 458 384 433 317 q 500 528 482 451 q 530 676 518 604 q 548 808 542 749 q 554 903 554 868 q 553 1022 554 971 q 554 1096 553 1072 q 588 1149 556 1133 q 660 1163 621 1164 q 732 1149 700 1163 q 764 1114 764 1135 q 763 1057 764 1103 q 759 942 761 1011 q 754 788 757 874 q 750 611 751 701 q 749 543 750 588 q 745 442 747 499 q 740 321 743 386 q 733 192 738 256 q 731 125 732 167 q 726 33 729 83 q 717 -76 722 -18 q 702 -190 711 -133 q 678 -300 693 -247 q 644 -393 664 -353 q 575 -480 619 -444 q 480 -528 531 -515 q 378 -527 429 -540 q 285 -469 326 -514 q 220 -344 244 -424 q 200 -142 196 -264 q 222 -105 200 -118 q 271 -88 244 -92 q 317 -92 297 -85 q 335 -115 338 -99 q 329 -315 315 -232 q 374 -434 343 -399 q 442 -451 404 -469 q 506 -346 479 -433 q 526 -221 517 -310 q 542 -15 535 -132 q 553 233 549 101 q 557 488 557 365 q 519 358 542 428 q 463 230 496 289 q 383 131 429 171 q 278 92 338 92 q 189 107 238 92 q 103 154 140 122 q 54 236 74 179 q 23 369 35 293 q 6 535 11 446 q 0 714 1 624 q 1 889 -1 804 q 4 1040 3 974 q 25 1106 6 1081 q 73 1145 44 1132 q 133 1160 101 1158 q 192 1154 165 1161 q 236 1131 219 1147 q 251 1094 253 1115 q 243 990 247 1058 q 236 836 239 921 q 233 659 233 751 q 236 483 233 567 q 247 331 239 399 q 267 228 254 263 z "},"V":{"ha":799,"x_min":-1,"x_max":697,"o":"m 369 -21 q 435 80 406 7 q 486 251 464 153 q 522 465 508 350 q 542 689 536 579 q 547 895 549 799 q 536 1054 546 992 q 557 1091 532 1083 q 613 1092 582 1099 q 671 1067 644 1085 q 696 1028 697 1050 q 680 815 692 928 q 650 590 668 701 q 609 373 632 478 q 562 183 586 268 q 513 38 538 97 q 467 -43 489 -22 q 305 -105 388 -117 q 142 -12 222 -93 q 104 74 121 8 q 74 230 88 139 q 51 430 61 321 q 31 647 40 539 q 15 851 22 754 q 1 1017 8 949 q 15 1065 -1 1046 q 59 1093 32 1083 q 117 1103 86 1103 q 176 1095 149 1103 q 223 1072 204 1088 q 242 1036 242 1057 q 242 933 242 1001 q 242 777 242 864 q 246 592 243 690 q 253 398 249 493 q 267 218 258 303 q 290 74 276 133 q 324 -13 304 14 q 369 -21 343 -40 z "},"Z":{"ha":857,"x_min":-1,"x_max":831,"o":"m 543 972 q 385 957 464 967 q 239 941 306 947 q 124 937 172 935 q 58 958 76 939 q 16 1031 29 988 q 1 1110 3 1074 q 6 1169 -1 1147 q 24 1179 13 1192 q 99 1137 49 1151 q 214 1115 149 1122 q 356 1107 279 1108 q 511 1106 432 1106 q 668 1108 590 1107 q 813 1107 746 1110 q 828 1077 825 1107 q 815 994 831 1047 q 814 987 814 990 q 811 981 814 983 q 767 908 804 968 q 676 760 731 849 q 557 567 622 672 q 428 357 492 461 q 310 161 365 253 q 221 8 256 69 q 358 42 285 25 q 497 70 432 60 q 610 82 561 81 q 676 68 660 83 q 713 10 701 43 q 724 -49 724 -22 q 716 -92 724 -76 q 697 -99 708 -107 q 605 -73 668 -75 q 460 -78 542 -71 q 285 -98 378 -86 q 106 -115 193 -110 q 87 -109 100 -115 q 61 -88 74 -103 q 40 -52 49 -74 q 36 1 32 -31 q 67 74 38 13 q 142 225 96 135 q 246 422 189 315 q 359 633 303 529 q 464 828 415 738 q 543 972 513 918 z "},"A":{"ha":1025,"x_min":1,"x_max":906,"o":"m 590 1113 q 637 1124 597 1122 q 722 1113 676 1125 q 805 1076 768 1101 q 844 1006 842 1050 q 848 947 846 994 q 853 830 850 900 q 860 672 856 760 q 868 494 864 585 q 876 313 872 403 q 885 149 881 224 q 894 20 890 74 q 901 -54 899 -33 q 886 -92 906 -76 q 841 -113 867 -107 q 790 -116 815 -119 q 757 -97 765 -112 q 744 -31 751 -86 q 726 107 736 24 q 578 177 661 151 q 408 215 496 203 q 350 48 376 119 q 308 -51 324 -24 q 260 -107 288 -90 q 203 -126 232 -124 q 148 -119 175 -128 q 102 -99 121 -111 q 75 -75 83 -87 q 76 -57 67 -62 q 146 37 104 -40 q 236 226 188 114 q 156 224 194 226 q 83 215 117 221 q 44 236 60 211 q 18 292 28 261 q 5 350 8 324 q 1 376 1 376 q 135 392 57 393 q 300 376 213 392 q 365 540 332 456 q 428 702 399 624 q 485 852 458 781 q 534 978 513 924 q 570 1069 556 1033 q 590 1113 585 1104 m 713 235 q 694 440 703 332 q 676 647 685 547 q 663 828 668 746 q 654 960 657 911 q 642 931 651 957 q 618 859 633 904 q 583 753 603 814 q 542 625 564 693 q 497 485 521 557 q 450 342 474 413 q 588 294 521 321 q 713 235 656 267 z "},"G":{"ha":917,"x_min":0,"x_max":767,"o":"m 178 1049 q 282 1110 224 1090 q 401 1129 340 1131 q 519 1108 463 1128 q 619 1047 576 1088 q 686 949 663 1007 q 703 817 710 892 q 685 789 701 799 q 649 777 668 779 q 616 780 631 775 q 601 796 601 785 q 593 914 606 865 q 558 992 581 963 q 506 1032 536 1021 q 444 1038 475 1043 q 383 1013 413 1033 q 331 960 353 993 q 295 875 313 933 q 264 740 278 817 q 240 572 250 663 q 229 393 231 482 q 235 222 228 304 q 263 76 243 139 q 314 -24 282 13 q 394 -57 346 -60 q 449 -24 421 -56 q 501 56 478 7 q 542 166 525 106 q 564 288 558 226 q 561 389 563 340 q 558 475 560 438 q 556 537 557 513 q 556 568 556 561 q 588 593 556 583 q 659 603 619 603 q 731 592 699 603 q 765 554 764 581 q 765 491 767 535 q 762 389 764 447 q 757 263 760 331 q 750 126 754 194 q 747 60 749 101 q 741 -33 744 18 q 732 -141 738 -83 q 717 -256 726 -199 q 694 -365 708 -312 q 660 -458 679 -418 q 595 -537 635 -510 q 512 -568 556 -564 q 425 -556 468 -572 q 352 -501 382 -539 q 309 -408 322 -464 q 311 -281 296 -353 q 336 -245 315 -258 q 379 -230 357 -232 q 417 -237 401 -228 q 428 -271 433 -247 q 415 -399 411 -346 q 434 -478 418 -453 q 473 -496 450 -503 q 517 -441 496 -489 q 554 -301 539 -393 q 571 -67 569 -210 l 571 -3 q 496 -103 538 -65 q 406 -144 460 -135 q 298 -144 353 -153 q 192 -112 243 -136 q 111 -54 142 -87 q 51 41 75 -15 q 15 174 26 97 q 3 324 6 243 q 3 490 0 406 q 19 657 7 574 q 51 815 31 740 q 103 949 72 889 q 178 1049 135 1010 z "},"J":{"ha":633,"x_min":-115,"x_max":521,"o":"m 326 357 q 321 517 324 435 q 316 676 318 599 q 313 824 314 754 q 311 951 311 894 q 208 946 260 936 q 163 968 181 950 q 133 1010 144 986 q 117 1060 122 1035 q 114 1106 113 1086 q 122 1138 115 1126 q 138 1144 128 1150 q 208 1117 176 1124 q 265 1112 239 1110 q 313 1124 292 1114 q 356 1146 335 1133 q 406 1160 376 1160 q 460 1154 435 1161 q 503 1133 486 1147 q 521 1103 521 1119 q 519 1019 521 1089 q 514 848 517 950 q 508 625 511 746 q 503 388 506 504 q 502 249 501 332 q 498 79 503 167 q 479 -89 493 -8 q 435 -219 465 -169 q 331 -320 393 -287 q 201 -354 268 -353 q 71 -326 135 -356 q -37 -241 7 -297 q -99 -103 -82 -185 q -89 83 -115 -21 q -72 103 -86 93 q -37 122 -57 114 q 4 135 -18 131 q 43 138 26 140 q 68 126 60 136 q 71 94 76 115 q 43 -69 43 0 q 62 -184 43 -139 q 113 -251 81 -229 q 181 -274 146 -274 q 247 -254 215 -274 q 299 -196 279 -235 q 322 -101 315 -162 q 331 35 329 -40 q 331 194 333 111 q 326 357 329 278 z "},"O":{"ha":936,"x_min":-3,"x_max":776,"o":"m 219 1003 q 273 1074 240 1043 q 351 1118 306 1104 q 427 1130 389 1129 q 499 1123 465 1131 q 561 1103 533 1115 q 606 1074 589 1090 q 694 943 658 1021 q 750 774 731 865 q 773 583 769 682 q 765 387 776 483 q 728 203 754 290 q 662 49 701 117 q 569 -59 622 -18 q 451 -104 517 -100 q 285 -93 360 -110 q 147 -7 203 -76 q 56 160 90 63 q 10 375 22 258 q 2 603 -3 492 q 28 811 7 715 q 81 965 49 907 q 141 1008 101 1001 q 219 1003 181 1014 m 353 1042 q 317 997 335 1029 q 290 924 300 965 q 277 839 279 883 q 288 757 275 794 q 226 763 253 751 q 217 635 219 704 q 215 495 214 567 q 219 351 215 424 q 233 215 224 279 q 256 99 242 151 q 289 11 269 46 q 333 -34 307 -19 q 385 -47 358 -49 q 438 -26 413 -44 q 479 26 463 -8 q 520 153 503 76 q 547 322 538 231 q 557 511 556 413 q 551 701 558 610 q 527 870 543 792 q 485 999 511 949 q 463 1025 478 1013 q 428 1045 447 1038 q 390 1053 410 1053 q 353 1042 369 1053 z "},"Q":{"ha":897,"x_min":-3,"x_max":1025,"o":"m 218 1001 q 272 1073 240 1042 q 350 1117 304 1104 q 426 1128 388 1128 q 498 1122 464 1129 q 560 1102 532 1115 q 604 1074 588 1089 q 693 942 657 1021 q 749 773 729 864 q 772 582 768 682 q 764 386 775 482 q 726 203 753 290 q 660 48 700 115 q 568 -60 621 -19 q 450 -106 515 -101 l 449 -106 q 615 -203 533 -156 q 770 -286 697 -250 q 904 -341 843 -322 q 1008 -351 965 -360 q 1024 -369 1025 -349 q 1004 -416 1022 -389 q 953 -468 986 -443 q 876 -500 921 -493 q 797 -478 850 -504 q 675 -407 743 -451 q 531 -307 607 -362 q 381 -198 454 -251 q 243 -99 307 -144 q 138 -31 179 -54 q 142 -18 140 -24 q 144 -8 143 -12 q 67 127 97 47 q 20 299 36 207 q 1 488 4 390 q 6 676 -3 586 q 34 840 15 765 q 79 964 53 915 q 140 1007 100 1000 q 218 1001 179 1014 m 351 1040 q 316 997 333 1029 q 288 924 299 965 q 276 839 278 883 q 286 757 274 794 q 225 761 250 751 q 214 566 217 675 q 218 351 211 457 q 242 153 225 244 q 288 11 258 63 q 331 -35 306 -21 q 384 -48 357 -50 q 436 -28 411 -46 q 478 25 461 -10 q 519 152 501 75 q 546 321 536 229 q 556 510 556 413 q 549 699 557 608 q 526 869 542 790 q 483 997 510 947 q 461 1024 476 1011 q 427 1044 446 1036 q 388 1051 408 1051 q 351 1040 368 1051 z "},"C":{"ha":818,"x_min":-1,"x_max":715,"o":"m 171 1086 q 275 1151 217 1129 q 394 1172 333 1172 q 512 1150 454 1171 q 613 1089 569 1129 q 679 988 656 1049 q 697 850 703 928 q 667 822 696 831 q 605 810 639 813 q 543 814 571 808 q 515 831 515 819 q 497 1000 519 939 q 442 1080 475 1061 q 376 1076 410 1099 q 324 996 342 1054 q 303 910 315 969 q 281 770 292 850 q 260 597 269 690 q 247 411 250 504 q 249 232 244 318 q 271 81 254 146 q 318 -22 288 15 q 397 -57 349 -60 q 450 -26 428 -56 q 488 50 472 4 q 512 150 503 96 q 524 257 521 204 q 557 288 525 276 q 626 297 589 300 q 689 272 663 294 q 706 201 715 250 q 634 -3 688 78 q 509 -122 581 -83 q 357 -158 438 -160 q 206 -118 276 -157 q 83 -4 135 -79 q 17 179 31 71 q 3 335 7 251 q 1 506 -1 418 q 15 679 4 593 q 47 842 26 765 q 97 983 67 919 q 171 1086 128 1046 z "},"U":{"ha":907,"x_min":0,"x_max":771,"o":"m 319 21 q 404 115 367 54 q 469 250 442 175 q 514 410 496 325 q 543 577 532 494 q 558 735 554 660 q 561 868 563 811 q 560 987 560 936 q 560 1061 560 1038 q 577 1101 561 1086 q 617 1123 593 1117 q 667 1128 640 1129 q 717 1122 694 1128 q 756 1103 740 1115 q 771 1078 771 1092 q 769 1019 771 1067 q 766 901 768 972 q 761 740 764 829 q 756 558 758 651 q 752 373 754 464 q 749 206 750 282 q 749 76 749 129 q 751 3 749 22 q 734 -33 754 -18 q 688 -53 714 -47 q 638 -56 663 -60 q 606 -37 613 -53 q 598 9 601 -31 q 591 106 594 49 q 584 235 588 164 q 578 375 581 306 q 535 233 561 306 q 474 97 510 160 q 394 -14 439 33 q 290 -79 349 -61 q 231 -87 260 -89 q 176 -76 201 -86 q 127 -52 150 -67 q 85 -21 104 -37 q 38 72 56 4 q 13 230 21 139 q 2 428 4 321 q 2 640 0 535 q 7 842 4 746 q 11 1006 10 938 q 52 1094 13 1067 q 139 1125 92 1122 q 224 1110 186 1128 q 258 1060 261 1092 q 249 957 254 1025 q 238 803 243 889 q 228 621 232 718 q 224 431 225 524 q 228 254 224 338 q 243 113 232 171 q 273 28 254 54 q 319 21 292 1 z "},"N":{"ha":947,"x_min":0,"x_max":800,"o":"m 47 -79 q 38 -24 43 -69 q 29 92 33 22 q 21 250 25 163 q 13 430 17 338 q 8 615 10 522 q 3 785 6 707 q 1 924 1 864 q 1 1011 0 983 q 19 1053 3 1038 q 58 1076 35 1068 q 109 1083 82 1083 q 159 1075 136 1082 q 197 1056 182 1068 q 213 1029 213 1044 q 210 969 213 1018 q 206 849 208 921 q 202 688 204 778 q 197 506 200 599 q 226 649 210 578 q 259 784 242 721 q 297 900 276 847 q 339 990 317 953 q 415 1078 372 1047 q 503 1121 457 1110 q 594 1127 550 1132 q 673 1106 638 1122 q 733 1062 708 1089 q 765 1001 757 1035 q 783 868 778 954 q 788 676 788 782 q 785 455 788 571 q 783 233 783 339 q 784 38 782 126 q 796 -99 786 -50 q 784 -133 800 -121 q 742 -148 768 -146 q 683 -143 715 -150 q 623 -119 651 -136 q 574 -75 594 -101 q 553 -11 554 -49 q 552 133 550 51 q 558 307 554 215 q 565 494 561 399 q 569 676 568 589 q 568 838 571 764 q 556 963 565 913 q 528 1033 546 1013 q 482 1033 511 1054 q 406 942 440 1004 q 342 797 371 881 q 290 615 313 714 q 249 413 267 517 q 216 207 231 310 q 192 14 201 104 q 192 -17 192 -4 q 193 -37 192 -29 q 176 -75 196 -60 q 130 -97 156 -90 q 79 -99 104 -103 q 47 -79 54 -94 z "},"D":{"ha":985,"x_min":0,"x_max":857,"o":"m 193 -33 q 174 -72 194 -56 q 140 -89 160 -83 q 102 -95 121 -94 q 68 -91 83 -96 q 47 -75 53 -86 q 38 -19 43 -65 q 29 97 33 26 q 21 254 25 167 q 13 434 17 342 q 8 619 10 526 q 3 790 6 711 q 1 928 1 868 q 1 1015 0 988 q 19 1057 3 1042 q 58 1080 35 1072 q 109 1087 82 1088 q 159 1079 136 1086 q 197 1060 182 1072 q 213 1033 213 1049 q 211 985 213 1022 q 208 891 210 949 q 203 758 206 833 q 199 593 200 682 q 258 831 225 735 q 332 994 292 926 q 394 1075 360 1040 q 468 1131 429 1110 q 569 1158 514 1156 q 674 1147 624 1161 q 764 1101 725 1132 q 818 1029 803 1071 q 849 876 840 967 q 853 683 857 786 q 831 470 849 579 q 782 262 813 361 q 708 80 751 163 q 610 -51 665 -3 q 485 -122 547 -107 q 374 -122 424 -136 q 291 -68 324 -107 q 253 21 258 -29 q 265 57 250 46 q 297 70 279 68 q 330 67 315 72 q 342 54 344 63 q 342 -8 331 21 q 375 -49 353 -37 q 424 -45 397 -60 q 474 24 451 -31 q 507 124 489 60 q 543 267 525 188 q 577 437 561 347 q 603 614 593 526 q 615 781 613 701 q 610 918 618 860 q 581 1008 601 976 q 522 1033 560 1040 q 421 950 468 1022 q 336 772 374 878 q 269 540 299 665 q 222 300 240 415 q 197 94 204 185 q 193 -33 189 4 z "},"L":{"ha":611,"x_min":-1,"x_max":724,"o":"m 86 -118 q 77 -59 82 -108 q 68 66 72 -10 q 60 236 64 142 q 52 431 56 331 q 47 629 49 531 q 42 812 44 728 q 40 959 40 896 q 40 1050 39 1022 q 58 1092 42 1076 q 97 1116 74 1108 q 148 1123 121 1124 q 198 1115 175 1122 q 236 1096 221 1108 q 251 1068 251 1083 q 250 1006 251 1057 q 247 880 249 956 q 242 710 244 804 q 237 515 239 615 q 233 319 235 415 q 230 141 231 222 q 229 3 229 60 q 232 -75 229 -54 q 229 -93 233 -83 q 369 -63 297 -78 q 502 -40 440 -49 q 610 -32 564 -32 q 672 -46 656 -32 q 712 -103 700 -71 q 724 -163 724 -136 q 715 -206 724 -190 q 694 -212 707 -221 q 591 -187 663 -189 q 426 -192 519 -185 q 230 -212 333 -200 q 33 -229 126 -224 q 21 -228 28 -229 q 8 -219 14 -226 q 1 -194 3 -211 q 3 -146 -1 -178 q 92 -126 32 -142 q 86 -118 89 -124 z "},"E":{"ha":654,"x_min":-94,"x_max":792,"o":"m -14 -46 q 35 -36 4 -43 q 106 -19 65 -29 l 104 -19 q 74 344 86 13 q 37 344 54 344 q 6 343 19 344 q 3 383 0 368 q 13 407 6 399 q 27 418 19 415 q 39 421 35 421 q 55 424 47 422 q 71 426 63 425 q 65 603 68 515 q 61 767 63 690 q 59 902 60 843 q 58 992 58 961 q -20 995 15 994 q -83 993 -56 996 q -94 1040 -94 1022 q -87 1066 -93 1057 q -72 1078 -81 1075 q -54 1081 -62 1081 q 197 1097 71 1093 q 435 1108 324 1101 q 632 1133 546 1115 q 761 1192 718 1151 q 783 1186 774 1204 q 791 1135 792 1168 q 776 1064 790 1103 q 729 996 763 1025 q 669 972 711 979 q 566 965 626 965 q 429 970 506 965 q 268 981 353 975 q 265 890 267 946 q 262 763 264 833 q 258 611 260 692 q 254 450 256 531 q 384 471 328 460 q 468 503 440 482 q 490 490 481 511 q 497 439 499 469 q 479 380 494 408 q 428 344 464 351 q 351 338 397 339 q 251 339 304 338 q 248 125 249 199 q 250 21 247 51 q 250 13 251 17 q 463 57 386 43 q 572 44 540 71 q 613 -12 601 19 q 626 -72 625 -44 q 617 -114 626 -99 q 596 -121 608 -129 q 505 -94 563 -99 q 372 -97 447 -90 q 206 -113 296 -103 q 18 -128 115 -124 q 4 -127 11 -128 q -8 -118 -3 -126 q -16 -93 -14 -110 q -14 -46 -18 -76 z "},"T":{"ha":464,"x_min":-375,"x_max":854,"o":"m -346 942 q -369 941 -362 931 q -373 970 -375 951 q -361 1010 -371 989 q -336 1043 -351 1032 q -236 1087 -300 1069 q -91 1116 -172 1104 q 84 1134 -10 1128 q 272 1145 178 1140 q 457 1155 367 1150 q 622 1167 547 1160 q 749 1188 696 1175 q 824 1221 803 1200 q 845 1215 836 1233 q 853 1165 854 1197 q 839 1093 853 1132 q 792 1025 825 1054 q 736 1007 779 1013 q 629 999 693 1001 q 485 999 565 997 q 319 1001 406 1000 l 319 999 q 318 941 319 988 q 315 823 317 894 q 310 663 313 751 q 305 483 307 575 q 301 299 303 390 q 299 133 300 208 q 299 5 299 58 q 301 -68 299 -49 q 283 -103 303 -89 q 238 -123 264 -117 q 187 -126 211 -129 q 156 -108 163 -124 q 147 -55 151 -99 q 137 56 142 -11 q 128 206 132 122 q 122 377 125 289 q 115 553 118 465 q 111 715 113 640 q 109 847 110 790 q 110 929 108 903 q 126 971 111 953 q 163 1001 140 989 q 3 999 81 1001 q -142 990 -75 997 q -262 972 -208 983 q -346 942 -315 960 z "},"B":{"ha":986,"x_min":0,"x_max":874,"o":"m 318 110 q 313 60 313 89 q 317 5 313 32 q 331 -44 322 -22 q 353 -76 340 -67 q 384 -78 367 -85 q 424 -40 401 -71 q 451 18 439 -18 q 473 97 464 54 q 487 187 482 140 q 491 276 492 233 q 483 353 490 318 q 464 410 476 389 q 431 444 450 431 q 393 458 413 458 q 371 471 379 458 q 363 498 363 483 q 372 524 363 513 q 403 536 382 536 q 488 560 449 535 q 559 628 528 586 q 612 722 590 669 q 644 828 633 775 q 652 931 654 882 q 635 1013 650 979 q 589 1061 619 1047 q 511 1058 558 1075 q 407 961 454 1039 q 323 776 360 883 q 260 544 286 668 q 217 305 233 419 q 195 101 201 190 q 193 -28 189 11 q 174 -67 196 -51 q 140 -84 160 -78 q 102 -91 121 -90 q 68 -87 83 -92 q 47 -71 53 -82 q 38 -15 43 -61 q 29 101 33 31 q 21 258 25 171 q 13 438 17 346 q 8 623 10 531 q 3 794 6 715 q 1 932 1 872 q 1 1019 0 992 q 19 1062 3 1046 q 58 1085 35 1078 q 109 1091 82 1092 q 159 1083 136 1090 q 197 1065 182 1076 q 213 1038 213 1053 q 207 922 211 1015 q 199 649 203 828 q 234 803 211 719 q 293 960 257 886 q 383 1088 329 1035 q 510 1153 436 1142 q 636 1156 576 1163 q 743 1124 696 1150 q 822 1051 790 1097 q 864 935 853 1004 q 863 798 874 871 q 815 660 853 725 q 710 545 778 594 q 539 481 643 496 q 512 476 519 478 q 507 475 504 475 q 575 457 546 472 q 624 417 604 442 q 656 358 644 392 q 674 288 668 325 q 670 140 685 214 q 621 6 656 65 q 533 -93 586 -54 q 414 -136 481 -132 q 263 -88 314 -142 q 222 67 211 -35 q 240 99 224 88 q 274 115 257 111 q 306 118 292 119 q 318 110 319 117 z "},"H":{"ha":943,"x_min":-131,"x_max":826,"o":"m 83 -103 q 76 -64 79 -94 q 69 15 72 -33 q 63 125 65 63 q 57 258 60 188 q -3 254 25 257 q -57 247 -32 251 q -95 268 -81 243 q -118 324 -110 293 q -128 382 -126 356 q -131 408 -131 408 q -49 422 -94 419 q 50 422 -3 425 q 44 625 47 524 q 40 813 42 726 q 38 965 39 900 q 39 1058 38 1029 q 73 1114 40 1097 q 145 1129 106 1131 q 217 1113 185 1128 q 249 1075 249 1099 q 247 997 249 1063 q 242 836 244 932 q 236 624 239 740 q 231 396 233 508 q 453 326 344 371 q 636 226 561 282 q 630 388 633 303 q 624 558 626 474 q 619 722 621 642 q 617 868 618 801 q 615 985 615 935 q 615 1058 614 1035 q 650 1114 617 1097 q 723 1129 683 1131 q 794 1113 763 1128 q 826 1075 826 1099 q 825 1014 826 1064 q 822 888 824 964 q 817 719 819 813 q 812 526 814 625 q 808 331 810 428 q 805 155 806 235 q 804 17 804 75 q 807 -60 804 -40 q 790 -97 810 -82 q 744 -119 769 -112 q 693 -122 718 -125 q 661 -103 668 -118 q 649 -8 656 -89 q 601 115 643 67 q 499 190 560 163 q 367 231 439 218 q 229 251 296 244 q 226 51 226 136 q 229 -60 226 -33 q 212 -97 232 -82 q 166 -119 192 -112 q 115 -122 140 -125 q 83 -103 90 -118 z "},"S":{"ha":886,"x_min":-3,"x_max":767,"o":"m 533 650 q 560 874 569 788 q 517 1004 551 961 q 431 1049 482 1047 q 334 1019 381 1051 q 255 924 288 988 q 224 774 222 861 q 246 677 224 724 q 302 586 268 631 q 379 498 336 542 q 465 410 422 454 q 547 319 508 365 q 613 221 586 272 q 646 106 642 165 q 634 -6 650 47 q 585 -105 618 -60 q 505 -177 551 -150 q 401 -211 458 -204 q 279 -194 343 -218 q 186 -128 225 -175 q 138 -1 147 -81 q 144 49 133 28 q 172 85 154 71 q 210 104 189 99 q 250 108 232 110 q 279 99 268 107 q 288 75 290 90 q 285 -34 276 11 q 314 -104 294 -79 q 360 -136 333 -129 q 411 -133 388 -143 q 452 -94 435 -122 q 471 -21 469 -65 q 441 115 474 53 q 357 233 408 176 q 245 343 306 289 q 131 454 185 397 q 41 574 78 511 q 1 713 4 638 q 35 888 -3 810 q 135 1019 72 965 q 276 1101 197 1072 q 434 1130 356 1131 q 583 1097 513 1129 q 700 999 654 1065 q 753 858 740 940 q 733 675 767 776 q 686 621 721 638 q 615 604 651 604 q 553 617 579 604 q 533 650 528 631 z "},"X":{"ha":946,"x_min":-3,"x_max":1240,"o":"m 28 -36 q 49 16 29 -26 q 101 122 69 58 q 176 267 133 186 q 265 435 218 347 q 115 708 182 574 q 7 951 49 843 q 3 999 -3 978 q 23 1038 8 1021 q 58 1065 38 1054 q 97 1082 78 1076 q 129 1087 115 1088 q 146 1079 143 1086 q 215 892 169 1006 q 328 653 261 779 q 341 628 335 640 q 354 603 347 615 q 440 760 397 683 q 517 902 482 838 q 580 1015 553 967 q 621 1088 607 1064 q 660 1117 632 1108 q 722 1125 688 1125 q 791 1117 756 1125 q 854 1098 826 1110 q 895 1071 882 1086 q 900 1040 908 1056 q 873 1003 896 1032 q 815 929 850 974 q 736 828 781 885 q 644 706 692 771 q 547 570 596 640 q 456 431 499 500 q 550 290 499 365 q 660 143 601 215 q 784 6 719 71 q 918 -108 849 -60 q 1060 -181 988 -156 q 1206 -199 1132 -207 q 1236 -210 1232 -196 q 1226 -247 1240 -224 q 1185 -296 1213 -269 q 1120 -344 1157 -322 q 1042 -381 1083 -367 q 958 -390 1000 -394 q 874 -356 919 -387 q 777 -275 828 -325 q 674 -159 726 -225 q 567 -20 621 -93 q 462 130 514 53 q 363 279 410 207 q 288 156 322 214 q 224 50 253 97 q 177 -31 196 3 q 151 -78 158 -64 q 120 -103 142 -100 q 78 -96 99 -106 q 41 -69 57 -86 q 28 -36 25 -53 z "},"P":{"ha":996,"x_min":0,"x_max":881,"o":"m 47 -71 q 38 -15 43 -61 q 29 101 33 31 q 21 258 25 171 q 13 438 17 346 q 8 623 10 531 q 3 794 6 715 q 1 932 1 872 q 1 1019 0 992 q 19 1062 3 1046 q 58 1085 35 1078 q 109 1091 82 1092 q 159 1083 136 1090 q 197 1065 182 1076 q 213 1038 213 1053 q 211 992 213 1028 q 208 903 210 957 q 203 781 206 850 q 200 638 201 713 q 230 756 214 697 q 263 867 246 815 q 298 962 281 919 q 332 1032 315 1004 q 420 1130 368 1094 q 529 1176 472 1165 q 644 1175 586 1188 q 751 1129 703 1163 q 826 1042 797 1097 q 868 917 856 986 q 876 770 881 847 q 849 619 872 693 q 786 481 826 546 q 687 374 746 417 q 551 313 628 331 q 376 315 474 296 q 351 328 363 315 q 338 356 340 342 q 341 380 335 369 q 368 385 347 390 q 475 415 426 369 q 559 537 524 460 q 614 707 594 614 q 633 881 633 800 q 608 1015 632 963 q 536 1065 585 1068 q 455 1022 493 1063 q 383 915 417 981 q 322 763 350 849 q 271 585 293 678 q 232 398 249 492 q 206 222 215 304 q 192 74 196 139 q 193 -28 189 8 q 176 -65 196 -50 q 130 -87 156 -81 q 79 -90 104 -93 q 47 -71 54 -86 z "},"I":{"ha":346,"x_min":0,"x_max":213,"o":"m 47 -115 q 38 -56 43 -106 q 29 67 33 -7 q 21 235 25 142 q 13 428 17 329 q 8 626 10 528 q 3 808 6 724 q 1 954 1 892 q 1 1044 0 1017 q 19 1087 3 1071 q 58 1110 35 1103 q 109 1116 82 1117 q 159 1108 136 1115 q 197 1090 182 1101 q 213 1063 213 1078 q 211 1001 213 1051 q 208 876 210 951 q 203 706 206 800 q 198 513 200 613 q 194 318 196 414 q 191 142 192 222 q 190 4 190 61 q 193 -74 190 -53 q 176 -110 196 -94 q 130 -131 156 -125 q 79 -134 104 -137 q 47 -115 54 -131 z "},"F":{"ha":660,"x_min":-99,"x_max":850,"o":"m -87 1011 q -98 1058 -99 1040 q -91 1083 -97 1075 q -76 1094 -85 1092 q -58 1099 -67 1097 q 203 1115 67 1111 q 462 1126 339 1119 q 680 1151 585 1133 q 818 1210 775 1169 q 840 1204 831 1222 q 849 1153 850 1186 q 835 1082 849 1121 q 788 1013 821 1043 q 724 991 771 997 q 613 983 678 985 q 471 985 549 982 q 314 994 393 989 q 311 902 313 958 q 308 777 310 846 q 303 631 306 708 q 300 475 301 553 q 408 494 361 483 q 481 522 454 504 q 501 510 493 531 q 508 459 510 489 q 492 401 507 429 q 440 365 476 372 q 377 360 414 361 q 297 360 340 358 q 294 224 296 289 q 293 108 293 160 q 294 19 293 56 q 296 -32 294 -17 q 278 -67 299 -53 q 233 -87 258 -81 q 182 -90 207 -93 q 150 -72 157 -87 q 142 -25 146 -64 q 133 73 138 14 q 126 207 129 132 q 119 364 122 282 q 18 364 56 367 q 15 404 13 389 q 25 428 18 419 q 40 439 32 436 q 51 442 47 442 q 83 447 67 444 q 115 451 100 449 q 110 622 113 538 q 107 781 108 707 q 105 915 106 856 q 104 1007 104 974 q -3 1012 46 1010 q -87 1011 -53 1014 z "},"":{"ha":1988,"x_min":-3,"x_max":1868,"o":"m 517 529 q 467 445 506 479 q 378 394 429 411 q 268 379 326 378 q 158 401 210 381 q 69 460 107 421 q 18 560 31 500 q 0 751 -3 664 q 18 919 3 839 q 67 1019 29 979 q 155 1082 104 1060 q 263 1108 206 1104 q 372 1097 321 1111 q 463 1049 424 1082 q 514 967 501 1017 q 537 851 529 906 q 544 745 544 797 q 538 640 544 693 q 517 529 531 588 m 1500 418 q 1500 19 1465 218 q 1535 -56 1508 -32 q 1592 -81 1563 -81 q 1650 -56 1622 -81 q 1689 15 1678 -31 q 1704 113 1699 61 q 1710 219 1710 165 q 1704 326 1710 274 q 1689 422 1699 378 q 1650 493 1678 468 q 1592 518 1622 518 q 1535 494 1563 518 q 1500 418 1508 469 m 1838 446 q 1860 331 1853 385 q 1868 224 1868 276 q 1861 119 1868 172 q 1840 8 1854 67 q 1791 -76 1829 -42 q 1701 -126 1753 -110 q 1592 -142 1650 -143 q 1482 -120 1533 -140 q 1392 -60 1431 -100 q 1342 39 1354 -21 q 1324 231 1321 144 q 1342 400 1326 318 q 1390 500 1353 460 q 1478 562 1428 540 q 1587 587 1529 583 q 1696 576 1644 590 q 1786 528 1747 561 q 1838 446 1825 496 m 1228 8 q 1178 -76 1217 -42 q 1089 -126 1140 -110 q 979 -142 1038 -143 q 869 -120 921 -140 q 779 -60 818 -100 q 729 39 740 -21 q 711 231 708 144 q 729 400 714 318 q 778 500 740 460 q 866 562 815 540 q 974 587 917 583 q 1083 576 1032 590 q 1174 528 1135 561 q 1225 446 1213 496 q 1248 331 1240 385 q 1256 224 1256 276 q 1249 119 1256 172 q 1228 8 1242 67 m 888 19 q 923 -56 896 -32 q 980 -81 950 -81 q 1038 -56 1010 -81 q 1076 15 1065 -31 q 1091 113 1086 61 q 1096 219 1096 165 q 1091 326 1096 274 q 1076 422 1086 378 q 1038 493 1065 468 q 980 518 1010 518 q 923 494 950 518 q 888 418 896 469 q 888 19 853 218 m 378 -86 q 392 -29 376 -81 q 434 103 407 22 q 496 284 461 183 q 567 491 531 385 q 641 701 604 597 q 708 888 678 804 q 758 1030 738 972 q 785 1101 779 1088 q 819 1122 793 1121 q 870 1112 844 1122 q 915 1086 896 1101 q 929 1060 933 1071 q 907 1003 926 1054 q 856 874 888 953 q 786 695 825 794 q 706 491 747 596 q 626 285 665 386 q 556 103 588 185 q 506 -33 525 21 q 483 -99 486 -87 q 465 -114 481 -111 q 430 -114 449 -117 q 395 -103 411 -111 q 378 -86 379 -96 m 176 540 q 212 465 185 489 q 269 440 239 440 q 326 465 299 440 q 365 536 354 490 q 381 633 375 581 q 386 740 386 686 q 381 846 386 793 q 365 943 375 899 q 326 1014 354 989 q 269 1039 299 1039 q 212 1015 239 1039 q 176 939 185 990 q 176 540 142 739 z "},"":{"ha":717,"x_min":0,"x_max":675,"o":"m 614 860 q 597 789 619 813 q 547 760 575 765 q 495 767 518 756 q 476 801 472 778 q 467 928 492 878 q 400 991 442 978 q 313 976 358 1004 q 244 868 268 947 q 229 760 229 814 q 239 653 229 707 q 264 547 249 600 q 294 442 279 493 q 408 440 357 440 q 479 442 460 439 q 500 433 492 443 q 511 411 508 424 q 512 388 514 399 q 501 372 510 376 q 438 364 492 368 q 314 357 385 360 q 323 260 322 308 q 316 169 324 211 q 292 92 308 126 q 253 35 276 57 q 381 61 321 50 q 490 77 442 72 q 574 78 539 82 q 624 61 608 75 q 663 7 651 36 q 675 -45 675 -22 q 667 -81 675 -68 q 647 -85 658 -93 q 564 -56 615 -62 q 445 -53 513 -50 q 295 -63 378 -56 q 119 -76 213 -71 q 106 -75 114 -76 q 94 -66 99 -74 q 87 -42 89 -58 q 89 6 85 -25 q 109 8 100 8 q 138 13 118 8 q 182 183 174 99 q 158 351 190 268 q 88 350 118 350 q 39 350 57 350 q 9 367 18 351 q 0 401 0 382 q 8 435 0 419 q 29 450 17 450 q 60 449 36 450 q 119 447 85 449 q 79 556 97 503 q 51 663 61 610 q 42 767 42 715 q 57 869 42 818 q 126 990 78 944 q 233 1054 174 1035 q 357 1068 293 1074 q 476 1036 421 1063 q 569 965 531 1010 q 614 860 607 919 z "},"":{"ha":732,"x_min":-3,"x_max":606,"o":"m 125 903 q 203 944 160 929 q 293 961 246 958 q 292 1085 292 1036 q 293 1147 292 1133 q 309 1177 293 1168 q 344 1186 325 1186 q 377 1178 363 1186 q 392 1157 392 1169 q 391 1096 392 1150 q 389 954 390 1042 q 467 928 431 946 q 532 884 504 911 q 575 822 560 857 q 589 743 590 786 q 575 724 589 731 q 544 715 561 717 q 514 716 528 713 q 500 728 500 719 q 467 837 500 801 q 389 879 433 872 q 387 705 388 799 q 385 515 386 611 q 383 326 383 419 q 382 153 382 233 q 467 190 432 157 q 522 299 501 224 q 540 315 526 311 q 569 317 554 319 q 594 310 583 315 q 604 297 606 304 q 524 133 581 192 q 400 63 467 74 q 390 60 394 61 q 382 60 386 60 q 382 -61 382 -14 q 383 -118 382 -108 q 375 -139 385 -131 q 353 -151 365 -147 q 329 -152 340 -154 q 314 -142 318 -150 q 310 -83 311 -136 q 306 56 308 -31 q 181 82 236 58 q 86 154 125 106 q 35 257 56 194 q 6 392 15 319 q 1 542 -3 465 q 19 690 4 619 q 60 816 33 760 q 125 903 86 872 m 303 174 q 300 341 301 253 q 297 519 299 429 q 295 696 296 608 q 293 861 294 783 q 244 803 257 839 q 229 734 238 782 q 216 625 221 686 q 211 495 211 564 q 220 364 211 426 q 249 250 229 301 q 303 174 268 199 z "},"":{"ha":888,"x_min":0,"x_max":771,"o":"m 278 533 q 315 494 293 489 q 360 535 338 500 q 406 628 383 571 q 447 745 429 685 q 475 859 464 806 q 486 942 486 913 q 485 986 486 975 q 485 999 485 997 q 485 1001 485 1001 q 485 1013 485 1000 q 519 1065 486 1050 q 592 1080 553 1081 q 663 1065 631 1079 q 694 1029 694 1051 q 692 898 693 972 q 686 740 690 824 q 676 568 682 656 q 661 399 671 481 q 710 398 689 397 q 740 400 731 399 q 757 392 750 401 q 767 369 764 382 q 769 346 771 357 q 760 331 767 335 q 724 325 753 328 q 651 319 694 322 q 645 282 649 300 q 639 246 642 264 q 702 244 675 244 q 740 247 729 244 q 757 239 750 249 q 767 217 764 229 q 769 193 771 204 q 760 178 767 182 q 713 170 753 174 q 621 164 674 167 q 592 83 607 115 q 522 -3 567 32 q 423 -53 476 -37 q 315 -64 369 -68 q 216 -34 260 -60 q 146 40 172 -8 q 124 161 119 89 q 143 198 125 185 q 181 215 161 211 q 217 211 201 218 q 231 186 233 204 q 236 83 219 121 q 283 31 253 44 q 348 26 313 17 q 411 64 383 35 q 454 157 436 92 q 376 156 410 156 q 325 156 342 156 q 298 172 306 157 q 291 206 290 188 q 299 240 292 225 q 317 256 306 256 q 369 254 325 256 q 472 250 414 253 q 476 281 475 265 q 481 311 478 296 q 386 308 428 308 q 325 308 344 308 q 298 325 306 310 q 291 359 290 340 q 299 393 292 378 q 317 408 306 408 q 376 407 326 408 q 489 403 425 406 q 494 503 493 453 q 497 596 496 553 q 497 673 497 639 q 497 728 497 707 q 473 642 486 683 q 443 563 460 600 q 407 497 426 526 q 363 449 388 467 q 306 423 339 431 q 236 417 272 415 q 167 431 200 419 q 114 460 135 442 q 45 545 69 497 q 10 656 21 593 q 0 799 0 719 q 3 978 0 878 q 24 1044 4 1018 q 71 1083 43 1069 q 131 1097 99 1096 q 190 1091 164 1099 q 234 1067 217 1083 q 249 1031 251 1051 q 240 912 243 976 q 238 781 236 847 q 249 650 240 714 q 278 533 258 586 z "},"$":{"ha":774,"x_min":-3,"x_max":672,"o":"m 515 675 q 535 826 538 763 q 512 930 532 889 q 459 991 492 971 q 389 1013 426 1011 q 388 906 389 965 q 386 781 388 847 q 384 642 385 714 q 383 496 383 569 q 481 398 433 447 q 556 293 528 349 q 585 170 586 233 q 559 53 585 107 q 487 -39 533 -1 q 381 -85 440 -76 q 382 -128 381 -124 q 374 -149 383 -140 q 351 -160 364 -157 q 327 -162 339 -164 q 313 -151 315 -160 q 310 -131 311 -149 q 307 -83 308 -114 q 285 -78 296 -81 q 264 -72 275 -76 q 181 -13 215 -54 q 138 97 147 28 q 149 159 133 136 q 186 189 165 182 q 224 188 207 196 q 236 160 240 181 q 246 37 222 81 q 306 -19 269 -7 q 301 138 303 47 q 299 332 300 229 q 200 422 251 378 q 105 513 149 465 q 32 612 61 560 q 0 725 3 664 q 20 857 -3 797 q 84 962 43 917 q 178 1038 125 1007 q 290 1081 232 1068 l 290 1136 q 306 1167 290 1158 q 341 1176 322 1176 q 375 1168 360 1176 q 390 1147 390 1160 l 389 1090 q 515 1060 456 1088 q 614 975 575 1033 q 660 853 649 925 q 643 692 672 781 q 609 645 632 658 q 564 633 586 632 q 526 645 542 633 q 515 675 511 657 m 381 -14 q 416 22 401 -1 q 432 82 431 46 q 420 163 435 125 q 381 238 406 201 l 381 -14 m 294 585 q 292 801 293 697 q 290 982 292 904 q 221 903 249 954 q 194 778 193 851 q 224 678 196 725 q 294 585 251 631 z "},"&":{"ha":1157,"x_min":171,"x_max":1101,"o":"m 646 1079 q 751 1000 710 1051 q 806 881 793 949 q 810 776 817 828 q 775 678 803 725 q 692 585 743 624 q 588 515 642 547 q 676 393 628 451 q 779 286 724 335 q 795 360 790 322 q 801 433 800 397 l 801 490 q 828 517 801 507 q 885 521 854 526 q 942 490 917 515 q 967 414 968 465 q 955 300 965 351 q 922 192 944 249 q 972 172 946 181 q 1024 157 997 163 l 1090 143 q 1101 111 1101 140 q 1084 50 1100 82 q 1036 -5 1068 18 q 953 -17 1004 -28 q 887 6 913 -8 q 824 40 861 21 q 770 -7 797 11 q 704 -44 743 -25 q 594 -77 651 -68 q 481 -78 538 -86 q 373 -48 425 -71 q 279 15 321 -25 q 194 147 218 72 q 181 303 171 222 q 251 472 193 397 q 304 528 275 504 q 365 575 333 553 q 338 638 350 607 q 314 700 325 669 q 289 803 296 750 q 292 906 282 857 q 330 998 301 956 q 410 1068 358 1040 q 526 1101 464 1099 q 646 1079 589 1103 m 582 1001 q 536 1013 561 1013 q 490 999 511 1013 q 460 959 468 985 q 451 903 451 933 q 457 844 451 874 q 469 793 463 815 q 488 738 478 765 q 508 681 497 710 q 581 738 546 707 q 632 800 615 768 q 647 852 643 822 q 644 911 650 882 q 622 965 638 940 q 582 1001 607 989 m 704 106 q 564 249 632 172 q 446 415 496 325 q 408 380 426 400 q 372 337 389 360 q 344 288 356 314 q 329 235 332 261 q 335 145 324 188 q 376 71 346 103 q 450 31 406 39 q 541 30 494 22 q 631 58 588 38 q 704 106 675 78 z "},"]":{"ha":519,"x_min":-115,"x_max":371,"o":"m 251 -86 q 249 79 251 -24 q 244 305 247 182 q 238 562 242 428 q 231 819 235 696 q 225 1047 228 943 q 221 1214 222 1150 q 128 1210 178 1213 q 33 1206 78 1208 q -44 1202 -11 1204 q -86 1200 -78 1200 q -107 1222 -99 1200 q -115 1272 -115 1244 q -106 1324 -115 1300 q -76 1349 -97 1347 q -19 1349 -56 1350 q 62 1347 18 1349 q 152 1341 106 1344 q 238 1334 199 1338 q 306 1326 278 1331 q 342 1317 335 1321 q 368 1285 367 1306 q 369 1199 369 1269 q 370 1025 369 1129 q 370 792 371 921 q 369 530 369 663 q 368 272 369 397 q 365 46 367 146 q 360 -117 363 -54 q 354 -185 357 -179 q 340 -194 351 -192 q 315 -196 329 -196 q 230 -206 285 -201 q 116 -215 175 -211 q 3 -220 57 -218 q -76 -221 -50 -222 q -106 -196 -97 -219 q -115 -144 -115 -172 q -107 -94 -115 -117 q -86 -71 -99 -71 q -38 -74 -76 -71 q 50 -78 0 -76 q 155 -83 100 -81 q 251 -86 210 -86 z "},"[":{"ha":303,"x_min":0,"x_max":486,"o":"m 118 -86 q 215 -83 160 -86 q 319 -78 269 -81 q 408 -74 369 -76 q 456 -71 446 -71 q 476 -94 468 -71 q 485 -144 485 -117 q 477 -196 486 -172 q 446 -221 468 -219 q 366 -220 419 -222 q 253 -215 313 -218 q 140 -206 194 -211 q 54 -196 85 -201 q 30 -194 40 -196 q 15 -185 19 -192 q 10 -117 13 -179 q 6 46 7 -54 q 3 272 4 146 q 1 530 1 397 q 0 792 0 663 q 1 1025 0 921 q 1 1199 1 1129 q 3 1285 1 1269 q 10 1303 3 1296 q 29 1317 18 1311 q 65 1326 36 1321 q 132 1334 93 1331 q 217 1341 171 1338 q 308 1347 264 1344 q 388 1349 351 1349 q 446 1349 425 1350 q 477 1324 468 1347 q 485 1272 486 1300 q 476 1222 485 1244 q 456 1200 468 1200 q 414 1202 447 1200 q 336 1206 381 1204 q 242 1210 292 1208 q 149 1214 192 1213 q 144 1047 147 1150 q 138 819 142 943 q 132 562 135 696 q 126 305 129 428 q 120 79 122 182 q 118 -86 118 -24 z "},"{":{"ha":426,"x_min":0,"x_max":474,"o":"m 253 701 q 235 647 250 669 q 198 608 219 624 q 151 581 176 592 q 103 564 126 571 q 151 547 126 557 q 198 520 176 536 q 235 481 219 504 q 253 426 250 458 q 256 305 258 374 q 251 165 253 236 q 253 28 249 94 q 279 -85 258 -37 q 341 -153 300 -132 q 454 -154 382 -174 q 461 -165 454 -154 q 471 -187 468 -175 q 467 -210 474 -200 q 436 -221 461 -221 q 412 -221 425 -221 q 386 -219 399 -221 q 275 -194 322 -215 q 196 -145 228 -174 q 147 -83 164 -117 q 124 -18 129 -50 q 117 94 115 35 q 121 211 118 153 q 124 324 124 269 q 115 424 125 379 q 81 500 106 469 q 8 542 56 531 q 1 550 3 543 q 0 565 0 557 q 2 579 0 572 q 7 586 4 586 q 81 627 56 596 q 115 703 106 658 q 124 802 125 747 q 121 916 124 857 q 117 1034 118 975 q 124 1146 115 1093 q 147 1210 129 1176 q 196 1273 164 1244 q 275 1322 228 1301 q 386 1347 322 1343 q 412 1349 399 1349 q 436 1349 425 1350 q 467 1338 461 1349 q 471 1315 474 1328 q 461 1293 468 1303 q 454 1283 454 1283 q 345 1280 385 1301 q 285 1211 306 1258 q 258 1098 264 1164 q 253 961 253 1032 q 256 822 254 890 q 253 701 258 754 z "},"}":{"ha":590,"x_min":-1,"x_max":472,"o":"m 218 701 q 215 822 213 754 q 219 961 218 890 q 213 1098 219 1032 q 187 1211 207 1164 q 126 1280 167 1258 q 17 1283 85 1301 q 10 1293 17 1283 q 1 1315 4 1303 q 4 1338 -1 1328 q 35 1349 10 1349 q 60 1349 47 1350 q 86 1347 72 1349 q 197 1322 150 1343 q 275 1273 243 1301 q 324 1210 307 1244 q 347 1146 342 1176 q 355 1034 356 1093 q 351 916 354 975 q 347 802 347 857 q 356 703 346 747 q 390 627 365 658 q 464 586 415 596 q 469 579 467 586 q 472 565 471 572 q 470 550 472 557 q 464 542 468 543 q 391 500 415 531 q 357 424 367 469 q 347 324 347 379 q 351 211 347 269 q 355 94 354 153 q 347 -18 356 35 q 324 -83 342 -50 q 275 -145 307 -117 q 197 -194 243 -174 q 86 -219 150 -215 q 60 -221 72 -221 q 35 -221 47 -221 q 4 -210 10 -221 q 1 -187 -1 -200 q 17 -154 6 -172 q 131 -153 89 -174 q 192 -85 172 -132 q 217 28 213 -37 q 221 165 222 94 q 216 305 219 236 q 218 426 213 374 q 236 481 221 458 q 273 520 251 504 q 319 547 294 536 q 368 564 344 557 q 319 581 344 571 q 273 608 294 592 q 236 647 251 624 q 218 701 221 669 z "},"(":{"ha":331,"x_min":0,"x_max":332,"o":"m 308 -136 q 324 -147 318 -135 q 331 -176 331 -160 q 326 -206 331 -192 q 311 -221 321 -219 q 231 -216 271 -225 q 158 -184 192 -207 q 97 -126 124 -161 q 58 -42 71 -90 q 26 122 39 29 q 7 319 14 215 q 0 532 0 422 q 6 745 0 642 q 23 942 11 849 q 51 1110 35 1036 q 92 1213 65 1168 q 153 1287 118 1257 q 229 1333 189 1317 q 311 1350 269 1349 q 326 1336 321 1350 q 332 1306 332 1322 q 325 1276 332 1289 q 306 1264 318 1263 q 235 1236 271 1267 q 190 1135 200 1206 q 176 983 182 1075 q 166 784 169 892 q 161 560 163 676 q 163 338 160 444 q 171 139 165 231 q 188 -11 176 47 q 206 -67 193 -43 q 236 -108 219 -92 q 272 -131 253 -124 q 308 -136 292 -137 z "},")":{"ha":485,"x_min":1,"x_max":339,"o":"m 24 -136 q 60 -131 40 -137 q 97 -108 79 -124 q 127 -68 114 -92 q 146 -12 140 -44 q 164 138 157 46 q 174 336 171 229 q 177 559 176 443 q 175 783 178 675 q 167 982 172 890 q 154 1133 161 1074 q 110 1235 144 1204 q 40 1264 75 1267 q 21 1277 28 1264 q 14 1307 14 1290 q 19 1337 14 1324 q 35 1350 24 1350 q 117 1333 76 1349 q 192 1286 157 1317 q 253 1211 226 1256 q 293 1107 279 1167 q 319 940 308 1033 q 335 742 331 846 q 338 530 339 639 q 330 317 338 421 q 308 121 322 214 q 275 -43 294 28 q 235 -127 261 -92 q 175 -185 210 -162 q 101 -215 140 -207 q 21 -219 61 -224 q 6 -205 10 -218 q 1 -176 1 -192 q 7 -147 1 -160 q 24 -136 13 -135 z "},"|":{"ha":257,"x_min":75,"x_max":147,"o":"m 126 -175 q 122 -196 128 -187 q 107 -207 115 -204 q 90 -208 99 -210 q 79 -197 82 -206 q 77 -129 78 -192 q 76 33 76 -67 q 75 259 75 133 q 75 517 75 385 q 76 779 75 650 q 77 1013 76 908 q 78 1187 78 1117 q 79 1272 79 1257 q 90 1303 79 1294 q 114 1310 101 1311 q 137 1301 126 1310 q 147 1281 147 1293 q 146 1210 147 1274 q 143 1047 144 1147 q 140 821 142 947 q 135 563 138 694 q 131 303 133 431 q 128 73 129 175 q 126 -97 126 -29 q 126 -175 126 -164 z "},"%":{"ha":1376,"x_min":-1,"x_max":1257,"o":"m 518 529 q 467 445 506 479 q 378 394 429 411 q 269 380 326 378 q 160 402 211 382 q 69 461 108 422 q 19 560 31 500 q 1 752 -1 665 q 19 921 4 839 q 68 1021 31 981 q 156 1083 106 1061 q 265 1108 207 1106 q 374 1097 322 1111 q 464 1049 425 1082 q 515 967 503 1017 q 538 851 531 906 q 546 745 546 797 q 539 640 546 693 q 518 529 532 588 m 1229 10 q 1178 -76 1217 -42 q 1089 -126 1140 -110 q 980 -140 1038 -142 q 871 -119 922 -139 q 781 -60 819 -99 q 731 39 742 -21 q 713 231 710 144 q 731 400 715 318 q 779 500 742 460 q 867 563 817 540 q 976 588 918 585 q 1085 576 1033 592 q 1175 528 1136 561 q 1226 446 1214 496 q 1249 331 1242 385 q 1257 224 1257 276 q 1250 120 1257 172 q 1229 10 1243 68 m 889 19 q 924 -56 897 -32 q 981 -80 951 -81 q 1038 -55 1011 -79 q 1076 15 1065 -31 q 1092 113 1086 61 q 1097 219 1097 165 q 1092 326 1097 274 q 1076 424 1086 378 q 1038 494 1065 469 q 981 519 1011 518 q 924 495 951 519 q 889 419 897 471 q 889 19 854 219 m 379 -85 q 393 -28 378 -79 q 435 104 408 24 q 497 285 463 185 q 569 492 532 386 q 642 702 606 599 q 709 890 679 806 q 760 1031 739 974 q 786 1101 781 1088 q 819 1122 794 1122 q 871 1113 844 1122 q 916 1088 897 1103 q 931 1060 935 1072 q 908 1003 928 1054 q 858 874 889 953 q 788 695 826 794 q 708 491 749 596 q 628 285 667 386 q 558 103 589 185 q 507 -33 526 21 q 485 -99 488 -87 q 466 -114 482 -111 q 431 -114 450 -117 q 397 -103 413 -111 q 379 -85 381 -94 m 178 540 q 213 465 186 489 q 270 440 240 440 q 328 465 300 440 q 367 536 356 490 q 381 634 376 582 q 386 740 386 686 q 381 847 386 794 q 367 944 376 899 q 328 1015 356 990 q 270 1039 300 1039 q 213 1015 240 1039 q 178 939 186 990 q 178 540 143 739 z "},"@":{"ha":1167,"x_min":-3,"x_max":1047,"o":"m 147 158 q 229 22 172 86 q 363 -80 286 -43 q 531 -117 440 -117 q 717 -61 622 -117 q 748 -60 731 -53 q 776 -80 765 -67 q 785 -110 786 -93 q 760 -137 783 -126 q 601 -190 681 -178 q 449 -191 522 -201 q 311 -151 376 -181 q 192 -80 246 -122 q 99 14 139 -37 q 39 121 60 65 q 1 316 6 210 q 18 524 -3 422 q 83 716 39 626 q 188 863 126 806 q 376 979 272 942 q 583 1013 479 1017 q 785 962 688 1008 q 957 826 882 915 q 1024 698 1003 771 q 1047 547 1046 625 q 1028 394 1047 469 q 971 258 1008 318 q 881 163 933 199 q 761 126 828 126 q 711 133 736 126 q 665 156 686 139 q 631 202 644 172 q 615 278 617 232 q 572 163 601 203 q 507 106 543 122 q 433 94 471 90 q 365 115 396 99 q 315 176 332 132 q 294 274 297 219 q 299 389 290 329 q 327 500 308 449 q 374 586 346 551 q 435 626 401 621 q 494 626 464 631 q 551 606 525 622 q 594 562 576 590 q 613 490 611 533 l 608 606 q 633 628 608 619 q 686 637 657 636 q 740 629 715 638 q 767 603 765 621 q 765 569 767 597 q 760 500 763 540 q 755 413 757 460 q 753 325 753 367 q 759 251 754 283 q 775 206 764 218 q 824 198 797 182 q 874 258 850 214 q 915 367 899 303 q 934 502 932 431 q 920 644 936 574 q 861 772 904 715 q 728 889 804 849 q 572 933 653 929 q 410 903 490 936 q 264 803 331 871 q 182 675 215 753 q 132 508 149 597 q 118 328 115 419 q 147 158 121 236 m 468 186 q 510 189 492 171 q 543 243 529 207 q 563 326 557 279 q 569 416 569 372 q 560 492 569 460 q 533 532 551 524 q 496 521 514 540 q 465 467 478 501 q 443 388 451 432 q 434 302 435 343 q 442 229 433 261 q 468 186 450 197 z "},"":{"ha":819,"x_min":0,"x_max":706,"o":"m 622 247 q 640 269 626 264 q 669 272 654 274 q 694 263 683 269 q 704 247 706 256 q 664 126 690 179 q 606 35 638 74 q 538 -25 574 -3 q 468 -54 501 -47 q 338 -60 400 -68 q 228 -19 276 -53 q 145 73 179 14 q 99 222 111 132 q 93 276 96 249 q 88 335 90 304 l 39 335 q 9 351 18 335 q 0 385 0 367 q 8 419 0 404 q 29 435 17 435 q 49 434 35 435 q 83 433 63 433 q 83 483 83 458 q 85 533 83 508 l 39 533 q 9 550 18 535 q 0 584 0 565 q 8 618 0 603 q 29 633 17 633 q 51 633 35 633 q 92 632 67 632 q 109 749 97 692 q 138 858 121 807 q 177 950 154 908 q 229 1021 200 992 q 319 1077 268 1058 q 424 1097 371 1096 q 528 1079 478 1097 q 617 1026 579 1061 q 677 938 656 990 q 693 817 699 885 q 678 791 692 800 q 648 780 664 782 q 619 783 632 778 q 606 797 606 788 q 594 905 608 860 q 556 978 579 950 q 504 1016 533 1006 q 447 1022 475 1026 q 397 997 419 1017 q 364 942 375 976 q 353 894 360 925 q 339 822 346 864 q 326 731 332 781 q 314 625 319 681 q 447 623 388 624 q 526 625 507 622 q 547 617 539 626 q 559 594 556 607 q 560 571 563 582 q 550 556 558 560 q 522 551 544 553 q 467 547 500 549 q 392 542 433 544 q 307 539 350 540 q 303 483 304 511 q 301 426 301 454 q 375 426 339 426 q 442 425 411 425 q 494 425 472 425 q 526 425 517 425 q 547 417 539 426 q 559 396 556 408 q 560 372 563 383 q 550 357 558 360 q 522 352 544 354 q 464 348 499 350 q 387 344 429 346 q 300 340 344 342 q 309 213 301 272 q 333 109 317 153 q 374 40 349 65 q 436 18 400 15 q 490 38 463 19 q 543 86 518 56 q 589 158 568 117 q 622 247 610 199 z "},"_":{"ha":908,"x_min":0,"x_max":908,"o":"m 896 -260 q 854 -266 890 -262 q 761 -272 818 -269 q 633 -278 704 -275 q 488 -283 563 -281 q 339 -287 413 -285 q 203 -290 265 -289 q 98 -292 142 -292 q 39 -292 54 -292 q 9 -267 18 -290 q 0 -215 0 -243 q 8 -165 0 -187 q 29 -142 17 -142 q 99 -144 38 -142 q 250 -148 161 -146 q 442 -152 339 -150 q 635 -156 544 -154 q 792 -158 726 -157 q 872 -156 857 -158 q 893 -167 885 -154 q 905 -199 901 -181 q 906 -236 908 -218 q 896 -260 904 -254 z "},";":{"ha":514,"x_min":129,"x_max":394,"o":"m 379 168 q 390 114 392 142 q 386 58 389 86 q 374 -12 382 25 q 356 -82 365 -49 q 338 -141 347 -115 q 324 -175 329 -167 q 300 -185 318 -183 q 264 -183 282 -187 q 232 -170 246 -179 q 221 -149 218 -161 q 227 -100 224 -131 q 235 -33 231 -69 q 170 -7 199 -31 q 135 54 142 17 q 135 106 129 79 q 155 154 140 132 q 190 194 169 176 q 238 221 211 213 q 323 220 285 236 q 379 168 361 204 m 286 665 q 235 659 260 657 q 189 672 210 661 q 154 703 168 683 q 135 747 140 722 q 135 798 129 772 q 155 847 140 824 q 190 887 169 869 q 238 913 211 904 q 289 919 264 921 q 335 907 314 918 q 369 876 356 896 q 389 832 383 857 q 389 781 394 807 q 369 732 383 754 q 334 692 356 710 q 286 665 313 674 z "},",":{"ha":472,"x_min":126,"x_max":389,"o":"m 376 168 q 388 114 389 142 q 383 58 386 86 q 371 -12 379 25 q 353 -82 363 -49 q 335 -141 344 -115 q 321 -175 326 -167 q 297 -185 315 -183 q 261 -183 279 -187 q 229 -170 243 -179 q 218 -149 215 -161 q 224 -100 221 -131 q 232 -33 228 -69 q 167 -7 196 -31 q 132 54 139 17 q 132 106 126 79 q 152 154 138 132 q 188 194 167 176 q 235 221 208 213 q 320 220 282 236 q 376 168 358 204 z "},"?":{"ha":636,"x_min":31,"x_max":547,"o":"m 54 1040 q 115 1108 75 1079 q 205 1151 156 1136 q 307 1165 254 1165 q 406 1146 360 1164 q 486 1091 451 1128 q 532 997 521 1054 q 537 868 547 926 q 503 760 526 810 q 447 666 479 710 q 386 581 415 622 q 337 497 357 539 q 317 410 317 456 q 317 372 315 383 q 321 353 318 360 q 308 335 322 342 q 272 326 293 328 q 231 326 251 324 q 204 338 211 329 q 196 357 201 342 q 190 406 190 372 q 208 513 190 465 q 250 603 225 561 q 303 686 275 646 q 351 772 331 726 q 380 872 371 818 q 375 996 389 926 q 345 1061 367 1039 q 297 1088 324 1083 q 244 1078 271 1092 q 203 1033 218 1064 q 186 954 183 997 q 188 872 189 911 q 161 847 186 854 q 107 841 136 839 q 54 853 78 843 q 31 883 31 864 q 33 964 32 924 q 54 1040 35 1004 m 283 -26 q 331 -1 310 -18 q 367 40 353 17 q 386 88 381 63 q 386 139 392 114 q 333 215 376 190 q 236 221 289 239 q 188 194 210 213 q 153 154 167 176 q 133 106 139 132 q 132 54 128 79 q 187 -21 143 3 q 283 -26 231 -44 z "},"!":{"ha":481,"x_min":132,"x_max":397,"o":"m 193 335 q 181 397 188 342 q 170 534 175 453 q 161 710 165 615 q 153 890 157 804 q 149 1038 150 975 q 150 1121 149 1101 q 166 1142 150 1133 q 204 1153 182 1150 q 253 1157 226 1157 q 301 1153 279 1157 q 338 1144 324 1150 q 353 1131 353 1138 q 349 1066 353 1122 q 339 928 344 1010 q 328 751 333 846 q 318 574 322 657 q 312 430 314 490 q 313 356 310 369 q 299 337 315 344 q 263 326 283 329 q 221 324 242 322 q 193 335 200 326 m 289 -26 q 238 -33 263 -35 q 192 -21 213 -32 q 157 10 171 -10 q 138 54 143 29 q 138 106 132 79 q 158 154 143 132 q 193 194 172 176 q 240 221 214 213 q 292 227 267 229 q 338 214 317 225 q 372 183 358 203 q 392 139 386 164 q 392 88 397 114 q 372 40 386 63 q 337 -1 358 17 q 289 -26 315 -18 z "},":":{"ha":514,"x_min":129,"x_max":394,"o":"m 286 -26 q 235 -33 260 -35 q 189 -21 210 -32 q 154 10 168 -10 q 135 54 140 29 q 135 106 129 79 q 155 154 140 132 q 190 194 169 176 q 238 221 211 213 q 289 227 264 229 q 335 214 314 225 q 369 183 356 203 q 389 139 383 164 q 389 88 394 114 q 369 40 383 63 q 334 -1 356 17 q 286 -26 313 -18 m 286 665 q 235 659 260 657 q 189 672 210 661 q 154 703 168 683 q 135 747 140 722 q 135 798 129 772 q 155 847 140 824 q 190 887 169 869 q 238 913 211 904 q 289 919 264 921 q 335 907 314 918 q 369 876 356 896 q 389 832 383 857 q 389 781 394 807 q 369 732 383 754 q 334 692 356 710 q 286 665 313 674 z "},".":{"ha":472,"x_min":126,"x_max":392,"o":"m 283 -26 q 232 -33 257 -35 q 186 -21 207 -32 q 151 10 165 -10 q 132 54 138 29 q 132 106 126 79 q 152 154 138 132 q 188 194 167 176 q 235 221 208 213 q 286 227 261 229 q 332 214 311 225 q 367 183 353 203 q 386 139 381 164 q 386 88 392 114 q 367 40 381 63 q 331 -1 353 17 q 283 -26 310 -18 z "},"*":{"ha":636,"x_min":1,"x_max":574,"o":"m 563 1042 q 542 1039 558 1040 q 498 1036 525 1038 q 437 1033 471 1035 q 365 1031 403 1032 q 444 948 410 983 q 490 904 479 913 q 498 888 499 897 q 493 869 497 878 q 481 855 489 860 q 467 853 474 850 q 449 865 463 854 q 416 894 436 876 q 371 935 396 913 q 318 985 346 958 q 317 870 317 919 q 318 807 317 821 q 312 789 319 796 q 295 779 304 782 q 277 778 286 776 q 265 788 268 781 q 263 809 264 792 q 260 853 261 826 q 257 915 258 881 q 254 988 256 950 q 201 938 226 961 q 155 895 175 914 q 121 865 135 876 q 103 853 107 854 q 88 855 96 850 q 76 869 81 860 q 72 888 72 878 q 79 904 71 897 q 124 947 90 913 q 201 1026 157 982 q 97 1024 142 1025 q 33 1025 51 1024 q 8 1038 15 1025 q 1 1065 1 1050 q 8 1090 1 1079 q 26 1101 15 1101 q 83 1101 33 1101 q 200 1099 132 1100 q 125 1171 157 1139 q 81 1215 93 1203 q 72 1242 68 1228 q 85 1265 75 1256 q 109 1278 96 1275 q 129 1275 122 1282 q 169 1234 136 1269 q 250 1150 203 1199 q 248 1253 249 1208 q 249 1315 247 1299 q 261 1341 249 1333 q 288 1348 274 1349 q 314 1340 303 1347 q 325 1324 325 1333 q 324 1267 325 1317 q 322 1151 324 1218 q 401 1235 367 1200 q 440 1275 435 1269 q 460 1278 447 1282 q 484 1265 474 1275 q 498 1242 494 1256 q 489 1215 501 1228 q 443 1169 476 1201 q 367 1094 410 1136 q 481 1094 432 1094 q 543 1094 529 1093 q 560 1088 553 1096 q 570 1072 567 1081 q 572 1053 574 1063 q 563 1042 569 1044 z "},"":{"ha":458,"x_min":-3,"x_max":375,"o":"m 372 1239 q 375 1191 375 1226 q 372 1113 375 1156 q 361 1028 368 1071 q 344 956 354 985 q 313 929 338 935 q 261 927 288 924 q 215 941 235 931 q 200 964 196 951 q 214 1013 204 976 q 234 1094 224 1050 q 253 1181 244 1139 q 265 1246 263 1224 q 283 1263 267 1258 q 319 1265 300 1267 q 353 1256 338 1263 q 372 1239 369 1249 m 174 1239 q 176 1191 176 1226 q 173 1113 176 1156 q 163 1028 169 1071 q 146 956 156 985 q 114 929 139 935 q 63 927 89 924 q 17 941 36 931 q 1 964 -3 951 q 15 1013 6 976 q 35 1094 25 1050 q 55 1181 46 1139 q 68 1246 64 1224 q 85 1263 69 1258 q 120 1265 101 1267 q 155 1256 139 1263 q 174 1239 171 1249 z "},"":{"ha":458,"x_min":1,"x_max":379,"o":"m 4 953 q 1 1000 1 965 q 5 1077 1 1035 q 15 1163 8 1119 q 32 1236 22 1207 q 64 1263 39 1257 q 115 1264 89 1268 q 161 1249 142 1260 q 176 1226 181 1239 q 163 1178 172 1215 q 144 1096 154 1140 q 124 1009 133 1051 q 111 944 114 967 q 92 928 108 932 q 58 927 76 925 q 23 936 39 929 q 4 953 7 943 m 203 953 q 200 1000 200 965 q 203 1077 200 1035 q 214 1163 207 1119 q 231 1236 221 1207 q 263 1263 238 1257 q 314 1264 288 1268 q 360 1249 340 1260 q 375 1226 379 1239 q 361 1178 371 1215 q 341 1096 351 1140 q 322 1009 331 1051 q 310 944 313 967 q 291 928 307 932 q 256 927 275 925 q 222 936 238 929 q 203 953 206 943 z "},"\"":{"ha":458,"x_min":1,"x_max":379,"o":"m 4 953 q 1 1000 1 965 q 5 1077 1 1035 q 15 1163 8 1119 q 32 1236 22 1207 q 64 1263 39 1257 q 115 1264 89 1268 q 161 1249 142 1260 q 176 1226 181 1239 q 163 1178 172 1215 q 144 1096 154 1140 q 124 1009 133 1051 q 111 944 114 967 q 92 928 108 932 q 58 927 76 925 q 23 936 39 929 q 4 953 7 943 m 203 953 q 200 1000 200 965 q 203 1077 200 1035 q 214 1163 207 1119 q 231 1236 221 1207 q 263 1263 238 1257 q 314 1264 288 1268 q 360 1249 340 1260 q 375 1226 379 1239 q 361 1178 371 1215 q 341 1096 351 1140 q 322 1009 331 1051 q 310 944 313 967 q 291 928 307 932 q 256 927 275 925 q 222 936 238 929 q 203 953 206 943 z "},"":{"ha":260,"x_min":-3,"x_max":176,"o":"m 174 1239 q 176 1191 176 1226 q 173 1113 176 1156 q 163 1028 169 1071 q 146 956 156 985 q 114 929 139 935 q 63 927 89 924 q 17 941 36 931 q 1 964 -3 951 q 15 1013 6 976 q 35 1094 25 1050 q 55 1181 46 1139 q 68 1246 64 1224 q 85 1263 69 1258 q 120 1265 101 1267 q 155 1256 139 1263 q 174 1239 171 1249 z "},"":{"ha":260,"x_min":1,"x_max":181,"o":"m 4 953 q 1 1000 1 965 q 5 1077 1 1035 q 15 1163 8 1119 q 32 1236 22 1207 q 64 1263 39 1257 q 115 1264 89 1268 q 161 1249 142 1260 q 176 1226 181 1239 q 163 1178 172 1215 q 144 1096 154 1140 q 124 1009 133 1051 q 111 944 114 967 q 92 928 108 932 q 58 927 76 925 q 23 936 39 929 q 4 953 7 943 z "},"'":{"ha":260,"x_min":1,"x_max":181,"o":"m 4 953 q 1 1000 1 965 q 5 1077 1 1035 q 15 1163 8 1119 q 32 1236 22 1207 q 64 1263 39 1257 q 115 1264 89 1268 q 161 1249 142 1260 q 176 1226 181 1239 q 163 1178 172 1215 q 144 1096 154 1140 q 124 1009 133 1051 q 111 944 114 967 q 92 928 108 932 q 58 927 76 925 q 23 936 39 929 q 4 953 7 943 z "},"^":{"ha":631,"x_min":0,"x_max":535,"o":"m 304 1254 q 326 1219 308 1244 q 367 1158 343 1193 q 419 1085 392 1124 q 469 1014 446 1047 q 510 958 493 981 q 531 931 528 935 q 520 914 535 924 q 484 897 506 904 q 441 887 463 889 q 411 896 419 885 q 386 935 403 906 q 349 1001 369 964 q 306 1078 328 1038 q 267 1156 285 1119 q 227 1078 249 1119 q 185 1001 206 1038 q 147 935 164 964 q 122 896 131 906 q 93 887 114 885 q 51 897 72 889 q 15 914 29 904 q 4 931 0 924 q 24 958 7 935 q 64 1014 40 981 q 115 1085 88 1047 q 167 1158 143 1124 q 208 1219 190 1193 q 229 1254 225 1244 q 243 1263 232 1260 q 267 1265 254 1265 q 291 1263 281 1265 q 304 1254 301 1260 z "},"":{"ha":1104,"x_min":121,"x_max":969,"o":"m 961 463 q 967 449 965 460 q 969 427 969 439 q 967 405 969 415 q 961 392 965 394 q 915 362 950 386 q 833 303 879 338 q 735 231 786 269 q 639 160 683 193 q 563 103 594 126 q 526 75 532 79 q 501 81 518 68 q 469 113 483 93 q 450 153 456 132 q 460 186 444 175 q 517 226 475 197 q 614 290 560 254 q 726 363 668 325 q 832 428 785 400 q 726 492 785 456 q 614 565 668 529 q 517 628 560 600 q 460 668 475 657 q 450 701 444 679 q 469 742 456 722 q 501 773 483 761 q 526 779 518 785 q 563 751 532 775 q 639 694 594 728 q 735 623 683 661 q 833 551 786 585 q 915 492 879 517 q 961 463 950 468 m 638 463 q 644 449 642 460 q 646 427 646 439 q 644 405 646 415 q 638 392 642 394 q 591 362 626 386 q 509 303 556 338 q 411 231 463 269 q 315 160 360 193 q 238 103 269 126 q 201 75 207 79 q 176 81 193 68 q 146 113 160 93 q 126 153 132 132 q 136 186 121 175 q 194 226 151 197 q 290 290 236 254 q 403 363 344 325 q 508 428 461 400 q 403 492 461 456 q 290 565 344 529 q 194 628 236 600 q 136 668 151 657 q 126 701 121 679 q 146 742 132 722 q 176 773 160 761 q 201 779 193 785 q 238 751 207 775 q 315 694 269 728 q 411 623 360 661 q 509 551 463 585 q 591 492 556 517 q 638 463 626 468 z "},"#":{"ha":1101,"x_min":178,"x_max":988,"o":"m 360 18 q 344 5 357 7 q 315 5 331 3 q 285 14 299 7 q 269 29 271 21 q 285 92 268 36 q 328 231 301 149 l 221 231 q 188 248 197 231 q 178 285 178 265 q 187 322 178 306 q 210 339 196 339 q 260 338 218 339 q 363 336 301 338 q 383 397 374 367 q 404 458 393 426 q 328 457 360 457 q 281 457 296 457 q 247 476 257 458 q 238 513 238 493 q 248 550 239 533 q 271 567 257 567 q 326 565 279 567 q 440 563 372 564 q 473 658 457 613 q 501 740 489 704 q 523 800 514 775 q 536 833 532 825 q 565 851 543 850 q 608 843 586 851 q 646 821 629 835 q 658 797 663 807 q 649 774 657 794 q 628 722 640 754 q 599 649 615 690 q 564 560 582 607 q 663 558 614 558 q 758 556 713 557 q 792 653 776 607 q 822 737 808 700 q 844 799 835 774 q 857 833 853 825 q 885 851 864 850 q 928 843 907 851 q 967 821 950 835 q 979 797 983 807 q 969 774 978 794 q 949 722 961 754 q 919 647 936 689 q 883 556 901 604 q 924 556 907 556 q 947 557 940 556 q 970 548 961 558 q 983 524 979 538 q 985 497 988 510 q 974 481 983 485 q 933 476 967 478 q 850 471 900 474 q 823 399 836 435 q 796 328 810 364 q 853 328 829 328 q 888 329 876 329 q 909 320 900 331 q 922 297 918 310 q 924 271 926 283 q 913 254 922 258 q 865 249 906 251 q 763 243 824 246 q 706 93 729 156 q 681 18 683 31 q 665 5 678 7 q 635 5 651 3 q 606 14 619 7 q 590 29 592 21 q 594 50 590 33 q 607 94 599 67 q 626 159 615 122 q 651 239 638 196 q 544 235 599 236 q 438 233 489 235 q 384 90 406 150 q 360 18 363 29 m 728 465 q 627 463 679 464 q 526 460 575 461 q 501 397 514 428 q 476 333 489 365 q 581 331 528 332 q 682 329 633 331 q 705 397 693 363 q 728 465 717 432 z "},"=":{"ha":799,"x_min":0,"x_max":689,"o":"m 676 246 q 625 237 669 242 q 517 228 581 232 q 378 222 453 225 q 234 216 303 218 q 113 213 165 214 q 39 214 60 213 q 9 239 18 215 q 0 290 0 263 q 8 340 0 318 q 29 363 17 363 q 83 361 38 363 q 192 358 128 360 q 332 353 257 356 q 474 350 407 351 q 590 348 540 349 q 654 350 639 347 q 675 338 667 351 q 686 305 683 324 q 687 269 689 286 q 676 246 685 251 m 676 524 q 625 515 669 519 q 517 506 581 510 q 378 499 453 503 q 234 494 303 496 q 113 491 165 492 q 39 492 60 490 q 9 517 18 493 q 0 568 0 540 q 8 618 0 596 q 29 640 17 640 q 83 639 38 640 q 192 635 128 638 q 332 631 257 633 q 474 628 407 629 q 590 626 540 626 q 654 628 639 625 q 675 615 667 629 q 686 583 683 601 q 687 547 689 564 q 676 524 685 529 z "},"":{"ha":486,"x_min":-3,"x_max":379,"o":"m 224 249 q 149 239 186 236 q 83 258 113 242 q 32 301 53 274 q 4 365 11 329 q 5 440 -3 403 q 33 510 13 478 q 85 568 54 543 q 154 606 115 593 q 228 615 192 618 q 294 597 264 613 q 344 553 324 581 q 372 489 365 526 q 372 414 379 451 q 344 344 364 376 q 292 286 324 311 q 224 249 261 261 z "},"-":{"ha":799,"x_min":0,"x_max":689,"o":"m 676 385 q 625 376 669 381 q 517 367 581 371 q 378 360 453 364 q 234 355 303 357 q 113 352 165 353 q 39 353 60 351 q 9 378 18 354 q 0 429 0 401 q 8 479 0 457 q 29 501 17 501 q 83 500 38 501 q 192 497 128 499 q 332 492 257 494 q 474 489 407 490 q 590 487 540 488 q 654 489 639 486 q 675 476 667 490 q 686 444 683 463 q 687 408 689 425 q 676 385 685 390 z "},">":{"ha":779,"x_min":121,"x_max":646,"o":"m 638 463 q 644 449 642 460 q 646 427 646 439 q 644 405 646 415 q 638 392 642 394 q 591 362 626 386 q 509 303 556 338 q 411 231 463 269 q 315 160 360 193 q 238 103 269 126 q 201 75 207 79 q 176 81 193 68 q 146 113 160 93 q 126 153 132 132 q 136 186 121 175 q 194 226 151 197 q 290 290 236 254 q 403 363 344 325 q 508 428 461 400 q 403 492 461 456 q 290 565 344 529 q 194 628 236 600 q 136 668 151 657 q 126 701 121 679 q 146 742 132 722 q 176 773 160 761 q 201 779 193 785 q 238 751 207 775 q 315 694 269 728 q 411 623 360 661 q 509 551 463 585 q 591 492 556 517 q 638 463 626 468 z "},"":{"ha":1113,"x_min":154,"x_max":1003,"o":"m 163 463 q 209 492 174 468 q 291 551 244 517 q 390 623 338 585 q 486 694 442 661 q 562 751 531 728 q 599 779 593 775 q 624 773 607 785 q 656 742 642 761 q 674 701 669 722 q 665 668 679 679 q 608 628 650 657 q 510 565 565 600 q 397 492 456 529 q 292 428 339 456 q 397 363 339 400 q 510 290 456 325 q 608 226 565 254 q 665 186 650 197 q 674 153 679 175 q 656 113 669 132 q 624 81 642 93 q 599 75 607 68 q 562 103 593 79 q 486 160 531 126 q 390 231 442 193 q 291 303 338 269 q 210 362 244 338 q 163 392 175 386 q 156 405 158 394 q 154 427 154 415 q 156 449 154 439 q 163 463 158 460 m 488 463 q 481 449 483 460 q 478 427 478 439 q 481 405 478 415 q 488 392 483 394 q 534 362 499 386 q 616 303 569 338 q 714 231 663 269 q 810 160 765 193 q 885 103 854 126 q 922 75 917 79 q 948 81 931 68 q 979 113 965 93 q 998 153 993 132 q 989 186 1003 175 q 931 226 974 197 q 834 290 889 254 q 721 363 779 325 q 615 428 663 400 q 721 492 663 456 q 834 565 779 529 q 931 628 889 600 q 989 668 974 657 q 998 701 1003 679 q 979 742 993 722 q 948 773 965 761 q 922 779 931 785 q 885 751 917 775 q 810 694 854 728 q 714 623 765 661 q 616 551 663 585 q 534 492 569 517 q 488 463 499 468 z "},"+":{"ha":799,"x_min":0,"x_max":689,"o":"m 654 489 q 675 476 667 490 q 686 444 683 463 q 687 408 689 425 q 676 385 685 390 q 648 378 672 382 q 588 372 624 375 q 504 367 551 369 q 407 363 457 364 q 405 278 406 318 q 404 205 404 238 q 404 149 404 172 q 406 118 404 126 q 393 97 407 106 q 360 85 379 89 q 324 84 342 82 q 301 94 307 86 q 296 122 299 99 q 290 181 293 146 q 285 262 288 217 q 279 357 282 307 q 130 353 197 354 q 39 353 63 351 q 9 378 18 354 q 0 429 0 401 q 8 479 0 457 q 29 501 17 501 q 56 501 35 501 q 111 499 78 500 q 186 496 144 497 q 274 493 228 494 q 269 642 271 575 q 269 732 268 708 q 294 763 271 754 q 346 772 318 772 q 397 763 374 771 q 419 742 419 754 q 418 714 419 736 q 415 658 417 692 q 413 581 414 624 q 410 490 411 538 q 493 488 453 489 q 566 486 533 486 q 622 487 599 486 q 654 489 644 488 z "},"<":{"ha":789,"x_min":154,"x_max":679,"o":"m 163 463 q 209 492 174 468 q 291 551 244 517 q 390 623 338 585 q 486 694 442 661 q 562 751 531 728 q 599 779 593 775 q 624 773 607 785 q 656 742 642 761 q 674 701 669 722 q 665 668 679 679 q 608 628 650 657 q 510 565 565 600 q 397 492 456 529 q 292 428 339 456 q 397 363 339 400 q 510 290 456 325 q 608 226 565 254 q 665 186 650 197 q 674 153 679 175 q 656 113 669 132 q 624 81 642 93 q 599 75 607 68 q 562 103 593 79 q 486 160 531 126 q 390 231 442 193 q 291 303 338 269 q 210 362 244 338 q 163 392 175 386 q 156 405 158 394 q 154 427 154 415 q 156 449 154 439 q 163 463 158 460 z "},"/":{"ha":604,"x_min":93,"x_max":601,"o":"m 201 -167 q 184 -183 200 -179 q 149 -186 168 -187 q 114 -178 131 -185 q 94 -162 97 -172 q 106 -96 93 -157 q 142 63 119 -35 q 197 282 165 160 q 260 533 228 404 q 325 786 293 661 q 383 1012 357 911 q 428 1180 410 1113 q 451 1263 447 1247 q 482 1286 457 1283 q 534 1281 507 1289 q 581 1260 561 1274 q 597 1233 601 1246 q 578 1167 596 1228 q 533 1010 561 1106 q 470 792 506 914 q 399 544 435 671 q 328 294 363 417 q 265 72 293 171 q 220 -91 238 -26 q 201 -167 203 -156 z "},"\\":{"ha":533,"x_min":-26,"x_max":483,"o":"m 375 -167 q 356 -91 374 -156 q 311 72 339 -26 q 249 294 283 171 q 177 544 214 417 q 106 792 140 671 q 43 1010 71 914 q -3 1167 15 1106 q -22 1233 -21 1228 q -6 1260 -26 1246 q 41 1281 14 1274 q 93 1286 68 1289 q 125 1263 118 1283 q 148 1180 129 1247 q 193 1012 167 1113 q 251 786 219 911 q 316 533 283 661 q 380 282 349 404 q 434 63 411 160 q 470 -96 457 -35 q 482 -162 483 -157 q 463 -178 479 -172 q 427 -186 446 -185 q 392 -183 408 -187 q 375 -167 376 -179 z "},"":{"ha":692,"x_min":-1,"x_max":814,"o":"m 253 704 q 261 747 254 718 q 278 808 268 775 q 299 873 288 842 q 319 924 310 904 q 357 938 329 943 q 409 917 385 933 q 444 878 433 900 q 431 839 454 856 q 372 785 404 821 q 313 701 340 750 q 291 678 301 682 q 272 677 281 674 q 258 689 263 681 q 253 704 253 697 m 350 -17 q 260 -85 303 -50 q 184 -160 218 -121 q 126 -243 150 -199 q 92 -339 101 -287 q 94 -446 81 -396 q 142 -532 107 -496 q 210 -573 172 -562 q 288 -574 249 -583 q 362 -537 326 -565 q 422 -464 397 -510 q 450 -402 436 -437 q 475 -318 464 -367 q 495 -205 486 -269 q 510 -57 504 -140 q 612 32 563 -21 q 702 144 661 85 q 772 262 743 203 q 814 369 801 321 q 783 394 801 388 q 747 402 764 401 q 717 399 729 403 q 703 394 704 396 q 629 240 676 319 q 515 90 582 160 q 519 153 517 114 q 524 240 521 193 q 529 337 526 286 q 534 433 532 388 q 536 514 536 478 q 535 569 536 550 q 519 591 533 583 q 486 601 506 599 q 444 601 467 603 q 403 592 422 599 q 372 577 385 586 q 360 557 360 568 l 360 550 q 353 453 357 517 q 341 322 349 390 q 322 192 333 253 q 292 106 310 132 q 269 85 282 92 q 245 81 257 79 q 224 91 233 82 q 210 118 214 100 q 200 186 203 144 q 197 276 197 228 q 196 374 196 324 q 197 467 196 424 q 199 541 199 510 q 199 583 200 572 q 182 610 197 599 q 145 626 167 621 q 98 628 124 631 q 51 613 72 625 q 15 576 29 600 q 1 515 1 553 q 0 419 1 481 q 3 291 -1 358 q 21 160 7 224 q 67 58 35 97 q 142 5 99 19 q 227 -5 185 -10 q 304 24 269 0 q 356 83 339 47 q 353 22 354 42 q 350 -17 351 3 m 240 -499 q 199 -472 215 -506 q 190 -383 183 -437 q 231 -264 196 -328 q 344 -146 267 -200 q 327 -304 339 -239 q 301 -411 315 -369 q 270 -474 286 -453 q 240 -499 254 -494 z "},"":{"ha":656,"x_min":0,"x_max":760,"o":"m 253 704 q 261 747 254 718 q 278 808 268 775 q 299 873 288 842 q 319 924 310 904 q 357 938 329 943 q 409 917 385 933 q 444 878 433 900 q 431 839 454 856 q 372 785 404 821 q 313 701 340 750 q 291 678 301 682 q 272 677 281 674 q 258 689 263 681 q 253 704 253 697 m 661 392 q 672 399 661 394 q 699 403 683 403 q 731 398 714 404 q 760 374 747 392 q 701 164 736 243 q 614 51 667 85 q 539 24 578 28 q 465 35 500 21 q 404 78 431 49 q 367 150 378 108 q 292 53 335 78 q 200 32 249 29 q 101 65 139 36 q 42 135 64 93 q 12 227 21 176 q 1 328 3 278 q 2 425 0 379 q 4 501 4 471 q 18 563 4 539 q 53 599 32 586 q 100 615 75 613 q 147 612 125 617 q 185 596 169 607 q 201 569 200 585 q 199 506 203 554 q 192 399 196 458 q 188 279 189 340 q 194 176 188 218 q 219 120 201 133 q 269 142 236 107 q 292 187 282 156 q 310 258 301 218 q 324 343 318 299 q 333 428 329 388 q 340 501 338 469 q 344 546 343 532 q 372 572 344 563 q 431 582 399 582 q 492 572 464 582 q 522 542 519 563 q 521 506 522 535 q 517 438 519 478 q 513 351 514 397 q 513 261 511 304 q 521 185 515 218 q 539 138 526 151 q 572 127 556 118 q 600 162 588 136 q 623 224 613 188 q 642 294 633 260 q 655 356 650 329 q 661 392 660 383 z "},"":{"ha":606,"x_min":-3,"x_max":710,"o":"m 253 704 q 261 747 254 718 q 278 808 268 775 q 299 873 288 842 q 319 924 310 904 q 357 938 329 943 q 409 917 385 933 q 444 878 433 900 q 431 839 454 856 q 372 785 404 821 q 313 701 340 750 q 291 678 301 682 q 272 677 281 674 q 258 689 263 681 q 253 704 253 697 m 468 519 q 488 429 482 481 q 493 319 494 378 q 574 332 538 308 q 622 400 610 356 q 640 410 625 413 q 670 398 654 407 q 698 378 686 389 q 708 364 710 368 q 660 289 685 318 q 608 244 635 260 q 550 223 581 228 q 485 221 519 218 q 457 111 476 164 q 390 18 435 53 q 290 -26 344 -17 q 183 -22 236 -36 q 90 29 129 -8 q 26 135 49 71 q 1 269 4 199 q 10 409 -3 339 q 50 533 22 479 q 111 613 79 589 q 174 641 143 638 q 229 632 204 644 q 269 603 254 619 q 283 573 283 588 q 264 556 283 558 q 235 528 249 554 q 210 463 221 503 q 194 373 200 422 q 188 274 188 324 q 194 181 188 225 q 215 108 200 136 q 254 69 231 79 q 313 81 278 60 q 353 142 339 96 q 374 246 368 188 q 317 293 338 264 q 287 356 296 322 q 280 424 278 389 q 292 490 282 460 q 328 546 303 525 q 380 572 353 567 q 432 564 407 576 q 468 519 457 551 z "},"":{"ha":468,"x_min":-6,"x_max":590,"o":"m 193 731 q 201 773 194 744 q 218 835 208 801 q 239 899 228 868 q 260 950 250 931 q 297 965 269 969 q 349 943 325 960 q 384 904 374 926 q 371 865 394 882 q 313 812 344 847 q 253 728 281 776 q 231 704 242 708 q 212 703 221 700 q 198 715 203 707 q 193 731 193 724 m 482 399 q 496 403 483 401 q 526 401 508 404 q 561 390 543 399 q 590 363 579 381 q 518 177 567 251 q 408 65 469 103 q 276 22 346 26 q 143 46 207 17 q 49 128 82 74 q 5 251 15 183 q 5 390 -6 318 q 42 524 15 463 q 110 613 67 581 q 202 653 154 646 q 294 642 250 661 q 363 576 339 622 q 385 478 386 532 q 363 376 385 424 q 300 299 342 329 q 199 269 258 268 q 208 208 200 244 q 232 142 217 171 q 272 101 247 113 q 335 115 297 90 q 390 175 365 136 q 433 256 415 214 q 463 338 451 299 q 482 399 475 376 m 253 561 q 228 546 239 564 q 209 497 217 528 q 198 424 201 465 q 194 339 194 382 q 240 346 221 333 q 273 382 260 358 q 292 435 286 406 q 295 491 297 464 q 283 538 293 518 q 253 561 272 557 z "},"":{"ha":333,"x_min":6,"x_max":438,"o":"m 68 704 q 76 747 69 718 q 93 808 83 775 q 114 873 103 842 q 135 924 125 904 q 172 938 144 943 q 224 917 200 933 q 259 878 249 900 q 246 839 269 856 q 188 785 219 821 q 128 701 156 750 q 106 678 117 682 q 87 677 96 674 q 73 689 78 681 q 68 704 68 697 m 351 401 q 360 403 351 404 q 383 398 369 403 q 410 383 396 393 q 438 354 425 372 q 388 181 421 250 q 313 72 354 111 q 227 20 272 32 q 142 19 182 8 q 72 63 103 31 q 29 144 42 96 q 13 244 18 186 q 7 360 8 303 q 6 467 6 418 q 7 539 7 515 q 34 565 7 556 q 94 574 61 574 q 154 565 126 575 q 185 535 182 556 q 183 499 185 528 q 179 431 182 471 q 175 343 176 390 q 175 253 174 296 q 183 178 176 211 q 201 131 189 144 q 235 122 218 111 q 269 160 253 132 q 299 226 285 188 q 325 300 314 264 q 343 365 336 336 q 351 401 350 393 z "},"":{"ha":678,"x_min":-1,"x_max":796,"o":"m 257 721 q 265 763 258 735 q 282 825 272 792 q 303 890 292 858 q 324 940 314 921 q 361 955 333 960 q 413 933 389 950 q 448 894 438 917 q 435 856 458 872 q 376 802 408 838 q 317 718 344 767 q 295 694 306 699 q 276 694 285 690 q 262 706 267 697 q 257 721 257 714 m 367 263 q 400 157 369 199 q 476 98 431 115 q 574 88 521 81 q 673 131 626 96 q 753 228 719 165 q 796 383 788 292 q 764 409 783 401 q 727 417 744 417 q 697 415 710 418 q 685 410 685 413 q 679 356 685 388 q 664 293 674 325 q 642 232 654 261 q 614 185 629 203 q 581 163 599 167 q 547 179 564 160 q 529 230 535 193 q 523 315 524 267 q 524 415 522 363 q 530 513 526 468 q 536 590 533 558 q 538 629 539 622 q 507 659 535 650 q 446 668 479 668 q 386 658 413 668 q 360 632 360 649 l 364 503 q 343 583 363 551 q 294 633 324 615 q 230 656 265 650 q 163 656 194 661 q 94 610 125 650 q 41 513 63 571 q 9 388 19 456 q 2 258 -1 319 q 25 147 6 196 q 83 78 44 97 q 160 55 118 60 q 244 68 203 50 q 317 132 285 86 q 367 263 350 178 m 200 158 q 170 208 179 171 q 162 291 161 244 q 172 387 163 338 q 196 476 181 436 q 231 537 211 515 q 274 549 251 558 q 304 503 294 540 q 315 418 314 467 q 307 317 315 369 q 284 223 299 264 q 248 162 269 182 q 200 158 226 142 z "},"":{"ha":592,"x_min":-15,"x_max":710,"o":"m 350 956 q 372 962 354 963 q 407 956 389 961 q 438 944 425 951 q 443 932 450 938 q 403 886 424 917 q 363 824 382 856 q 328 764 343 792 q 308 725 314 736 q 299 722 308 722 q 278 721 289 721 q 258 723 267 721 q 247 728 249 725 q 223 781 239 749 q 188 846 207 814 q 149 904 169 878 q 113 939 129 931 q 111 952 97 944 q 147 965 125 960 q 192 970 169 969 q 219 965 215 971 q 241 927 231 950 q 260 881 251 904 q 274 840 268 858 q 282 817 279 822 q 307 869 294 844 q 329 915 318 892 q 350 956 340 939 m 381 -61 q 232 -210 276 -137 q 182 -335 188 -282 q 197 -415 176 -387 q 244 -429 218 -442 q 325 -316 283 -410 q 381 -61 367 -222 m 528 61 q 539 -47 540 11 q 497 -301 535 -200 q 405 -456 458 -401 q 291 -522 351 -510 q 182 -512 231 -535 q 101 -428 131 -489 q 85 -288 72 -368 q 165 -117 99 -208 q 372 61 232 -25 q 356 112 368 97 q 328 125 343 126 q 294 108 313 124 q 261 67 276 92 q 228 51 253 53 q 178 57 203 49 q 136 83 153 65 q 128 125 119 100 q 157 201 140 160 q 191 285 174 243 q 226 363 208 326 q 258 421 243 399 q 201 371 236 388 q 128 354 165 354 q 56 373 90 354 q 4 429 22 392 q -13 518 -11 461 q 1 640 -15 575 q 50 705 15 692 q 121 710 85 718 q 183 685 157 703 q 204 654 208 667 q 165 498 164 554 q 186 440 165 442 q 206 450 194 439 q 230 480 218 461 q 253 522 242 499 q 275 569 265 546 q 318 591 288 599 q 381 561 349 583 q 438 515 414 539 q 461 486 463 490 q 440 439 454 468 q 405 374 425 410 q 363 297 385 338 q 321 217 342 257 q 401 219 361 232 q 474 171 442 207 q 549 287 517 228 q 600 401 581 346 q 613 406 600 403 q 642 409 625 410 q 678 401 660 408 q 710 376 697 394 q 684 303 701 343 q 643 223 667 264 q 590 140 619 182 q 528 61 561 99 z "},"":{"ha":483,"x_min":31,"x_max":638,"o":"m 286 956 q 308 962 290 963 q 343 956 325 961 q 374 944 361 951 q 379 932 386 938 q 339 886 360 917 q 299 824 318 856 q 265 764 279 792 q 244 725 250 736 q 235 722 244 722 q 214 721 225 721 q 194 723 203 721 q 183 728 185 725 q 159 781 175 749 q 124 846 143 814 q 85 904 106 878 q 49 939 65 931 q 47 952 33 944 q 83 965 61 960 q 128 970 106 969 q 156 965 151 971 q 177 927 167 950 q 196 881 188 904 q 210 840 204 858 q 218 817 215 822 q 243 869 231 844 q 265 915 254 892 q 286 956 276 939 m 474 103 q 445 72 464 92 q 403 30 426 53 q 356 -14 381 7 q 310 -47 332 -35 q 210 -72 261 -75 q 126 -43 158 -68 q 94 8 100 -22 q 99 63 89 38 q 133 103 110 89 q 188 108 156 118 q 214 97 201 104 q 236 81 226 89 q 215 169 240 128 q 153 250 189 210 q 85 334 118 290 q 42 431 51 378 q 48 540 31 492 q 99 620 65 588 q 178 668 133 653 q 266 678 222 683 q 347 648 310 674 q 401 572 383 622 q 399 533 407 557 q 376 490 390 508 q 347 466 363 471 q 324 486 332 461 q 298 524 315 510 q 263 540 281 539 q 228 531 242 540 q 206 506 214 521 q 196 474 197 492 q 200 444 194 457 q 208 426 203 435 q 219 408 213 418 q 265 350 239 381 q 314 286 290 319 q 355 215 338 253 q 375 132 372 176 q 466 263 428 194 q 526 394 504 332 q 540 401 528 397 q 570 403 553 404 q 606 396 588 403 q 638 371 625 389 q 613 308 629 342 q 576 238 597 274 q 528 168 554 203 q 474 103 501 133 z "},"":{"ha":656,"x_min":0,"x_max":760,"o":"m 311 703 q 306 689 311 697 q 292 677 301 681 q 272 677 283 674 q 251 700 261 681 q 192 785 224 749 q 133 838 160 821 q 120 876 110 854 q 155 916 131 899 q 206 938 179 933 q 244 924 233 943 q 265 873 254 904 q 286 808 276 842 q 303 746 296 775 q 311 703 310 717 m 661 392 q 672 399 661 394 q 699 403 683 403 q 731 398 714 404 q 760 374 747 392 q 701 164 736 243 q 614 51 667 85 q 539 24 578 28 q 465 35 500 21 q 404 78 431 49 q 367 150 378 108 q 292 53 335 78 q 200 32 249 29 q 101 65 139 36 q 42 135 64 93 q 12 227 21 176 q 1 328 3 278 q 2 425 0 379 q 4 501 4 471 q 18 563 4 539 q 53 599 32 586 q 100 615 75 613 q 147 612 125 617 q 185 596 169 607 q 201 569 200 585 q 199 506 203 554 q 192 399 196 458 q 188 279 189 340 q 194 176 188 218 q 219 120 201 133 q 269 142 236 107 q 292 187 282 156 q 310 258 301 218 q 324 343 318 299 q 333 428 329 388 q 340 501 338 469 q 344 546 343 532 q 372 572 344 563 q 431 582 399 582 q 492 572 464 582 q 522 542 519 563 q 521 506 522 535 q 517 438 519 478 q 513 351 514 397 q 513 261 511 304 q 521 185 515 218 q 539 138 526 151 q 572 127 556 118 q 600 162 588 136 q 623 224 613 188 q 642 294 633 260 q 655 356 650 329 q 661 392 660 383 z "},"":{"ha":333,"x_min":-64,"x_max":438,"o":"m 138 703 q 133 689 138 697 q 119 677 128 681 q 99 677 110 674 q 78 700 88 681 q 18 785 50 749 q -40 838 -14 821 q -53 876 -64 854 q -19 916 -43 899 q 33 938 6 933 q 71 924 60 943 q 92 873 81 904 q 113 808 103 842 q 129 746 122 775 q 138 703 136 717 m 351 401 q 360 403 351 404 q 383 398 369 403 q 410 383 396 393 q 438 354 425 372 q 388 181 421 250 q 313 72 354 111 q 227 20 272 32 q 142 19 182 8 q 72 63 103 31 q 29 144 42 96 q 13 244 18 186 q 7 360 8 303 q 6 467 6 418 q 7 539 7 515 q 34 565 7 556 q 94 574 61 574 q 154 565 126 575 q 185 535 182 556 q 183 499 185 528 q 179 431 182 471 q 175 343 176 390 q 175 253 174 296 q 183 178 176 211 q 201 131 189 144 q 235 122 218 111 q 269 160 253 132 q 299 226 285 188 q 325 300 314 264 q 343 365 336 336 q 351 401 350 393 z "},"":{"ha":606,"x_min":-3,"x_max":710,"o":"m 311 703 q 306 689 311 697 q 292 677 301 681 q 272 677 283 674 q 251 700 261 681 q 192 785 224 749 q 133 838 160 821 q 120 876 110 854 q 155 916 131 899 q 206 938 179 933 q 244 924 233 943 q 265 873 254 904 q 286 808 276 842 q 303 746 296 775 q 311 703 310 717 m 468 519 q 488 429 482 481 q 493 319 494 378 q 574 332 538 308 q 622 400 610 356 q 640 410 625 413 q 670 398 654 407 q 698 378 686 389 q 708 364 710 368 q 660 289 685 318 q 608 244 635 260 q 550 223 581 228 q 485 221 519 218 q 457 111 476 164 q 390 18 435 53 q 290 -26 344 -17 q 183 -22 236 -36 q 90 29 129 -8 q 26 135 49 71 q 1 269 4 199 q 10 409 -3 339 q 50 533 22 479 q 111 613 79 589 q 174 641 143 638 q 229 632 204 644 q 269 603 254 619 q 283 573 283 588 q 264 556 283 558 q 235 528 249 554 q 210 463 221 503 q 194 373 200 422 q 188 274 188 324 q 194 181 188 225 q 215 108 200 136 q 254 69 231 79 q 313 81 278 60 q 353 142 339 96 q 374 246 368 188 q 317 293 338 264 q 287 356 296 322 q 280 424 278 389 q 292 490 282 460 q 328 546 303 525 q 380 572 353 567 q 432 564 407 576 q 468 519 457 551 z "},"":{"ha":468,"x_min":-6,"x_max":590,"o":"m 251 731 q 247 717 251 725 q 233 705 242 708 q 213 705 224 701 q 192 728 201 708 q 132 813 164 776 q 74 865 100 849 q 60 904 50 882 q 95 944 71 926 q 147 966 119 961 q 185 951 174 971 q 206 901 194 932 q 226 836 217 869 q 243 774 236 803 q 251 731 250 744 m 482 399 q 496 403 483 401 q 526 401 508 404 q 561 390 543 399 q 590 363 579 381 q 518 177 567 251 q 408 65 469 103 q 276 22 346 26 q 143 46 207 17 q 49 128 82 74 q 5 251 15 183 q 5 390 -6 318 q 42 524 15 463 q 110 613 67 581 q 202 653 154 646 q 294 642 250 661 q 363 576 339 622 q 385 478 386 532 q 363 376 385 424 q 300 299 342 329 q 199 269 258 268 q 208 208 200 244 q 232 142 217 171 q 272 101 247 113 q 335 115 297 90 q 390 175 365 136 q 433 256 415 214 q 463 338 451 299 q 482 399 475 376 m 253 561 q 228 546 239 564 q 209 497 217 528 q 198 424 201 465 q 194 339 194 382 q 240 346 221 333 q 273 382 260 358 q 292 435 286 406 q 295 491 297 464 q 283 538 293 518 q 253 561 272 557 z "},"":{"ha":678,"x_min":-1,"x_max":796,"o":"m 310 719 q 305 706 310 714 q 291 694 300 697 q 271 694 282 690 q 250 717 260 697 q 190 801 222 765 q 132 854 158 838 q 119 893 108 871 q 153 933 129 915 q 205 955 178 950 q 243 940 232 960 q 264 890 253 921 q 285 825 275 858 q 301 763 294 792 q 310 719 308 733 m 367 263 q 317 132 350 178 q 244 68 285 86 q 160 55 203 50 q 83 78 118 60 q 25 147 44 97 q 2 258 6 196 q 9 388 -1 319 q 41 513 19 456 q 94 610 63 571 q 163 656 125 650 q 230 656 194 661 q 294 633 265 650 q 343 583 324 615 q 364 503 363 551 l 360 632 q 386 658 360 649 q 446 668 413 668 q 507 659 479 668 q 538 629 535 650 q 536 590 539 622 q 530 513 533 558 q 524 415 526 468 q 523 315 522 363 q 529 230 524 267 q 547 179 535 193 q 581 163 564 160 q 614 185 599 167 q 642 232 629 203 q 664 293 654 261 q 679 356 674 325 q 685 410 685 388 q 697 415 685 413 q 727 417 710 418 q 764 409 744 417 q 796 383 783 401 q 753 228 788 292 q 673 131 719 165 q 574 88 626 96 q 476 98 521 81 q 400 157 431 115 q 367 263 369 199 m 200 158 q 248 162 226 142 q 284 223 269 182 q 307 317 299 264 q 315 418 315 369 q 304 503 314 467 q 274 549 294 540 q 231 537 251 558 q 196 476 211 515 q 172 387 181 436 q 162 291 163 338 q 170 208 161 244 q 200 158 179 171 z "},"":{"ha":692,"x_min":-1,"x_max":814,"o":"m 189 686 q 114 691 149 672 q 71 750 79 710 q 87 828 63 790 q 151 879 111 865 q 228 876 193 894 q 269 817 263 857 q 254 738 278 776 q 189 686 231 700 m 446 686 q 369 691 404 672 q 328 750 335 710 q 343 828 319 790 q 408 879 367 865 q 483 874 449 893 q 526 817 518 856 q 511 738 535 776 q 446 686 488 700 m 350 -17 q 353 22 351 3 q 356 83 354 42 q 304 24 339 47 q 227 -5 269 0 q 142 5 185 -10 q 67 58 99 19 q 21 160 35 97 q 3 291 7 224 q 0 419 -1 358 q 1 515 1 481 q 15 576 1 553 q 51 613 29 600 q 98 628 72 625 q 145 626 124 631 q 182 610 167 621 q 199 583 197 599 q 199 541 200 572 q 197 467 199 510 q 196 374 196 424 q 197 276 196 324 q 200 186 197 228 q 210 118 203 144 q 224 91 214 100 q 245 81 233 82 q 269 85 257 79 q 292 106 282 92 q 322 192 310 132 q 341 322 333 253 q 353 453 349 390 q 360 550 357 517 l 360 557 q 372 577 360 568 q 403 592 385 586 q 444 601 422 599 q 486 601 467 603 q 519 591 506 599 q 535 569 533 583 q 536 514 536 550 q 534 433 536 478 q 529 337 532 388 q 524 240 526 286 q 519 153 521 193 q 515 90 517 114 q 629 240 582 160 q 703 394 676 319 q 717 399 704 396 q 747 402 729 403 q 783 394 764 401 q 814 369 801 388 q 772 262 801 321 q 702 144 743 203 q 612 32 661 85 q 510 -57 563 -21 q 495 -205 504 -140 q 475 -318 486 -269 q 450 -402 464 -367 q 422 -464 436 -437 q 362 -537 397 -510 q 288 -574 326 -565 q 210 -573 249 -583 q 142 -532 172 -562 q 94 -446 107 -496 q 92 -339 81 -396 q 126 -243 101 -287 q 184 -160 150 -199 q 260 -85 218 -121 q 350 -17 303 -50 m 240 -499 q 270 -474 254 -494 q 301 -411 286 -453 q 327 -304 315 -369 q 344 -146 339 -239 q 231 -264 267 -200 q 190 -383 196 -328 q 199 -472 183 -437 q 240 -499 215 -506 z "},"":{"ha":656,"x_min":0,"x_max":760,"o":"m 196 686 q 121 691 156 672 q 78 750 86 710 q 94 828 69 790 q 158 879 118 865 q 235 876 200 894 q 276 817 269 857 q 261 738 285 776 q 196 686 238 700 m 453 686 q 376 691 411 672 q 335 750 342 710 q 350 828 326 790 q 415 879 374 865 q 490 874 456 893 q 533 817 525 856 q 518 738 542 776 q 453 686 494 700 m 661 392 q 672 399 661 394 q 699 403 683 403 q 731 398 714 404 q 760 374 747 392 q 701 164 736 243 q 614 51 667 85 q 539 24 578 28 q 465 35 500 21 q 404 78 431 49 q 367 150 378 108 q 292 53 335 78 q 200 32 249 29 q 101 65 139 36 q 42 135 64 93 q 12 227 21 176 q 1 328 3 278 q 2 425 0 379 q 4 501 4 471 q 18 563 4 539 q 53 599 32 586 q 100 615 75 613 q 147 612 125 617 q 185 596 169 607 q 201 569 200 585 q 199 506 203 554 q 192 399 196 458 q 188 279 189 340 q 194 176 188 218 q 219 120 201 133 q 269 142 236 107 q 292 187 282 156 q 310 258 301 218 q 324 343 318 299 q 333 428 329 388 q 340 501 338 469 q 344 546 343 532 q 372 572 344 563 q 431 582 399 582 q 492 572 464 582 q 522 542 519 563 q 521 506 522 535 q 517 438 519 478 q 513 351 514 397 q 513 261 511 304 q 521 185 515 218 q 539 138 526 151 q 572 127 556 118 q 600 162 588 136 q 623 224 613 188 q 642 294 633 260 q 655 356 650 329 q 661 392 660 383 z "},"":{"ha":606,"x_min":-3,"x_max":710,"o":"m 196 686 q 121 691 156 672 q 78 750 86 710 q 94 828 69 790 q 158 879 118 865 q 235 876 200 894 q 276 817 269 857 q 261 738 285 776 q 196 686 238 700 m 453 686 q 376 691 411 672 q 335 750 342 710 q 350 828 326 790 q 415 879 374 865 q 490 874 456 893 q 533 817 525 856 q 518 738 542 776 q 453 686 494 700 m 468 519 q 488 429 482 481 q 493 319 494 378 q 574 332 538 308 q 622 400 610 356 q 640 410 625 413 q 670 398 654 407 q 698 378 686 389 q 708 364 710 368 q 660 289 685 318 q 608 244 635 260 q 550 223 581 228 q 485 221 519 218 q 457 111 476 164 q 390 18 435 53 q 290 -26 344 -17 q 183 -22 236 -36 q 90 29 129 -8 q 26 135 49 71 q 1 269 4 199 q 10 409 -3 339 q 50 533 22 479 q 111 613 79 589 q 174 641 143 638 q 229 632 204 644 q 269 603 254 619 q 283 573 283 588 q 264 556 283 558 q 235 528 249 554 q 210 463 221 503 q 194 373 200 422 q 188 274 188 324 q 194 181 188 225 q 215 108 200 136 q 254 69 231 79 q 313 81 278 60 q 353 142 339 96 q 374 246 368 188 q 317 293 338 264 q 287 356 296 322 q 280 424 278 389 q 292 490 282 460 q 328 546 303 525 q 380 572 353 567 q 432 564 407 576 q 468 519 457 551 z "},"":{"ha":468,"x_min":-6,"x_max":590,"o":"m 147 699 q 72 703 107 685 q 29 763 38 722 q 45 840 21 803 q 110 892 69 878 q 186 888 151 907 q 228 829 221 869 q 213 751 236 789 q 147 699 189 713 m 404 699 q 328 703 363 685 q 286 763 293 722 q 301 840 278 803 q 367 892 325 878 q 442 887 407 906 q 485 829 476 868 q 469 751 493 789 q 404 699 446 713 m 482 399 q 496 403 483 401 q 526 401 508 404 q 561 390 543 399 q 590 363 579 381 q 518 177 567 251 q 408 65 469 103 q 276 22 346 26 q 143 46 207 17 q 49 128 82 74 q 5 251 15 183 q 5 390 -6 318 q 42 524 15 463 q 110 613 67 581 q 202 653 154 646 q 294 642 250 661 q 363 576 339 622 q 385 478 386 532 q 363 376 385 424 q 300 299 342 329 q 199 269 258 268 q 208 208 200 244 q 232 142 217 171 q 272 101 247 113 q 335 115 297 90 q 390 175 365 136 q 433 256 415 214 q 463 338 451 299 q 482 399 475 376 m 253 561 q 228 546 239 564 q 209 497 217 528 q 198 424 201 465 q 194 339 194 382 q 240 346 221 333 q 273 382 260 358 q 292 435 286 406 q 295 491 297 464 q 283 538 293 518 q 253 561 272 557 z "},"":{"ha":678,"x_min":-1,"x_max":796,"o":"m 193 714 q 118 719 153 700 q 75 778 83 738 q 91 856 67 818 q 156 907 115 893 q 232 903 197 922 q 274 844 267 885 q 258 766 282 804 q 193 714 235 728 m 450 714 q 374 719 408 700 q 332 778 339 738 q 347 856 324 818 q 413 907 371 893 q 488 902 453 921 q 531 844 522 883 q 515 766 539 804 q 450 714 492 728 m 367 263 q 317 132 350 178 q 244 68 285 86 q 160 55 203 50 q 83 78 118 60 q 25 147 44 97 q 2 258 6 196 q 9 388 -1 319 q 41 513 19 456 q 94 610 63 571 q 163 656 125 650 q 230 656 194 661 q 294 633 265 650 q 343 583 324 615 q 364 503 363 551 l 360 632 q 386 658 360 649 q 446 668 413 668 q 507 659 479 668 q 538 629 535 650 q 536 590 539 622 q 530 513 533 558 q 524 415 526 468 q 523 315 522 363 q 529 230 524 267 q 547 179 535 193 q 581 163 564 160 q 614 185 599 167 q 642 232 629 203 q 664 293 654 261 q 679 356 674 325 q 685 410 685 388 q 697 415 685 413 q 727 417 710 418 q 764 409 744 417 q 796 383 783 401 q 753 228 788 292 q 673 131 719 165 q 574 88 626 96 q 476 98 521 81 q 400 157 431 115 q 367 263 369 199 m 200 158 q 248 162 226 142 q 284 223 269 182 q 307 317 299 264 q 315 418 315 369 q 304 503 314 467 q 274 549 294 540 q 231 537 251 558 q 196 476 211 515 q 172 387 181 436 q 162 291 163 338 q 170 208 161 244 q 200 158 179 171 z "},"":{"ha":656,"x_min":0,"x_max":760,"o":"m 217 678 q 195 672 213 671 q 160 677 178 672 q 129 689 142 682 q 124 701 117 696 q 165 747 143 717 q 205 810 186 778 q 238 869 224 842 q 258 908 253 897 q 269 910 260 910 q 289 911 278 911 q 310 910 300 911 q 321 906 319 908 q 344 852 329 885 q 378 787 360 819 q 417 728 397 754 q 454 694 438 701 q 456 681 468 688 q 420 669 443 674 q 374 663 397 664 q 347 668 351 661 q 326 706 336 683 q 307 752 315 729 q 292 793 299 775 q 285 817 286 811 q 260 764 272 789 q 237 717 249 742 q 217 678 225 693 m 661 392 q 672 399 661 394 q 699 403 683 403 q 731 398 714 404 q 760 374 747 392 q 701 164 736 243 q 614 51 667 85 q 539 24 578 28 q 465 35 500 21 q 404 78 431 49 q 367 150 378 108 q 292 53 335 78 q 200 32 249 29 q 101 65 139 36 q 42 135 64 93 q 12 227 21 176 q 1 328 3 278 q 2 425 0 379 q 4 501 4 471 q 18 563 4 539 q 53 599 32 586 q 100 615 75 613 q 147 612 125 617 q 185 596 169 607 q 201 569 200 585 q 199 506 203 554 q 192 399 196 458 q 188 279 189 340 q 194 176 188 218 q 219 120 201 133 q 269 142 236 107 q 292 187 282 156 q 310 258 301 218 q 324 343 318 299 q 333 428 329 388 q 340 501 338 469 q 344 546 343 532 q 372 572 344 563 q 431 582 399 582 q 492 572 464 582 q 522 542 519 563 q 521 506 522 535 q 517 438 519 478 q 513 351 514 397 q 513 261 511 304 q 521 185 515 218 q 539 138 526 151 q 572 127 556 118 q 600 162 588 136 q 623 224 613 188 q 642 294 633 260 q 655 356 650 329 q 661 392 660 383 z "},"":{"ha":606,"x_min":-3,"x_max":710,"o":"m 217 692 q 195 685 213 685 q 160 691 178 686 q 129 703 142 696 q 124 715 117 710 q 165 761 143 731 q 205 824 186 792 q 238 883 224 856 q 258 922 253 911 q 269 924 260 924 q 289 925 278 925 q 310 924 300 925 q 321 919 319 922 q 344 866 329 899 q 378 801 360 833 q 417 742 397 768 q 454 708 438 715 q 456 694 468 701 q 420 683 443 688 q 374 676 397 678 q 347 682 351 675 q 326 720 336 697 q 307 766 315 743 q 292 807 299 789 q 285 831 286 825 q 260 778 272 803 q 237 731 249 756 q 217 692 225 707 m 468 519 q 488 429 482 481 q 493 319 494 378 q 574 332 538 308 q 622 400 610 356 q 640 410 625 413 q 670 398 654 407 q 698 378 686 389 q 708 364 710 368 q 660 289 685 318 q 608 244 635 260 q 550 223 581 228 q 485 221 519 218 q 457 111 476 164 q 390 18 435 53 q 290 -26 344 -17 q 183 -22 236 -36 q 90 29 129 -8 q 26 135 49 71 q 1 269 4 199 q 10 409 -3 339 q 50 533 22 479 q 111 613 79 589 q 174 641 143 638 q 229 632 204 644 q 269 603 254 619 q 283 573 283 588 q 264 556 283 558 q 235 528 249 554 q 210 463 221 503 q 194 373 200 422 q 188 274 188 324 q 194 181 188 225 q 215 108 200 136 q 254 69 231 79 q 313 81 278 60 q 353 142 339 96 q 374 246 368 188 q 317 293 338 264 q 287 356 296 322 q 280 424 278 389 q 292 490 282 460 q 328 546 303 525 q 380 572 353 567 q 432 564 407 576 q 468 519 457 551 z "},"":{"ha":333,"x_min":-57,"x_max":438,"o":"m 43 678 q 22 672 39 671 q -14 677 4 672 q -44 689 -32 682 q -50 701 -57 696 q -9 747 -31 717 q 31 810 13 778 q 65 869 50 842 q 85 908 79 897 q 95 910 86 910 q 115 911 104 911 q 136 910 126 911 q 147 906 146 908 q 171 852 156 885 q 205 787 186 819 q 244 728 224 754 q 281 694 264 701 q 282 681 294 688 q 247 669 269 674 q 201 663 224 664 q 174 668 178 661 q 152 706 163 683 q 133 752 142 729 q 119 793 125 775 q 111 817 113 811 q 86 764 99 789 q 63 717 75 742 q 43 678 51 693 m 351 401 q 360 403 351 404 q 383 398 369 403 q 410 383 396 393 q 438 354 425 372 q 388 181 421 250 q 313 72 354 111 q 227 20 272 32 q 142 19 182 8 q 72 63 103 31 q 29 144 42 96 q 13 244 18 186 q 7 360 8 303 q 6 467 6 418 q 7 539 7 515 q 34 565 7 556 q 94 574 61 574 q 154 565 126 575 q 185 535 182 556 q 183 499 185 528 q 179 431 182 471 q 175 343 176 390 q 175 253 174 296 q 183 178 176 211 q 201 131 189 144 q 235 122 218 111 q 269 160 253 132 q 299 226 285 188 q 325 300 314 264 q 343 365 336 336 q 351 401 350 393 z "},"":{"ha":468,"x_min":-6,"x_max":590,"o":"m 164 713 q 142 706 160 706 q 107 712 125 707 q 76 724 89 717 q 71 736 64 731 q 112 782 90 751 q 152 844 133 813 q 185 904 171 876 q 206 943 200 932 q 216 945 207 944 q 236 946 225 946 q 257 944 247 946 q 268 940 267 943 q 292 887 276 919 q 326 822 307 854 q 365 763 344 789 q 401 729 385 736 q 403 715 415 722 q 367 703 390 708 q 322 697 344 699 q 294 703 299 696 q 273 741 283 718 q 254 787 263 764 q 240 828 246 810 q 232 851 233 846 q 207 799 219 824 q 184 752 196 776 q 164 713 172 728 m 482 399 q 496 403 483 401 q 526 401 508 404 q 561 390 543 399 q 590 363 579 381 q 518 177 567 251 q 408 65 469 103 q 276 22 346 26 q 143 46 207 17 q 49 128 82 74 q 5 251 15 183 q 5 390 -6 318 q 42 524 15 463 q 110 613 67 581 q 202 653 154 646 q 294 642 250 661 q 363 576 339 622 q 385 478 386 532 q 363 376 385 424 q 300 299 342 329 q 199 269 258 268 q 208 208 200 244 q 232 142 217 171 q 272 101 247 113 q 335 115 297 90 q 390 175 365 136 q 433 256 415 214 q 463 338 451 299 q 482 399 475 376 m 253 561 q 228 546 239 564 q 209 497 217 528 q 198 424 201 465 q 194 339 194 382 q 240 346 221 333 q 273 382 260 358 q 292 435 286 406 q 295 491 297 464 q 283 538 293 518 q 253 561 272 557 z "},"":{"ha":678,"x_min":-1,"x_max":796,"o":"m 263 715 q 241 709 258 708 q 206 715 224 710 q 175 726 188 719 q 169 739 163 733 q 210 785 189 754 q 251 847 232 815 q 284 907 269 879 q 304 946 299 935 q 315 948 306 947 q 335 949 324 949 q 356 947 346 949 q 367 943 365 946 q 390 890 375 922 q 424 824 406 857 q 463 765 443 792 q 500 732 483 739 q 501 718 514 725 q 466 706 489 711 q 420 700 443 701 q 393 706 397 699 q 372 744 382 721 q 353 790 361 767 q 338 831 344 813 q 331 854 332 849 q 306 801 318 826 q 283 755 294 779 q 263 715 271 731 m 367 263 q 317 132 350 178 q 244 68 285 86 q 160 55 203 50 q 83 78 118 60 q 25 147 44 97 q 2 258 6 196 q 9 388 -1 319 q 41 513 19 456 q 94 610 63 571 q 163 656 125 650 q 230 656 194 661 q 294 633 265 650 q 343 583 324 615 q 364 503 363 551 l 360 632 q 386 658 360 649 q 446 668 413 668 q 507 659 479 668 q 538 629 535 650 q 536 590 539 622 q 530 513 533 558 q 524 415 526 468 q 523 315 522 363 q 529 230 524 267 q 547 179 535 193 q 581 163 564 160 q 614 185 599 167 q 642 232 629 203 q 664 293 654 261 q 679 356 674 325 q 685 410 685 388 q 697 415 685 413 q 727 417 710 418 q 764 409 744 417 q 796 383 783 401 q 753 228 788 292 q 673 131 719 165 q 574 88 626 96 q 476 98 521 81 q 400 157 431 115 q 367 263 369 199 m 200 158 q 248 162 226 142 q 284 223 269 182 q 307 317 299 264 q 315 418 315 369 q 304 503 314 467 q 274 549 294 540 q 231 537 251 558 q 196 476 211 515 q 172 387 181 436 q 162 291 163 338 q 170 208 161 244 q 200 158 179 171 z "},"":{"ha":333,"x_min":-122,"x_max":438,"o":"m 4 694 q -71 699 -36 681 q -114 758 -106 718 q -98 836 -122 799 q -33 888 -74 874 q 43 884 8 903 q 85 825 78 865 q 69 747 93 785 q 4 694 46 708 m 261 694 q 185 699 219 681 q 143 758 150 718 q 158 836 135 799 q 224 888 182 874 q 299 883 264 901 q 342 825 333 864 q 326 747 350 785 q 261 694 303 708 m 351 401 q 360 403 351 404 q 383 398 369 403 q 410 383 396 393 q 438 354 425 372 q 388 181 421 250 q 313 72 354 111 q 227 20 272 32 q 142 19 182 8 q 72 63 103 31 q 29 144 42 96 q 13 244 18 186 q 7 360 8 303 q 6 467 6 418 q 7 539 7 515 q 34 565 7 556 q 94 574 61 574 q 154 565 126 575 q 185 535 182 556 q 183 499 185 528 q 179 431 182 471 q 175 343 176 390 q 175 253 174 296 q 183 178 176 211 q 201 131 189 144 q 235 122 218 111 q 269 160 253 132 q 299 226 285 188 q 325 300 314 264 q 343 365 336 336 q 351 401 350 393 z "},"":{"ha":606,"x_min":-3,"x_max":710,"o":"m 136 697 q 116 692 122 685 q 109 715 110 700 q 112 748 108 731 q 122 771 115 765 q 191 813 161 806 q 246 812 221 819 q 292 788 271 804 q 333 761 313 772 q 375 749 353 750 q 424 771 397 749 q 442 772 435 779 q 451 750 449 764 q 451 722 453 736 q 443 701 449 707 q 382 670 410 674 q 331 675 354 667 q 285 699 307 683 q 240 723 263 714 q 192 728 217 732 q 136 697 167 725 m 468 519 q 488 429 482 481 q 493 319 494 378 q 574 332 538 308 q 622 400 610 356 q 640 410 625 413 q 670 398 654 407 q 698 378 686 389 q 708 364 710 368 q 660 289 685 318 q 608 244 635 260 q 550 223 581 228 q 485 221 519 218 q 457 111 476 164 q 390 18 435 53 q 290 -26 344 -17 q 183 -22 236 -36 q 90 29 129 -8 q 26 135 49 71 q 1 269 4 199 q 10 409 -3 339 q 50 533 22 479 q 111 613 79 589 q 174 641 143 638 q 229 632 204 644 q 269 603 254 619 q 283 573 283 588 q 264 556 283 558 q 235 528 249 554 q 210 463 221 503 q 194 373 200 422 q 188 274 188 324 q 194 181 188 225 q 215 108 200 136 q 254 69 231 79 q 313 81 278 60 q 353 142 339 96 q 374 246 368 188 q 317 293 338 264 q 287 356 296 322 q 280 424 278 389 q 292 490 282 460 q 328 546 303 525 q 380 572 353 567 q 432 564 407 576 q 468 519 457 551 z "},"":{"ha":678,"x_min":-1,"x_max":796,"o":"m 151 736 q 131 731 138 724 q 124 754 125 739 q 127 787 124 769 q 138 810 131 804 q 206 851 176 844 q 261 851 236 858 q 307 827 286 843 q 348 800 328 811 q 390 788 368 789 q 439 810 413 788 q 457 810 450 818 q 466 789 464 803 q 466 760 468 775 q 458 740 464 746 q 397 709 425 713 q 346 714 369 706 q 300 738 322 722 q 255 762 278 753 q 207 767 232 771 q 151 736 182 764 m 367 261 q 317 131 350 176 q 244 67 285 85 q 160 53 203 49 q 83 76 118 58 q 25 145 44 96 q 2 256 6 194 q 9 386 -1 318 q 41 512 19 454 q 94 609 63 569 q 163 654 125 649 q 230 654 194 660 q 294 631 265 649 q 343 582 324 614 q 364 501 363 550 l 360 631 q 386 657 360 647 q 446 667 413 667 q 507 658 479 667 q 538 628 535 649 q 536 589 539 621 q 530 512 533 557 q 524 414 526 467 q 523 313 522 361 q 529 228 524 265 q 547 178 535 192 q 581 162 564 158 q 614 183 599 165 q 642 231 629 201 q 664 292 654 260 q 679 355 674 324 q 685 408 685 386 q 697 414 685 411 q 727 416 710 417 q 764 408 744 415 q 796 382 783 400 q 753 227 788 290 q 673 129 719 164 q 574 87 626 94 q 476 97 521 79 q 400 156 431 114 q 367 261 369 197 m 200 157 q 248 160 226 140 q 284 222 269 181 q 307 315 299 263 q 315 417 315 368 q 304 502 314 465 q 274 547 294 539 q 231 535 251 557 q 196 474 211 514 q 172 385 181 435 q 162 290 163 336 q 170 206 161 243 q 200 157 179 169 z "},"":{"ha":625,"x_min":0,"x_max":729,"o":"m 153 736 q 133 731 139 724 q 126 754 126 739 q 128 787 125 769 q 139 810 132 804 q 208 851 178 844 q 263 851 238 858 q 308 827 288 843 q 349 800 329 811 q 392 788 369 789 q 440 810 414 788 q 458 810 451 818 q 467 789 465 803 q 467 760 469 775 q 460 740 465 746 q 399 709 426 713 q 347 714 371 706 q 301 738 324 722 q 256 762 279 753 q 208 767 233 771 q 153 736 183 764 m 6 560 q 58 574 28 568 q 115 580 88 581 q 161 571 142 579 q 183 542 181 563 q 183 515 183 535 q 185 464 183 494 q 240 563 208 526 q 304 611 272 600 q 379 622 340 624 q 449 603 418 619 q 498 556 479 586 q 514 479 517 525 q 499 359 510 426 q 484 232 489 292 q 483 134 479 172 q 513 101 488 96 q 540 126 526 104 q 567 178 554 147 q 591 246 579 210 q 611 315 603 282 q 625 371 619 347 q 632 401 631 394 q 643 403 632 404 q 669 398 654 403 q 700 382 683 393 q 729 353 717 371 q 682 189 706 258 q 626 76 658 119 q 549 16 593 33 q 443 7 506 -1 q 368 40 394 13 q 329 106 342 67 q 316 192 317 144 q 320 290 315 240 q 331 385 325 339 q 339 468 338 432 q 323 524 342 519 q 276 485 304 529 q 247 405 263 463 q 216 281 231 347 q 192 156 201 215 q 182 71 182 97 q 181 69 182 68 q 153 54 176 58 q 103 59 131 50 q 49 94 75 68 q 15 169 24 119 q 6 246 10 204 q 1 331 3 288 q 0 416 0 375 q 1 489 0 457 q 3 540 1 521 q 6 560 4 560 z "},"":{"ha":489,"x_min":-3,"x_max":600,"o":"m 496 400 q 509 402 497 403 q 538 397 521 401 q 572 380 554 392 q 600 350 589 368 q 513 137 560 215 q 413 18 467 58 q 351 -12 386 0 q 276 -26 317 -24 q 265 -65 261 -47 q 282 -99 269 -82 q 309 -133 294 -115 q 330 -172 324 -151 q 328 -217 336 -192 q 288 -274 321 -242 q 264 -283 281 -279 q 231 -285 247 -286 q 208 -279 215 -285 q 213 -262 200 -274 q 242 -219 238 -239 q 241 -180 247 -199 q 222 -144 235 -161 q 198 -108 208 -126 q 185 -69 188 -89 q 197 -25 182 -49 q 144 -10 169 -19 q 100 17 119 0 q 31 117 54 56 q 2 250 7 179 q 8 392 -3 321 q 42 518 18 463 q 128 619 71 586 q 242 649 185 653 q 341 602 299 644 q 383 476 383 560 q 370 451 383 461 q 342 437 357 440 q 314 438 326 433 q 301 461 301 443 q 286 528 301 504 q 253 554 271 551 q 225 534 238 557 q 206 472 213 511 q 196 382 199 432 q 197 281 193 332 q 210 185 200 231 q 236 109 219 139 q 277 71 253 79 q 335 85 301 63 q 392 151 365 107 q 440 242 419 194 q 475 334 461 290 q 496 400 489 378 z "},"":{"ha":678,"x_min":-1,"x_max":796,"o":"m 354 688 q 292 683 322 679 q 236 703 261 688 q 193 742 211 718 q 169 799 175 767 q 169 860 163 829 q 194 918 176 892 q 238 965 211 944 q 296 993 264 985 q 358 997 328 1001 q 414 978 389 993 q 456 938 439 963 q 479 882 474 914 q 478 819 485 850 q 456 763 472 789 q 413 716 439 736 q 354 688 386 696 m 339 753 q 385 797 368 764 q 396 865 401 829 q 365 920 390 901 q 311 928 340 939 q 284 911 296 922 q 265 885 272 900 q 254 851 257 869 q 254 815 251 833 q 284 760 260 779 q 339 753 308 742 m 367 263 q 400 157 369 199 q 476 98 431 115 q 574 88 521 81 q 673 131 626 96 q 753 228 719 165 q 796 383 788 292 q 764 409 783 401 q 727 417 744 417 q 697 415 710 418 q 685 410 685 413 q 679 356 685 388 q 664 293 674 325 q 642 232 654 261 q 614 185 629 203 q 581 163 599 167 q 547 179 564 160 q 529 230 535 193 q 523 315 524 267 q 524 415 522 363 q 530 513 526 468 q 536 590 533 558 q 538 629 539 622 q 507 659 535 650 q 446 668 479 668 q 386 658 413 668 q 360 632 360 649 l 364 503 q 343 583 363 551 q 294 633 324 615 q 230 656 265 650 q 163 656 194 661 q 94 610 125 650 q 41 513 63 571 q 9 388 19 456 q 2 258 -1 319 q 25 147 6 196 q 83 78 44 97 q 160 55 118 60 q 244 68 203 50 q 317 132 285 86 q 367 263 350 178 m 200 158 q 170 208 179 171 q 162 291 161 244 q 172 387 163 338 q 196 476 181 436 q 231 537 211 515 q 274 549 251 558 q 304 503 294 540 q 315 418 314 467 q 307 317 315 369 q 284 223 299 264 q 248 162 269 182 q 200 158 226 142 z "},"":{"ha":606,"x_min":-3,"x_max":710,"o":"m 468 521 q 488 429 482 481 q 493 321 494 378 q 574 333 538 310 q 621 401 610 356 q 639 410 624 413 q 670 398 654 407 q 698 378 686 389 q 708 364 710 368 q 659 289 683 318 q 608 244 635 260 q 550 224 581 228 q 485 222 519 219 q 457 111 476 165 q 413 40 442 69 q 349 -7 385 10 q 274 -28 314 -24 q 196 -25 233 -33 q 181 -69 186 -51 q 172 -93 175 -86 q 158 -109 169 -104 q 133 -112 146 -114 q 108 -105 119 -111 q 97 -89 97 -99 q 103 -60 96 -85 q 124 4 111 -36 q 90 29 104 14 q 26 135 47 71 q 1 269 4 199 q 10 410 -3 340 q 50 533 22 479 q 111 613 79 589 q 174 641 143 638 q 229 632 204 644 q 268 603 254 619 q 283 573 282 588 q 264 556 283 558 q 228 518 244 553 q 202 431 213 483 q 188 319 192 379 q 190 206 185 258 q 246 365 217 283 q 300 517 275 447 q 343 639 325 588 q 368 707 361 690 q 394 729 376 726 q 431 725 413 732 q 462 705 450 718 q 469 679 474 692 q 456 644 467 674 q 426 568 444 615 q 468 521 457 554 m 236 81 q 270 68 251 69 q 313 82 289 67 q 353 143 339 97 q 374 247 368 189 q 318 292 340 263 q 275 183 296 236 q 236 81 254 129 z "},"":{"ha":907,"x_min":-1,"x_max":764,"o":"m 357 1217 q 369 1283 358 1238 q 394 1379 379 1328 q 428 1479 410 1431 q 461 1557 446 1528 q 496 1581 472 1578 q 547 1574 519 1583 q 599 1547 574 1565 q 641 1508 625 1529 q 657 1464 657 1486 q 632 1425 657 1442 q 542 1342 592 1397 q 450 1213 492 1288 q 417 1176 433 1183 q 386 1176 400 1169 q 365 1194 372 1182 q 357 1217 357 1207 m 267 228 q 247 331 254 263 q 236 483 239 399 q 233 659 233 567 q 236 836 233 751 q 243 990 239 921 q 251 1094 247 1058 q 236 1131 253 1115 q 192 1154 219 1147 q 133 1160 165 1161 q 73 1145 101 1158 q 25 1106 44 1132 q 4 1040 6 1081 q 1 889 3 974 q 0 714 -1 804 q 6 535 1 624 q 23 369 11 446 q 54 236 35 293 q 103 154 74 179 q 189 107 140 122 q 278 92 238 92 q 383 131 338 92 q 463 230 429 171 q 519 358 496 289 q 557 488 542 428 q 553 233 557 365 q 542 -15 549 101 q 526 -221 535 -132 q 506 -346 517 -310 q 442 -451 479 -433 q 374 -434 404 -469 q 329 -315 343 -399 q 335 -115 315 -232 q 317 -92 338 -99 q 271 -88 297 -85 q 222 -105 244 -92 q 200 -142 200 -118 q 220 -344 196 -264 q 285 -469 244 -424 q 378 -527 326 -514 q 480 -528 429 -540 q 575 -480 531 -515 q 644 -393 619 -444 q 678 -300 664 -353 q 702 -190 693 -247 q 717 -76 711 -133 q 726 33 722 -18 q 731 125 729 83 q 733 192 732 167 q 740 321 738 256 q 745 442 743 386 q 749 543 747 499 q 750 611 750 588 q 754 788 751 701 q 759 942 757 874 q 763 1057 761 1011 q 764 1114 764 1103 q 732 1149 764 1135 q 660 1163 700 1163 q 588 1149 621 1164 q 554 1096 556 1133 q 553 1022 553 1072 q 554 903 554 971 q 548 808 554 868 q 530 676 542 749 q 500 528 518 604 q 458 384 482 451 q 403 265 433 317 q 339 194 374 214 q 300 192 322 185 q 267 228 278 200 z "},"":{"ha":907,"x_min":0,"x_max":771,"o":"m 357 1217 q 369 1283 358 1238 q 394 1379 379 1328 q 428 1479 410 1431 q 461 1557 446 1528 q 496 1581 472 1578 q 547 1574 519 1583 q 599 1547 574 1565 q 641 1508 625 1529 q 657 1464 657 1486 q 632 1425 657 1442 q 542 1342 592 1397 q 450 1213 492 1288 q 417 1176 433 1183 q 386 1176 400 1169 q 365 1194 372 1182 q 357 1217 357 1207 m 319 21 q 273 28 292 1 q 243 113 254 54 q 228 254 232 171 q 224 431 224 338 q 228 621 225 524 q 238 803 232 718 q 249 957 243 889 q 258 1060 254 1025 q 224 1110 261 1092 q 139 1125 186 1128 q 52 1094 92 1122 q 11 1006 13 1067 q 7 842 10 938 q 2 640 4 746 q 2 428 0 535 q 13 230 4 321 q 38 72 21 139 q 85 -21 56 4 q 127 -52 104 -37 q 176 -76 150 -67 q 231 -87 201 -86 q 290 -79 260 -89 q 394 -14 349 -61 q 474 97 439 33 q 535 233 510 160 q 578 375 561 306 q 584 235 581 306 q 591 106 588 164 q 598 9 594 49 q 606 -37 601 -31 q 638 -56 613 -53 q 688 -53 663 -60 q 734 -33 714 -47 q 751 3 754 -18 q 749 76 749 22 q 749 206 749 129 q 752 373 750 282 q 756 558 754 464 q 761 740 758 651 q 766 901 764 829 q 769 1019 768 972 q 771 1078 771 1067 q 756 1103 771 1092 q 717 1122 740 1115 q 667 1128 694 1128 q 617 1123 640 1129 q 577 1101 593 1117 q 560 1061 561 1086 q 560 987 560 1038 q 561 868 560 936 q 558 735 563 811 q 543 577 554 660 q 514 410 532 494 q 469 250 496 325 q 404 115 442 175 q 319 21 367 54 z "},"":{"ha":936,"x_min":-3,"x_max":776,"o":"m 357 1258 q 369 1324 358 1279 q 394 1421 379 1369 q 428 1521 410 1472 q 461 1599 446 1569 q 496 1622 472 1619 q 547 1616 519 1625 q 599 1589 574 1607 q 641 1549 625 1571 q 657 1506 657 1528 q 632 1467 657 1483 q 542 1384 592 1439 q 450 1254 492 1329 q 417 1218 433 1225 q 386 1217 400 1211 q 365 1236 372 1224 q 357 1258 357 1249 m 219 1003 q 273 1074 240 1043 q 351 1118 306 1104 q 427 1130 389 1129 q 499 1123 465 1131 q 561 1103 533 1115 q 606 1074 589 1090 q 694 943 658 1021 q 750 774 731 865 q 773 583 769 682 q 765 387 776 483 q 728 203 754 290 q 662 49 701 117 q 569 -59 622 -18 q 451 -104 517 -100 q 285 -93 360 -110 q 147 -7 203 -76 q 56 160 90 63 q 10 375 22 258 q 2 603 -3 492 q 28 811 7 715 q 81 965 49 907 q 141 1008 101 1001 q 219 1003 181 1014 m 353 1042 q 317 997 335 1029 q 290 924 300 965 q 277 839 279 883 q 288 757 275 794 q 226 763 253 751 q 217 635 219 704 q 215 495 214 567 q 219 351 215 424 q 233 215 224 279 q 256 99 242 151 q 289 11 269 46 q 333 -34 307 -19 q 385 -47 358 -49 q 438 -26 413 -44 q 479 26 463 -8 q 520 153 503 76 q 547 322 538 231 q 557 511 556 413 q 551 701 558 610 q 527 870 543 792 q 485 999 511 949 q 463 1025 478 1013 q 428 1045 447 1038 q 390 1053 410 1053 q 353 1042 369 1053 z "},"":{"ha":346,"x_min":0,"x_max":363,"o":"m 63 1238 q 74 1303 64 1258 q 100 1400 85 1349 q 133 1500 115 1451 q 167 1578 151 1549 q 201 1601 178 1599 q 252 1595 225 1604 q 305 1568 279 1586 q 347 1528 331 1550 q 363 1485 363 1507 q 338 1446 363 1463 q 247 1363 297 1418 q 156 1233 197 1308 q 122 1197 139 1204 q 92 1197 106 1190 q 70 1215 78 1203 q 63 1238 63 1228 m 47 -115 q 79 -134 54 -131 q 130 -131 104 -137 q 176 -110 156 -125 q 193 -74 196 -94 q 190 4 190 -53 q 191 142 190 61 q 194 318 192 222 q 198 513 196 414 q 203 706 200 613 q 208 876 206 800 q 211 1001 210 951 q 213 1063 213 1051 q 197 1090 213 1078 q 159 1108 182 1101 q 109 1116 136 1115 q 58 1110 82 1117 q 19 1087 35 1103 q 1 1044 3 1071 q 1 954 0 1017 q 3 808 1 892 q 8 626 6 724 q 13 428 10 528 q 21 235 17 329 q 29 67 25 142 q 38 -56 33 -7 q 47 -115 43 -106 z "},"":{"ha":654,"x_min":-94,"x_max":792,"o":"m 233 1244 q 245 1310 235 1265 q 271 1407 256 1356 q 304 1507 286 1458 q 338 1585 322 1556 q 372 1608 349 1606 q 423 1602 396 1611 q 476 1575 450 1593 q 517 1535 501 1557 q 533 1492 533 1514 q 508 1453 533 1469 q 418 1370 468 1425 q 326 1240 368 1315 q 293 1204 310 1211 q 263 1203 276 1197 q 241 1222 249 1210 q 233 1244 233 1235 m -14 -46 q 35 -36 4 -43 q 106 -19 65 -29 l 104 -19 q 74 344 86 13 q 37 344 54 344 q 6 343 19 344 q 3 383 0 368 q 13 407 6 399 q 27 418 19 415 q 39 421 35 421 q 55 424 47 422 q 71 426 63 425 q 65 603 68 515 q 61 767 63 690 q 59 902 60 843 q 58 992 58 961 q -20 995 15 994 q -83 993 -56 996 q -94 1040 -94 1022 q -87 1066 -93 1057 q -72 1078 -81 1075 q -54 1081 -62 1081 q 197 1097 71 1093 q 435 1108 324 1101 q 632 1133 546 1115 q 761 1192 718 1151 q 783 1186 774 1204 q 791 1135 792 1168 q 776 1064 790 1103 q 729 996 763 1025 q 669 972 711 979 q 566 965 626 965 q 429 970 506 965 q 268 981 353 975 q 265 890 267 946 q 262 763 264 833 q 258 611 260 692 q 254 450 256 531 q 384 471 328 460 q 468 503 440 482 q 490 490 481 511 q 497 439 499 469 q 479 380 494 408 q 428 344 464 351 q 351 338 397 339 q 251 339 304 338 q 248 125 249 199 q 250 21 247 51 q 250 13 251 17 q 463 57 386 43 q 572 44 540 71 q 613 -12 601 19 q 626 -72 625 -44 q 617 -114 626 -99 q 596 -121 608 -129 q 505 -94 563 -99 q 372 -97 447 -90 q 206 -113 296 -103 q 18 -128 115 -124 q 4 -127 11 -128 q -8 -118 -3 -126 q -16 -93 -14 -110 q -14 -46 -18 -76 z "},"":{"ha":1025,"x_min":1,"x_max":975,"o":"m 675 1271 q 687 1337 676 1292 q 713 1433 697 1382 q 746 1533 728 1485 q 779 1611 764 1582 q 814 1635 790 1632 q 865 1628 838 1638 q 917 1601 892 1619 q 959 1562 943 1583 q 975 1518 975 1540 q 950 1479 975 1496 q 860 1397 910 1451 q 768 1267 810 1342 q 735 1231 751 1238 q 704 1230 718 1224 q 683 1249 690 1236 q 675 1271 675 1261 m 590 1113 q 637 1124 597 1122 q 722 1113 676 1125 q 805 1076 768 1101 q 844 1006 842 1050 q 848 947 846 994 q 853 830 850 900 q 860 672 856 760 q 868 494 864 585 q 876 313 872 403 q 885 149 881 224 q 894 20 890 74 q 901 -54 899 -33 q 886 -92 906 -76 q 841 -113 867 -107 q 790 -116 815 -119 q 757 -97 765 -112 q 744 -31 751 -86 q 726 107 736 24 q 578 177 661 151 q 408 215 496 203 q 350 48 376 119 q 308 -51 324 -24 q 260 -107 288 -90 q 203 -126 232 -124 q 148 -119 175 -128 q 102 -99 121 -111 q 75 -75 83 -87 q 76 -57 67 -62 q 146 37 104 -40 q 236 226 188 114 q 156 224 194 226 q 83 215 117 221 q 44 236 60 211 q 18 292 28 261 q 5 350 8 324 q 1 376 1 376 q 135 392 57 393 q 300 376 213 392 q 365 540 332 456 q 428 702 399 624 q 485 852 458 781 q 534 978 513 924 q 570 1069 556 1033 q 590 1113 585 1104 m 713 235 q 694 440 703 332 q 676 647 685 547 q 663 828 668 746 q 654 960 657 911 q 642 931 651 957 q 618 859 633 904 q 583 753 603 814 q 542 625 564 693 q 497 485 521 557 q 450 342 474 413 q 588 294 521 321 q 713 235 656 267 z "},"":{"ha":907,"x_min":0,"x_max":788,"o":"m 258 1236 q 197 1227 226 1225 q 142 1243 167 1229 q 99 1280 117 1257 q 75 1335 81 1303 q 75 1397 68 1365 q 99 1455 82 1428 q 142 1503 117 1482 q 200 1536 168 1525 q 263 1544 232 1546 q 318 1528 293 1542 q 360 1491 343 1514 q 385 1438 378 1468 q 383 1374 390 1406 q 360 1316 376 1343 q 317 1267 343 1289 q 258 1236 290 1246 m 657 1236 q 594 1227 625 1225 q 539 1243 564 1229 q 496 1280 514 1257 q 472 1335 478 1303 q 474 1397 467 1365 q 497 1455 481 1428 q 540 1503 514 1482 q 597 1536 565 1525 q 660 1544 629 1546 q 715 1528 690 1542 q 758 1491 740 1514 q 782 1438 775 1468 q 781 1374 788 1406 q 758 1316 775 1343 q 715 1267 740 1289 q 657 1236 689 1246 m 319 21 q 404 115 367 54 q 469 250 442 175 q 514 410 496 325 q 543 577 532 494 q 558 735 554 660 q 561 868 563 811 q 560 987 560 936 q 560 1061 560 1038 q 577 1101 561 1086 q 617 1123 593 1117 q 667 1128 640 1129 q 717 1122 694 1128 q 756 1103 740 1115 q 771 1078 771 1092 q 769 1019 771 1067 q 766 901 768 972 q 761 740 764 829 q 756 558 758 651 q 752 373 754 464 q 749 206 750 282 q 749 76 749 129 q 751 3 749 22 q 734 -33 754 -18 q 688 -53 714 -47 q 638 -56 663 -60 q 606 -37 613 -53 q 598 9 601 -31 q 591 106 594 49 q 584 235 588 164 q 578 375 581 306 q 535 233 561 306 q 474 97 510 160 q 394 -14 439 33 q 290 -79 349 -61 q 231 -87 260 -89 q 176 -76 201 -86 q 127 -52 150 -67 q 85 -21 104 -37 q 38 72 56 4 q 13 230 21 139 q 2 428 4 321 q 2 640 0 535 q 7 842 4 746 q 11 1006 10 938 q 52 1094 13 1067 q 139 1125 92 1122 q 224 1110 186 1128 q 258 1060 261 1092 q 249 957 254 1025 q 238 803 243 889 q 228 621 232 718 q 224 431 225 524 q 228 254 224 338 q 243 113 232 171 q 273 28 254 54 q 319 21 292 1 z "},"":{"ha":907,"x_min":-1,"x_max":788,"o":"m 258 1236 q 197 1227 226 1225 q 142 1243 167 1229 q 99 1280 117 1257 q 75 1335 81 1303 q 75 1397 68 1365 q 99 1455 82 1428 q 142 1503 117 1482 q 200 1536 168 1525 q 263 1544 232 1546 q 318 1528 293 1542 q 360 1491 343 1514 q 385 1438 378 1468 q 383 1374 390 1406 q 360 1316 376 1343 q 317 1267 343 1289 q 258 1236 290 1246 m 657 1236 q 594 1227 625 1225 q 539 1243 564 1229 q 496 1280 514 1257 q 472 1335 478 1303 q 474 1397 467 1365 q 497 1455 481 1428 q 540 1503 514 1482 q 597 1536 565 1525 q 660 1544 629 1546 q 715 1528 690 1542 q 758 1491 740 1514 q 782 1438 775 1468 q 781 1374 788 1406 q 758 1316 775 1343 q 715 1267 740 1289 q 657 1236 689 1246 m 267 228 q 300 192 278 200 q 339 194 322 185 q 403 265 374 214 q 458 384 433 317 q 500 528 482 451 q 530 676 518 604 q 548 808 542 749 q 554 903 554 868 q 553 1022 554 971 q 554 1096 553 1072 q 588 1149 556 1133 q 660 1163 621 1164 q 732 1149 700 1163 q 764 1114 764 1135 q 763 1057 764 1103 q 759 942 761 1011 q 754 788 757 874 q 750 611 751 701 q 749 543 750 588 q 745 442 747 499 q 740 321 743 386 q 733 192 738 256 q 731 125 732 167 q 726 33 729 83 q 717 -76 722 -18 q 702 -190 711 -133 q 678 -300 693 -247 q 644 -393 664 -353 q 575 -480 619 -444 q 480 -528 531 -515 q 378 -527 429 -540 q 285 -469 326 -514 q 220 -344 244 -424 q 200 -142 196 -264 q 222 -105 200 -118 q 271 -88 244 -92 q 317 -92 297 -85 q 335 -115 338 -99 q 329 -315 315 -232 q 374 -434 343 -399 q 442 -451 404 -469 q 506 -346 479 -433 q 526 -221 517 -310 q 542 -15 535 -132 q 553 233 549 101 q 557 488 557 365 q 519 358 542 428 q 463 230 496 289 q 383 131 429 171 q 278 92 338 92 q 189 107 238 92 q 103 154 140 122 q 54 236 74 179 q 23 369 35 293 q 6 535 11 446 q 0 714 1 624 q 1 889 -1 804 q 4 1040 3 974 q 25 1106 6 1081 q 73 1145 44 1132 q 133 1160 101 1158 q 192 1154 165 1161 q 236 1131 219 1147 q 251 1094 253 1115 q 243 990 247 1058 q 236 836 239 921 q 233 659 233 751 q 236 483 233 567 q 247 331 239 399 q 267 228 254 263 z "},"":{"ha":936,"x_min":-3,"x_max":788,"o":"m 258 1236 q 197 1227 226 1225 q 142 1243 167 1229 q 99 1280 117 1257 q 75 1335 81 1303 q 75 1397 68 1365 q 99 1455 82 1428 q 142 1503 117 1482 q 200 1536 168 1525 q 263 1544 232 1546 q 318 1528 293 1542 q 360 1491 343 1514 q 385 1438 378 1468 q 383 1374 390 1406 q 360 1316 376 1343 q 317 1267 343 1289 q 258 1236 290 1246 m 657 1236 q 594 1227 625 1225 q 539 1243 564 1229 q 496 1280 514 1257 q 472 1335 478 1303 q 474 1397 467 1365 q 497 1455 481 1428 q 540 1503 514 1482 q 597 1536 565 1525 q 660 1544 629 1546 q 715 1528 690 1542 q 758 1491 740 1514 q 782 1438 775 1468 q 781 1374 788 1406 q 758 1316 775 1343 q 715 1267 740 1289 q 657 1236 689 1246 m 219 1003 q 273 1074 240 1043 q 351 1118 306 1104 q 427 1130 389 1129 q 499 1123 465 1131 q 561 1103 533 1115 q 606 1074 589 1090 q 694 943 658 1021 q 750 774 731 865 q 773 583 769 682 q 765 387 776 483 q 728 203 754 290 q 662 49 701 117 q 569 -59 622 -18 q 451 -104 517 -100 q 285 -93 360 -110 q 147 -7 203 -76 q 56 160 90 63 q 10 375 22 258 q 2 603 -3 492 q 28 811 7 715 q 81 965 49 907 q 141 1008 101 1001 q 219 1003 181 1014 m 353 1042 q 317 997 335 1029 q 290 924 300 965 q 277 839 279 883 q 288 757 275 794 q 226 763 253 751 q 217 635 219 704 q 215 495 214 567 q 219 351 215 424 q 233 215 224 279 q 256 99 242 151 q 289 11 269 46 q 333 -34 307 -19 q 385 -47 358 -49 q 438 -26 413 -44 q 479 26 463 -8 q 520 153 503 76 q 547 322 538 231 q 557 511 556 413 q 551 701 558 610 q 527 870 543 792 q 485 999 511 949 q 463 1025 478 1013 q 428 1045 447 1038 q 390 1053 410 1053 q 353 1042 369 1053 z "},"":{"ha":346,"x_min":-232,"x_max":488,"o":"m -42 1225 q -103 1216 -74 1214 q -158 1232 -133 1218 q -201 1269 -183 1246 q -225 1324 -219 1292 q -225 1385 -232 1354 q -201 1444 -218 1417 q -158 1492 -183 1471 q -100 1525 -132 1514 q -37 1533 -68 1535 q 18 1517 -7 1531 q 60 1480 43 1503 q 85 1426 78 1457 q 83 1363 90 1394 q 60 1305 76 1332 q 17 1256 43 1278 q -42 1225 -10 1235 m 357 1225 q 294 1216 325 1214 q 239 1232 264 1218 q 196 1269 214 1246 q 172 1324 178 1292 q 174 1385 167 1354 q 197 1444 181 1417 q 240 1492 214 1471 q 297 1525 265 1514 q 360 1533 329 1535 q 415 1517 390 1531 q 458 1480 440 1503 q 482 1426 475 1457 q 481 1363 488 1394 q 458 1305 475 1332 q 415 1256 440 1278 q 357 1225 389 1235 m 47 -115 q 38 -56 43 -106 q 29 67 33 -7 q 21 235 25 142 q 13 428 17 329 q 8 626 10 528 q 3 808 6 724 q 1 954 1 892 q 1 1044 0 1017 q 19 1087 3 1071 q 58 1110 35 1103 q 109 1116 82 1117 q 159 1108 136 1115 q 197 1090 182 1101 q 213 1063 213 1078 q 211 1001 213 1051 q 208 876 210 951 q 203 706 206 800 q 198 513 200 613 q 194 318 196 414 q 191 142 192 222 q 190 4 190 61 q 193 -74 190 -53 q 176 -110 196 -94 q 130 -131 156 -125 q 79 -134 104 -137 q 47 -115 54 -131 z "},"":{"ha":654,"x_min":-94,"x_max":792,"o":"m 151 1239 q 90 1230 119 1228 q 35 1246 60 1232 q -8 1283 10 1260 q -32 1338 -26 1306 q -32 1399 -39 1368 q -8 1458 -25 1431 q 35 1506 10 1485 q 93 1539 61 1528 q 156 1547 125 1549 q 211 1531 186 1544 q 253 1494 236 1517 q 278 1440 271 1471 q 276 1377 283 1408 q 253 1319 269 1346 q 210 1270 236 1292 q 151 1239 183 1249 m 550 1239 q 488 1230 518 1228 q 432 1246 457 1232 q 389 1283 407 1260 q 365 1338 371 1306 q 367 1399 360 1368 q 390 1458 374 1431 q 433 1506 407 1485 q 490 1539 458 1528 q 553 1547 522 1549 q 608 1531 583 1544 q 651 1494 633 1517 q 675 1440 668 1471 q 674 1377 681 1408 q 651 1319 668 1346 q 608 1270 633 1292 q 550 1239 582 1249 m -14 -46 q 35 -36 4 -43 q 106 -19 65 -29 l 104 -19 q 74 344 86 13 q 37 344 54 344 q 6 343 19 344 q 3 383 0 368 q 13 407 6 399 q 27 418 19 415 q 39 421 35 421 q 55 424 47 422 q 71 426 63 425 q 65 603 68 515 q 61 767 63 690 q 59 902 60 843 q 58 992 58 961 q -20 995 15 994 q -83 993 -56 996 q -94 1040 -94 1022 q -87 1066 -93 1057 q -72 1078 -81 1075 q -54 1081 -62 1081 q 197 1097 71 1093 q 435 1108 324 1101 q 632 1133 546 1115 q 761 1192 718 1151 q 783 1186 774 1204 q 791 1135 792 1168 q 776 1064 790 1103 q 729 996 763 1025 q 669 972 711 979 q 566 965 626 965 q 429 970 506 965 q 268 981 353 975 q 265 890 267 946 q 262 763 264 833 q 258 611 260 692 q 254 450 256 531 q 384 471 328 460 q 468 503 440 482 q 490 490 481 511 q 497 439 499 469 q 479 380 494 408 q 428 344 464 351 q 351 338 397 339 q 251 339 304 338 q 248 125 249 199 q 250 21 247 51 q 250 13 251 17 q 463 57 386 43 q 572 44 540 71 q 613 -12 601 19 q 626 -72 625 -44 q 617 -114 626 -99 q 596 -121 608 -129 q 505 -94 563 -99 q 372 -97 447 -90 q 206 -113 296 -103 q 18 -128 115 -124 q 4 -127 11 -128 q -8 -118 -3 -126 q -16 -93 -14 -110 q -14 -46 -18 -76 z "},"":{"ha":1025,"x_min":1,"x_max":1078,"o":"m 549 1239 q 487 1230 517 1228 q 432 1246 457 1232 q 389 1283 407 1260 q 365 1338 371 1306 q 365 1399 358 1368 q 390 1458 372 1431 q 433 1506 407 1485 q 490 1539 458 1528 q 553 1547 522 1549 q 608 1531 583 1544 q 651 1494 633 1517 q 675 1440 668 1471 q 674 1377 681 1408 q 650 1319 667 1346 q 607 1270 633 1292 q 549 1239 581 1249 m 947 1239 q 885 1230 915 1228 q 829 1246 854 1232 q 786 1283 804 1260 q 763 1338 768 1306 q 764 1399 757 1368 q 788 1458 771 1431 q 830 1506 804 1485 q 888 1539 856 1528 q 950 1547 919 1549 q 1006 1531 981 1544 q 1048 1494 1031 1517 q 1072 1440 1065 1471 q 1072 1377 1078 1408 q 1048 1319 1065 1346 q 1005 1270 1031 1292 q 947 1239 979 1249 m 590 1113 q 637 1124 597 1122 q 722 1113 676 1125 q 805 1076 768 1101 q 844 1006 842 1050 q 848 947 846 994 q 853 830 850 900 q 860 672 856 760 q 868 494 864 585 q 876 313 872 403 q 885 149 881 224 q 894 20 890 74 q 901 -54 899 -33 q 886 -92 906 -76 q 841 -113 867 -107 q 790 -116 815 -119 q 757 -97 765 -112 q 744 -31 751 -86 q 726 107 736 24 q 578 177 661 151 q 408 215 496 203 q 350 48 376 119 q 308 -51 324 -24 q 260 -107 288 -90 q 203 -126 232 -124 q 148 -119 175 -128 q 102 -99 121 -111 q 75 -75 83 -87 q 76 -57 67 -62 q 146 37 104 -40 q 236 226 188 114 q 156 224 194 226 q 83 215 117 221 q 44 236 60 211 q 18 292 28 261 q 5 350 8 324 q 1 376 1 376 q 135 392 57 393 q 300 376 213 392 q 365 540 332 456 q 428 702 399 624 q 485 852 458 781 q 534 978 513 924 q 570 1069 556 1033 q 590 1113 585 1104 m 713 235 q 694 440 703 332 q 676 647 685 547 q 663 828 668 746 q 654 960 657 911 q 642 931 651 957 q 618 859 633 904 q 583 753 603 814 q 542 625 564 693 q 497 485 521 557 q 450 342 474 413 q 588 294 521 321 q 713 235 656 267 z "},"":{"ha":857,"x_min":-1,"x_max":831,"o":"m 543 1549 q 576 1559 549 1560 q 632 1551 604 1558 q 678 1531 660 1543 q 688 1511 697 1519 q 625 1440 658 1488 q 562 1343 592 1393 q 510 1250 532 1293 q 479 1190 488 1207 q 463 1186 478 1188 q 431 1185 449 1185 q 399 1188 414 1186 q 382 1194 383 1190 q 344 1278 369 1226 q 290 1379 319 1329 q 231 1470 261 1429 q 174 1522 200 1511 q 164 1536 158 1529 q 186 1550 169 1543 q 228 1563 203 1557 q 276 1570 253 1568 q 317 1571 299 1572 q 340 1563 336 1569 q 373 1503 357 1539 q 402 1433 389 1468 q 424 1370 415 1399 q 438 1333 433 1342 q 449 1357 438 1333 q 476 1415 460 1381 q 511 1487 493 1450 q 543 1549 529 1524 m 543 972 q 385 957 464 967 q 239 941 306 947 q 124 937 172 935 q 58 958 76 939 q 16 1031 29 988 q 1 1110 3 1074 q 6 1169 -1 1147 q 24 1179 13 1192 q 99 1137 49 1151 q 214 1115 149 1122 q 356 1107 279 1108 q 511 1106 432 1106 q 668 1108 590 1107 q 813 1107 746 1110 q 828 1077 825 1107 q 815 994 831 1047 q 814 987 814 990 q 811 981 814 983 q 767 908 804 968 q 676 760 731 849 q 557 567 622 672 q 428 357 492 461 q 310 161 365 253 q 221 8 256 69 q 358 42 285 25 q 497 70 432 60 q 610 82 561 81 q 676 68 660 83 q 713 10 701 43 q 724 -49 724 -22 q 716 -92 724 -76 q 697 -99 708 -107 q 605 -73 668 -75 q 460 -78 542 -71 q 285 -98 378 -86 q 106 -115 193 -110 q 87 -109 100 -115 q 61 -88 74 -103 q 40 -52 49 -74 q 36 1 32 -31 q 67 74 38 13 q 142 225 96 135 q 246 422 189 315 q 359 633 303 529 q 464 828 415 738 q 543 972 513 918 z "},"":{"ha":886,"x_min":-3,"x_max":767,"o":"m 503 1546 q 536 1556 508 1557 q 592 1548 564 1556 q 638 1528 619 1540 q 647 1508 657 1517 q 585 1438 618 1485 q 522 1340 551 1390 q 469 1247 492 1290 q 439 1188 447 1204 q 423 1183 438 1185 q 391 1183 408 1182 q 358 1185 374 1183 q 342 1192 343 1188 q 304 1275 329 1224 q 250 1376 279 1326 q 190 1467 221 1426 q 133 1519 160 1508 q 124 1533 118 1526 q 146 1547 129 1540 q 188 1560 163 1554 q 235 1567 213 1565 q 277 1568 258 1569 q 300 1560 296 1567 q 333 1501 317 1536 q 362 1431 349 1465 q 384 1367 375 1396 q 397 1331 393 1339 q 408 1354 397 1331 q 436 1413 419 1378 q 471 1484 453 1447 q 503 1546 489 1521 m 533 650 q 560 874 569 788 q 517 1004 551 961 q 431 1049 482 1047 q 334 1019 381 1051 q 255 924 288 988 q 224 774 222 861 q 246 677 224 724 q 302 586 268 631 q 379 498 336 542 q 465 410 422 454 q 547 319 508 365 q 613 221 586 272 q 646 106 642 165 q 634 -6 650 47 q 585 -105 618 -60 q 505 -177 551 -150 q 401 -211 458 -204 q 279 -194 343 -218 q 186 -128 225 -175 q 138 -1 147 -81 q 144 49 133 28 q 172 85 154 71 q 210 104 189 99 q 250 108 232 110 q 279 99 268 107 q 288 75 290 90 q 285 -34 276 11 q 314 -104 294 -79 q 360 -136 333 -129 q 411 -133 388 -143 q 452 -94 435 -122 q 471 -21 469 -65 q 441 115 474 53 q 357 233 408 176 q 245 343 306 289 q 131 454 185 397 q 41 574 78 511 q 1 713 4 638 q 35 888 -3 810 q 135 1019 72 965 q 276 1101 197 1072 q 434 1130 356 1131 q 583 1097 513 1129 q 700 999 654 1065 q 753 858 740 940 q 733 675 767 776 q 686 621 721 638 q 615 604 651 604 q 553 617 579 604 q 533 650 528 631 z "},"":{"ha":907,"x_min":0,"x_max":771,"o":"m 300 1240 q 266 1230 293 1229 q 211 1238 239 1231 q 164 1258 183 1246 q 156 1278 144 1269 q 217 1349 185 1301 q 280 1446 250 1396 q 333 1539 310 1496 q 364 1599 356 1582 q 380 1603 365 1601 q 412 1603 394 1604 q 444 1601 429 1603 q 460 1594 458 1599 q 497 1511 472 1563 q 551 1410 522 1460 q 612 1319 581 1360 q 669 1267 643 1278 q 678 1253 683 1260 q 656 1239 674 1246 q 615 1226 639 1232 q 567 1219 590 1221 q 525 1218 543 1217 q 503 1226 507 1219 q 469 1285 486 1250 q 440 1356 453 1321 q 417 1419 426 1390 q 406 1456 408 1447 q 394 1432 406 1456 q 367 1374 383 1408 q 332 1302 350 1339 q 300 1240 314 1265 m 319 21 q 404 115 367 54 q 469 250 442 175 q 514 410 496 325 q 543 577 532 494 q 558 735 554 660 q 561 868 563 811 q 560 987 560 936 q 560 1061 560 1038 q 577 1101 561 1086 q 617 1123 593 1117 q 667 1128 640 1129 q 717 1122 694 1128 q 756 1103 740 1115 q 771 1078 771 1092 q 769 1019 771 1067 q 766 901 768 972 q 761 740 764 829 q 756 558 758 651 q 752 373 754 464 q 749 206 750 282 q 749 76 749 129 q 751 3 749 22 q 734 -33 754 -18 q 688 -53 714 -47 q 638 -56 663 -60 q 606 -37 613 -53 q 598 9 601 -31 q 591 106 594 49 q 584 235 588 164 q 578 375 581 306 q 535 233 561 306 q 474 97 510 160 q 394 -14 439 33 q 290 -79 349 -61 q 231 -87 260 -89 q 176 -76 201 -86 q 127 -52 150 -67 q 85 -21 104 -37 q 38 72 56 4 q 13 230 21 139 q 2 428 4 321 q 2 640 0 535 q 7 842 4 746 q 11 1006 10 938 q 52 1094 13 1067 q 139 1125 92 1122 q 224 1110 186 1128 q 258 1060 261 1092 q 249 957 254 1025 q 238 803 243 889 q 228 621 232 718 q 224 431 225 524 q 228 254 224 338 q 243 113 232 171 q 273 28 254 54 q 319 21 292 1 z "},"":{"ha":936,"x_min":-3,"x_max":776,"o":"m 300 1240 q 266 1230 293 1229 q 211 1238 239 1231 q 164 1258 183 1246 q 156 1278 144 1269 q 217 1349 185 1301 q 280 1446 250 1396 q 333 1539 310 1496 q 364 1599 356 1582 q 380 1603 365 1601 q 412 1603 394 1604 q 444 1601 429 1603 q 460 1594 458 1599 q 497 1511 472 1563 q 551 1410 522 1460 q 612 1319 581 1360 q 669 1267 643 1278 q 678 1253 683 1260 q 656 1239 674 1246 q 615 1226 639 1232 q 567 1219 590 1221 q 525 1218 543 1217 q 503 1226 507 1219 q 469 1285 486 1250 q 440 1356 453 1321 q 417 1419 426 1390 q 406 1456 408 1447 q 394 1432 406 1456 q 367 1374 383 1408 q 332 1302 350 1339 q 300 1240 314 1265 m 219 1003 q 273 1074 240 1043 q 351 1118 306 1104 q 427 1130 389 1129 q 499 1123 465 1131 q 561 1103 533 1115 q 606 1074 589 1090 q 694 943 658 1021 q 750 774 731 865 q 773 583 769 682 q 765 387 776 483 q 728 203 754 290 q 662 49 701 117 q 569 -59 622 -18 q 451 -104 517 -100 q 285 -93 360 -110 q 147 -7 203 -76 q 56 160 90 63 q 10 375 22 258 q 2 603 -3 492 q 28 811 7 715 q 81 965 49 907 q 141 1008 101 1001 q 219 1003 181 1014 m 353 1042 q 317 997 335 1029 q 290 924 300 965 q 277 839 279 883 q 288 757 275 794 q 226 763 253 751 q 217 635 219 704 q 215 495 214 567 q 219 351 215 424 q 233 215 224 279 q 256 99 242 151 q 289 11 269 46 q 333 -34 307 -19 q 385 -47 358 -49 q 438 -26 413 -44 q 479 26 463 -8 q 520 153 503 76 q 547 322 538 231 q 557 511 556 413 q 551 701 558 610 q 527 870 543 792 q 485 999 511 949 q 463 1025 478 1013 q 428 1045 447 1038 q 390 1053 410 1053 q 353 1042 369 1053 z "},"":{"ha":346,"x_min":-133,"x_max":406,"o":"m 22 1232 q -12 1222 15 1221 q -67 1230 -39 1222 q -114 1249 -94 1238 q -122 1269 -133 1261 q -60 1340 -93 1293 q 2 1438 -28 1388 q 55 1531 32 1488 q 86 1590 78 1574 q 102 1594 88 1593 q 134 1595 117 1596 q 166 1592 151 1594 q 182 1586 181 1590 q 219 1503 194 1554 q 274 1401 244 1451 q 334 1310 303 1351 q 392 1258 365 1269 q 401 1244 406 1251 q 378 1231 396 1238 q 337 1218 361 1224 q 289 1210 313 1213 q 247 1210 265 1208 q 225 1218 229 1211 q 192 1277 208 1242 q 162 1347 175 1313 q 140 1410 149 1382 q 128 1447 131 1439 q 117 1424 128 1447 q 89 1365 106 1400 q 54 1294 72 1331 q 22 1232 36 1257 m 47 -115 q 38 -56 43 -106 q 29 67 33 -7 q 21 235 25 142 q 13 428 17 329 q 8 626 10 528 q 3 808 6 724 q 1 954 1 892 q 1 1044 0 1017 q 19 1087 3 1071 q 58 1110 35 1103 q 109 1116 82 1117 q 159 1108 136 1115 q 197 1090 182 1101 q 213 1063 213 1078 q 211 1001 213 1051 q 208 876 210 951 q 203 706 206 800 q 198 513 200 613 q 194 318 196 414 q 191 142 192 222 q 190 4 190 61 q 193 -74 190 -53 q 176 -110 196 -94 q 130 -131 156 -125 q 79 -134 104 -137 q 47 -115 54 -131 z "},"":{"ha":654,"x_min":-94,"x_max":792,"o":"m 219 1229 q 185 1219 213 1218 q 131 1227 158 1219 q 83 1247 103 1235 q 75 1267 64 1258 q 137 1338 104 1290 q 199 1435 169 1385 q 252 1528 229 1485 q 283 1588 275 1571 q 299 1592 285 1590 q 331 1592 314 1593 q 363 1590 349 1592 q 379 1583 378 1588 q 417 1500 392 1551 q 471 1399 442 1449 q 531 1308 500 1349 q 589 1256 563 1267 q 598 1242 603 1249 q 576 1228 593 1235 q 534 1215 558 1221 q 486 1208 510 1210 q 444 1207 463 1206 q 422 1215 426 1208 q 389 1274 406 1239 q 359 1344 372 1310 q 337 1408 346 1379 q 325 1444 328 1436 q 314 1421 325 1444 q 286 1363 303 1397 q 251 1291 269 1328 q 219 1229 233 1254 m -14 -46 q 35 -36 4 -43 q 106 -19 65 -29 l 104 -19 q 74 344 86 13 q 37 344 54 344 q 6 343 19 344 q 3 383 0 368 q 13 407 6 399 q 27 418 19 415 q 39 421 35 421 q 55 424 47 422 q 71 426 63 425 q 65 603 68 515 q 61 767 63 690 q 59 902 60 843 q 58 992 58 961 q -20 995 15 994 q -83 993 -56 996 q -94 1040 -94 1022 q -87 1066 -93 1057 q -72 1078 -81 1075 q -54 1081 -62 1081 q 197 1097 71 1093 q 435 1108 324 1101 q 632 1133 546 1115 q 761 1192 718 1151 q 783 1186 774 1204 q 791 1135 792 1168 q 776 1064 790 1103 q 729 996 763 1025 q 669 972 711 979 q 566 965 626 965 q 429 970 506 965 q 268 981 353 975 q 265 890 267 946 q 262 763 264 833 q 258 611 260 692 q 254 450 256 531 q 384 471 328 460 q 468 503 440 482 q 490 490 481 511 q 497 439 499 469 q 479 380 494 408 q 428 344 464 351 q 351 338 397 339 q 251 339 304 338 q 248 125 249 199 q 250 21 247 51 q 250 13 251 17 q 463 57 386 43 q 572 44 540 71 q 613 -12 601 19 q 626 -72 625 -44 q 617 -114 626 -99 q 596 -121 608 -129 q 505 -94 563 -99 q 372 -97 447 -90 q 206 -113 296 -103 q 18 -128 115 -124 q 4 -127 11 -128 q -8 -118 -3 -126 q -16 -93 -14 -110 q -14 -46 -18 -76 z "},"":{"ha":1025,"x_min":1,"x_max":1004,"o":"m 621 1233 q 587 1223 614 1222 q 532 1231 560 1224 q 485 1251 504 1239 q 476 1271 465 1263 q 538 1342 506 1294 q 601 1439 571 1389 q 653 1532 631 1489 q 685 1592 676 1575 q 701 1596 686 1594 q 733 1597 715 1597 q 765 1594 750 1596 q 781 1588 779 1592 q 818 1504 793 1556 q 872 1403 843 1453 q 933 1312 901 1353 q 990 1260 964 1271 q 999 1246 1004 1253 q 977 1232 994 1239 q 935 1219 960 1225 q 888 1212 911 1214 q 846 1211 864 1210 q 824 1219 828 1213 q 790 1278 807 1243 q 760 1349 774 1314 q 738 1412 747 1383 q 726 1449 729 1440 q 715 1425 726 1449 q 688 1367 704 1401 q 653 1295 671 1332 q 621 1233 635 1258 m 590 1113 q 637 1124 597 1122 q 722 1113 676 1125 q 805 1076 768 1101 q 844 1006 842 1050 q 848 947 846 994 q 853 830 850 900 q 860 672 856 760 q 868 494 864 585 q 876 313 872 403 q 885 149 881 224 q 894 20 890 74 q 901 -54 899 -33 q 886 -92 906 -76 q 841 -113 867 -107 q 790 -116 815 -119 q 757 -97 765 -112 q 744 -31 751 -86 q 726 107 736 24 q 578 177 661 151 q 408 215 496 203 q 350 48 376 119 q 308 -51 324 -24 q 260 -107 288 -90 q 203 -126 232 -124 q 148 -119 175 -128 q 102 -99 121 -111 q 75 -75 83 -87 q 76 -57 67 -62 q 146 37 104 -40 q 236 226 188 114 q 156 224 194 226 q 83 215 117 221 q 44 236 60 211 q 18 292 28 261 q 5 350 8 324 q 1 376 1 376 q 135 392 57 393 q 300 376 213 392 q 365 540 332 456 q 428 702 399 624 q 485 852 458 781 q 534 978 513 924 q 570 1069 556 1033 q 590 1113 585 1104 m 713 235 q 694 440 703 332 q 676 647 685 547 q 663 828 668 746 q 654 960 657 911 q 642 931 651 957 q 618 859 633 904 q 583 753 603 814 q 542 625 564 693 q 497 485 521 557 q 450 342 474 413 q 588 294 521 321 q 713 235 656 267 z "},"":{"ha":907,"x_min":0,"x_max":771,"o":"m 444 1217 q 437 1194 444 1207 q 415 1176 429 1182 q 385 1176 401 1169 q 351 1213 368 1183 q 260 1342 310 1288 q 169 1425 210 1397 q 144 1464 144 1442 q 160 1508 144 1486 q 202 1547 176 1529 q 255 1574 228 1565 q 306 1581 282 1583 q 340 1557 329 1578 q 374 1479 356 1528 q 407 1379 392 1431 q 433 1283 422 1328 q 444 1217 443 1238 m 319 21 q 404 115 367 54 q 469 250 442 175 q 514 410 496 325 q 543 577 532 494 q 558 735 554 660 q 561 868 563 811 q 560 987 560 936 q 560 1061 560 1038 q 577 1101 561 1086 q 617 1123 593 1117 q 667 1128 640 1129 q 717 1122 694 1128 q 756 1103 740 1115 q 771 1078 771 1092 q 769 1019 771 1067 q 766 901 768 972 q 761 740 764 829 q 756 558 758 651 q 752 373 754 464 q 749 206 750 282 q 749 76 749 129 q 751 3 749 22 q 734 -33 754 -18 q 688 -53 714 -47 q 638 -56 663 -60 q 606 -37 613 -53 q 598 9 601 -31 q 591 106 594 49 q 584 235 588 164 q 578 375 581 306 q 535 233 561 306 q 474 97 510 160 q 394 -14 439 33 q 290 -79 349 -61 q 231 -87 260 -89 q 176 -76 201 -86 q 127 -52 150 -67 q 85 -21 104 -37 q 38 72 56 4 q 13 230 21 139 q 2 428 4 321 q 2 640 0 535 q 7 842 4 746 q 11 1006 10 938 q 52 1094 13 1067 q 139 1125 92 1122 q 224 1110 186 1128 q 258 1060 261 1092 q 249 957 254 1025 q 238 803 243 889 q 228 621 232 718 q 224 431 225 524 q 228 254 224 338 q 243 113 232 171 q 273 28 254 54 q 319 21 292 1 z "},"":{"ha":936,"x_min":-3,"x_max":776,"o":"m 444 1258 q 437 1236 444 1249 q 415 1217 429 1224 q 385 1218 401 1211 q 351 1254 368 1225 q 260 1384 310 1329 q 169 1467 210 1439 q 144 1506 144 1483 q 160 1549 144 1528 q 202 1589 176 1571 q 255 1616 228 1607 q 306 1622 282 1625 q 340 1599 329 1619 q 374 1521 356 1569 q 407 1421 392 1472 q 433 1324 422 1369 q 444 1258 443 1279 m 219 1003 q 273 1074 240 1043 q 351 1118 306 1104 q 427 1130 389 1129 q 499 1123 465 1131 q 561 1103 533 1115 q 606 1074 589 1090 q 694 943 658 1021 q 750 774 731 865 q 773 583 769 682 q 765 387 776 483 q 728 203 754 290 q 662 49 701 117 q 569 -59 622 -18 q 451 -104 517 -100 q 285 -93 360 -110 q 147 -7 203 -76 q 56 160 90 63 q 10 375 22 258 q 2 603 -3 492 q 28 811 7 715 q 81 965 49 907 q 141 1008 101 1001 q 219 1003 181 1014 m 353 1042 q 317 997 335 1029 q 290 924 300 965 q 277 839 279 883 q 288 757 275 794 q 226 763 253 751 q 217 635 219 704 q 215 495 214 567 q 219 351 215 424 q 233 215 224 279 q 256 99 242 151 q 289 11 269 46 q 333 -34 307 -19 q 385 -47 358 -49 q 438 -26 413 -44 q 479 26 463 -8 q 520 153 503 76 q 547 322 538 231 q 557 511 556 413 q 551 701 558 610 q 527 870 543 792 q 485 999 511 949 q 463 1025 478 1013 q 428 1045 447 1038 q 390 1053 410 1053 q 353 1042 369 1053 z "},"":{"ha":346,"x_min":-147,"x_max":213,"o":"m 153 1236 q 145 1214 153 1226 q 124 1195 138 1201 q 93 1196 110 1189 q 60 1232 76 1203 q -32 1362 18 1307 q -122 1444 -82 1417 q -147 1483 -147 1461 q -131 1527 -147 1506 q -90 1567 -115 1549 q -37 1594 -64 1585 q 14 1600 -10 1603 q 49 1576 38 1597 q 82 1499 64 1547 q 115 1399 100 1450 q 141 1302 131 1347 q 153 1236 151 1257 m 47 -115 q 38 -56 43 -106 q 29 67 33 -7 q 21 235 25 142 q 13 428 17 329 q 8 626 10 528 q 3 808 6 724 q 1 954 1 892 q 1 1044 0 1017 q 19 1087 3 1071 q 58 1110 35 1103 q 109 1116 82 1117 q 159 1108 136 1115 q 197 1090 182 1101 q 213 1063 213 1078 q 211 1001 213 1051 q 208 876 210 951 q 203 706 206 800 q 198 513 200 613 q 194 318 196 414 q 191 142 192 222 q 190 4 190 61 q 193 -74 190 -53 q 176 -110 196 -94 q 130 -131 156 -125 q 79 -134 104 -137 q 47 -115 54 -131 z "},"":{"ha":654,"x_min":-94,"x_max":792,"o":"m 324 1244 q 316 1222 324 1235 q 294 1203 308 1210 q 264 1204 281 1197 q 231 1240 247 1211 q 139 1370 189 1315 q 49 1453 89 1425 q 24 1492 24 1469 q 40 1535 24 1514 q 81 1575 56 1557 q 134 1602 107 1593 q 185 1608 161 1611 q 219 1585 208 1606 q 253 1507 235 1556 q 286 1407 271 1458 q 312 1310 301 1356 q 324 1244 322 1265 m -14 -46 q 35 -36 4 -43 q 106 -19 65 -29 l 104 -19 q 74 344 86 13 q 37 344 54 344 q 6 343 19 344 q 3 383 0 368 q 13 407 6 399 q 27 418 19 415 q 39 421 35 421 q 55 424 47 422 q 71 426 63 425 q 65 603 68 515 q 61 767 63 690 q 59 902 60 843 q 58 992 58 961 q -20 995 15 994 q -83 993 -56 996 q -94 1040 -94 1022 q -87 1066 -93 1057 q -72 1078 -81 1075 q -54 1081 -62 1081 q 197 1097 71 1093 q 435 1108 324 1101 q 632 1133 546 1115 q 761 1192 718 1151 q 783 1186 774 1204 q 791 1135 792 1168 q 776 1064 790 1103 q 729 996 763 1025 q 669 972 711 979 q 566 965 626 965 q 429 970 506 965 q 268 981 353 975 q 265 890 267 946 q 262 763 264 833 q 258 611 260 692 q 254 450 256 531 q 384 471 328 460 q 468 503 440 482 q 490 490 481 511 q 497 439 499 469 q 479 380 494 408 q 428 344 464 351 q 351 338 397 339 q 251 339 304 338 q 248 125 249 199 q 250 21 247 51 q 250 13 251 17 q 463 57 386 43 q 572 44 540 71 q 613 -12 601 19 q 626 -72 625 -44 q 617 -114 626 -99 q 596 -121 608 -129 q 505 -94 563 -99 q 372 -97 447 -90 q 206 -113 296 -103 q 18 -128 115 -124 q 4 -127 11 -128 q -8 -118 -3 -126 q -16 -93 -14 -110 q -14 -46 -18 -76 z "},"":{"ha":1025,"x_min":1,"x_max":906,"o":"m 763 1275 q 755 1253 763 1265 q 733 1234 747 1240 q 703 1235 719 1228 q 669 1271 686 1242 q 578 1401 628 1346 q 488 1483 528 1456 q 463 1522 463 1500 q 478 1566 463 1544 q 520 1606 494 1588 q 573 1633 546 1624 q 624 1639 600 1642 q 658 1615 647 1636 q 692 1538 674 1586 q 725 1438 710 1489 q 751 1341 740 1386 q 763 1275 761 1296 m 590 1113 q 637 1124 597 1122 q 722 1113 676 1125 q 805 1076 768 1101 q 844 1006 842 1050 q 848 947 846 994 q 853 830 850 900 q 860 672 856 760 q 868 494 864 585 q 876 313 872 403 q 885 149 881 224 q 894 20 890 74 q 901 -54 899 -33 q 886 -92 906 -76 q 841 -113 867 -107 q 790 -116 815 -119 q 757 -97 765 -112 q 744 -31 751 -86 q 726 107 736 24 q 578 177 661 151 q 408 215 496 203 q 350 48 376 119 q 308 -51 324 -24 q 260 -107 288 -90 q 203 -126 232 -124 q 148 -119 175 -128 q 102 -99 121 -111 q 75 -75 83 -87 q 76 -57 67 -62 q 146 37 104 -40 q 236 226 188 114 q 156 224 194 226 q 83 215 117 221 q 44 236 60 211 q 18 292 28 261 q 5 350 8 324 q 1 376 1 376 q 135 392 57 393 q 300 376 213 392 q 365 540 332 456 q 428 702 399 624 q 485 852 458 781 q 534 978 513 924 q 570 1069 556 1033 q 590 1113 585 1104 m 713 235 q 694 440 703 332 q 676 647 685 547 q 663 828 668 746 q 654 960 657 911 q 642 931 651 957 q 618 859 633 904 q 583 753 603 814 q 542 625 564 693 q 497 485 521 557 q 450 342 474 413 q 588 294 521 321 q 713 235 656 267 z "},"":{"ha":936,"x_min":-3,"x_max":776,"o":"m 151 1244 q 121 1238 131 1225 q 109 1274 111 1250 q 113 1325 107 1299 q 129 1360 118 1351 q 237 1424 190 1413 q 322 1424 283 1436 q 392 1388 360 1413 q 457 1346 425 1364 q 523 1326 489 1328 q 599 1360 557 1325 q 626 1362 615 1374 q 640 1328 636 1350 q 640 1284 643 1307 q 626 1253 636 1261 q 533 1203 575 1208 q 453 1211 490 1197 q 381 1248 415 1225 q 312 1285 347 1271 q 238 1293 276 1299 q 151 1244 199 1288 m 219 1003 q 273 1074 240 1043 q 351 1118 306 1104 q 427 1130 389 1129 q 499 1123 465 1131 q 561 1103 533 1115 q 606 1074 589 1090 q 694 943 658 1021 q 750 774 731 865 q 773 583 769 682 q 765 387 776 483 q 728 203 754 290 q 662 49 701 117 q 569 -59 622 -18 q 451 -104 517 -100 q 285 -93 360 -110 q 147 -7 203 -76 q 56 160 90 63 q 10 375 22 258 q 2 603 -3 492 q 28 811 7 715 q 81 965 49 907 q 141 1008 101 1001 q 219 1003 181 1014 m 353 1042 q 317 997 335 1029 q 290 924 300 965 q 277 839 279 883 q 288 757 275 794 q 226 763 253 751 q 217 635 219 704 q 215 495 214 567 q 219 351 215 424 q 233 215 224 279 q 256 99 242 151 q 289 11 269 46 q 333 -34 307 -19 q 385 -47 358 -49 q 438 -26 413 -44 q 479 26 463 -8 q 520 153 503 76 q 547 322 538 231 q 557 511 556 413 q 551 701 558 610 q 527 870 543 792 q 485 999 511 949 q 463 1025 478 1013 q 428 1045 447 1038 q 390 1053 410 1053 q 353 1042 369 1053 z "},"":{"ha":947,"x_min":0,"x_max":800,"o":"m 151 1244 q 121 1238 131 1225 q 109 1274 111 1250 q 113 1325 107 1299 q 129 1360 118 1351 q 237 1424 190 1413 q 322 1424 283 1436 q 392 1388 360 1413 q 457 1346 425 1364 q 523 1326 489 1328 q 599 1360 557 1325 q 626 1362 615 1374 q 640 1328 636 1350 q 640 1284 643 1307 q 626 1253 636 1261 q 533 1203 575 1208 q 453 1211 490 1197 q 381 1248 415 1225 q 312 1285 347 1271 q 238 1293 276 1299 q 151 1244 199 1288 m 47 -79 q 38 -24 43 -69 q 29 92 33 22 q 21 250 25 163 q 13 430 17 338 q 8 615 10 522 q 3 785 6 707 q 1 924 1 864 q 1 1011 0 983 q 19 1053 3 1038 q 58 1076 35 1068 q 109 1083 82 1083 q 159 1075 136 1082 q 197 1056 182 1068 q 213 1029 213 1044 q 210 969 213 1018 q 206 849 208 921 q 202 688 204 778 q 197 506 200 599 q 226 649 210 578 q 259 784 242 721 q 297 900 276 847 q 339 990 317 953 q 415 1078 372 1047 q 503 1121 457 1110 q 594 1127 550 1132 q 673 1106 638 1122 q 733 1062 708 1089 q 765 1001 757 1035 q 783 868 778 954 q 788 676 788 782 q 785 455 788 571 q 783 233 783 339 q 784 38 782 126 q 796 -99 786 -50 q 784 -133 800 -121 q 742 -148 768 -146 q 683 -143 715 -150 q 623 -119 651 -136 q 574 -75 594 -101 q 553 -11 554 -49 q 552 133 550 51 q 558 307 554 215 q 565 494 561 399 q 569 676 568 589 q 568 838 571 764 q 556 963 565 913 q 528 1033 546 1013 q 482 1033 511 1054 q 406 942 440 1004 q 342 797 371 881 q 290 615 313 714 q 249 413 267 517 q 216 207 231 310 q 192 14 201 104 q 192 -17 192 -4 q 193 -37 192 -29 q 176 -75 196 -60 q 130 -97 156 -90 q 79 -99 104 -103 q 47 -79 54 -94 z "},"":{"ha":1025,"x_min":1,"x_max":967,"o":"m 475 1236 q 444 1229 454 1217 q 433 1266 435 1242 q 436 1317 431 1290 q 453 1351 442 1343 q 535 1407 499 1392 q 604 1422 572 1422 q 663 1408 636 1421 q 715 1379 690 1396 q 764 1347 740 1363 q 813 1323 788 1331 q 864 1320 838 1315 q 922 1351 890 1325 q 949 1353 939 1365 q 963 1320 960 1342 q 963 1276 967 1299 q 950 1244 960 1253 q 856 1194 899 1200 q 776 1203 814 1189 q 705 1240 739 1217 q 635 1276 671 1263 q 561 1285 600 1290 q 475 1236 522 1279 m 590 1113 q 637 1124 597 1122 q 722 1113 676 1125 q 805 1076 768 1101 q 844 1006 842 1050 q 848 947 846 994 q 853 830 850 900 q 860 672 856 760 q 868 494 864 585 q 876 313 872 403 q 885 149 881 224 q 894 20 890 74 q 901 -54 899 -33 q 886 -92 906 -76 q 841 -113 867 -107 q 790 -116 815 -119 q 757 -97 765 -112 q 744 -31 751 -86 q 726 107 736 24 q 578 177 661 151 q 408 215 496 203 q 350 48 376 119 q 308 -51 324 -24 q 260 -107 288 -90 q 203 -126 232 -124 q 148 -119 175 -128 q 102 -99 121 -111 q 75 -75 83 -87 q 76 -57 67 -62 q 146 37 104 -40 q 236 226 188 114 q 156 224 194 226 q 83 215 117 221 q 44 236 60 211 q 18 292 28 261 q 5 350 8 324 q 1 376 1 376 q 135 392 57 393 q 300 376 213 392 q 365 540 332 456 q 428 702 399 624 q 485 852 458 781 q 534 978 513 924 q 570 1069 556 1033 q 590 1113 585 1104 m 713 235 q 694 440 703 332 q 676 647 685 547 q 663 828 668 746 q 654 960 657 911 q 642 931 651 957 q 618 859 633 904 q 583 753 603 814 q 542 625 564 693 q 497 485 521 557 q 450 342 474 413 q 588 294 521 321 q 713 235 656 267 z "},"":{"ha":1025,"x_min":1,"x_max":988,"o":"m 782 1213 q 685 1206 732 1199 q 599 1235 638 1213 q 533 1297 560 1258 q 496 1383 506 1335 q 497 1481 486 1432 q 535 1569 508 1529 q 601 1640 561 1610 q 690 1685 640 1671 q 788 1692 740 1699 q 874 1662 835 1685 q 940 1601 913 1639 q 978 1514 968 1563 q 976 1417 988 1465 q 939 1328 965 1368 q 872 1257 913 1288 q 782 1213 832 1226 m 757 1311 q 798 1338 779 1319 q 829 1379 817 1356 q 847 1431 842 1403 q 847 1488 851 1460 q 799 1574 838 1546 q 715 1585 761 1601 q 675 1558 693 1576 q 644 1517 657 1540 q 627 1465 632 1493 q 626 1408 622 1438 q 643 1359 631 1381 q 674 1324 656 1338 q 713 1307 692 1311 q 757 1311 735 1303 m 590 1113 q 637 1124 597 1122 q 722 1113 676 1125 q 805 1076 768 1101 q 844 1006 842 1050 q 848 947 846 994 q 853 830 850 900 q 860 672 856 760 q 868 494 864 585 q 876 313 872 403 q 885 149 881 224 q 894 20 890 74 q 901 -54 899 -33 q 886 -92 906 -76 q 841 -113 867 -107 q 790 -116 815 -119 q 757 -97 765 -112 q 744 -31 751 -86 q 726 107 736 24 q 578 177 661 151 q 408 215 496 203 q 350 48 376 119 q 308 -51 324 -24 q 260 -107 288 -90 q 203 -126 232 -124 q 148 -119 175 -128 q 102 -99 121 -111 q 75 -75 83 -87 q 76 -57 67 -62 q 146 37 104 -40 q 236 226 188 114 q 156 224 194 226 q 83 215 117 221 q 44 236 60 211 q 18 292 28 261 q 5 350 8 324 q 1 376 1 376 q 135 392 57 393 q 300 376 213 392 q 365 540 332 456 q 428 702 399 624 q 485 852 458 781 q 534 978 513 924 q 570 1069 556 1033 q 590 1113 585 1104 m 713 235 q 694 440 703 332 q 676 647 685 547 q 663 828 668 746 q 654 960 657 911 q 642 931 651 957 q 618 859 633 904 q 583 753 603 814 q 542 625 564 693 q 497 485 521 557 q 450 342 474 413 q 588 294 521 321 q 713 235 656 267 z "},"":{"ha":936,"x_min":-1,"x_max":778,"o":"m 219 1003 q 273 1074 240 1043 q 351 1118 306 1104 q 433 1129 392 1129 q 511 1121 475 1129 q 540 1217 528 1176 q 560 1281 553 1257 q 594 1313 568 1304 q 645 1316 619 1321 q 688 1293 671 1311 q 696 1246 706 1275 q 675 1179 692 1232 q 631 1044 658 1126 q 728 853 693 967 q 770 615 763 740 q 761 363 778 489 q 703 134 744 236 q 599 -33 663 32 q 451 -104 536 -99 q 285 -93 360 -110 l 268 -89 q 256 -130 261 -112 q 249 -158 251 -147 q 223 -201 242 -186 q 185 -220 204 -217 q 152 -214 167 -224 q 139 -183 138 -204 q 150 -135 140 -172 q 175 -36 160 -97 q 85 92 121 13 q 28 265 49 171 q 3 462 8 360 q 6 659 -1 564 q 33 835 14 754 q 81 965 53 915 q 141 1008 101 1001 q 219 1003 181 1014 m 296 1 q 339 -37 314 -25 q 390 -46 364 -49 q 440 -25 417 -43 q 479 26 464 -7 q 524 169 506 81 q 550 360 542 257 q 557 570 558 463 q 543 774 556 678 q 476 568 511 674 q 409 360 442 463 q 347 166 376 258 q 296 1 318 74 m 478 1010 q 453 1033 468 1022 q 420 1048 438 1043 q 385 1052 403 1053 q 353 1042 368 1051 q 317 997 335 1029 q 290 924 300 965 q 277 839 279 883 q 288 757 275 794 q 226 763 253 751 q 217 628 219 701 q 215 478 214 554 q 221 327 215 403 q 238 186 226 251 q 295 389 264 282 q 358 604 326 496 q 421 817 390 713 q 478 1010 451 921 z "},"":{"ha":818,"x_min":-1,"x_max":715,"o":"m 458 -136 q 433 -140 446 -139 q 408 -143 421 -142 q 379 -217 376 -183 q 400 -283 382 -251 q 442 -347 418 -314 q 476 -417 465 -379 q 476 -501 488 -454 q 411 -607 464 -547 q 376 -624 403 -618 q 326 -628 350 -629 q 290 -616 301 -626 q 297 -585 278 -606 q 345 -503 339 -540 q 340 -431 351 -465 q 306 -365 328 -397 q 268 -297 283 -332 q 252 -223 253 -262 q 283 -136 251 -183 l 458 -136 m 171 1086 q 275 1151 217 1129 q 394 1172 333 1172 q 512 1150 454 1171 q 613 1089 569 1129 q 679 988 656 1049 q 697 850 703 928 q 667 822 696 831 q 605 810 639 813 q 543 814 571 808 q 515 831 515 819 q 497 1000 519 939 q 442 1080 475 1061 q 376 1076 410 1099 q 324 996 342 1054 q 303 910 315 969 q 281 770 292 850 q 260 597 269 690 q 247 411 250 504 q 249 232 244 318 q 271 81 254 146 q 318 -22 288 15 q 397 -57 349 -60 q 450 -26 428 -56 q 488 50 472 4 q 512 150 503 96 q 524 257 521 204 q 557 288 525 276 q 626 297 589 300 q 689 272 663 294 q 706 201 715 250 q 634 -3 688 78 q 509 -122 581 -83 q 357 -158 438 -160 q 206 -118 276 -157 q 83 -4 135 -79 q 17 179 31 71 q 3 335 7 251 q 1 506 -1 418 q 15 679 4 593 q 47 842 26 765 q 97 983 67 919 q 171 1086 128 1046 z "},"":{"ha":938,"x_min":-175,"x_max":1056,"o":"m 221 892 q 221 860 222 883 q 217 806 219 836 q 210 740 214 775 q 204 675 207 706 q 285 664 249 667 q 354 665 322 661 q 379 917 361 796 q 431 1126 397 1039 q 517 1241 460 1203 q 637 1279 575 1279 q 750 1242 699 1279 q 818 1129 801 1204 q 823 1017 829 1075 q 797 904 817 960 q 746 797 776 849 q 678 705 715 746 q 601 637 642 664 q 521 601 560 610 q 519 553 519 585 q 518 481 518 521 q 574 579 542 543 q 638 626 606 615 q 708 635 671 638 q 776 619 744 632 q 828 583 807 606 q 849 531 849 560 q 843 455 849 499 q 831 363 838 411 q 819 269 825 315 q 813 188 814 224 q 819 132 813 153 q 844 115 826 111 q 873 140 858 118 q 901 192 888 161 q 927 260 915 224 q 948 328 939 296 q 963 384 957 360 q 971 415 969 408 q 980 422 971 418 q 1001 428 989 426 q 1028 424 1014 429 q 1056 400 1043 418 q 1014 225 1036 300 q 960 102 992 150 q 883 33 928 54 q 776 21 839 13 q 701 54 728 28 q 662 120 674 81 q 649 208 650 160 q 653 305 649 256 q 665 401 658 354 q 672 483 671 447 q 656 540 675 535 q 610 500 636 544 q 587 445 599 483 q 564 360 575 407 q 542 262 553 313 q 525 169 532 211 q 511 88 526 111 q 474 65 496 65 q 428 82 451 65 q 388 121 404 99 q 290 38 344 63 q 183 19 235 14 q 92 56 132 25 q 38 142 51 88 q 19 251 25 193 q 13 370 14 310 q 14 492 11 431 q 19 615 17 554 q -37 619 -8 618 q -89 621 -65 621 q -131 622 -112 621 q -157 624 -149 622 q -160 643 -175 626 q -106 679 -146 660 q -56 692 -93 685 q 24 697 -18 700 q 26 739 26 718 q 28 779 26 760 q 44 847 29 821 q 80 888 58 874 q 126 906 101 901 q 172 908 150 910 q 207 901 193 907 q 221 892 221 896 m 350 354 q 348 452 349 400 q 350 558 347 504 q 270 565 308 558 q 199 578 232 571 q 189 417 193 500 q 187 267 185 335 q 200 158 189 200 q 236 121 211 117 q 278 151 260 125 q 310 213 296 178 q 333 286 324 247 q 350 354 343 325 m 525 725 q 603 817 571 765 q 656 920 636 868 q 685 1021 676 972 q 693 1106 694 1069 q 681 1163 692 1143 q 650 1178 669 1183 q 610 1142 628 1172 q 578 1067 592 1111 q 556 972 565 1024 q 541 873 547 921 q 531 785 535 825 q 525 725 526 744 z "},"":{"ha":669,"x_min":-182,"x_max":788,"o":"m 444 82 q 388 165 410 106 q 319 85 356 113 q 245 49 283 57 q 169 50 207 40 q 100 82 132 60 q 38 167 60 110 q 8 299 17 225 q 0 456 -1 374 q 6 614 1 538 q -97 610 -51 611 q -162 610 -142 608 q -168 629 -182 611 q -117 671 -154 647 q -67 689 -101 681 q 11 704 -33 697 q 15 763 14 736 q 18 814 17 790 q 35 876 19 851 q 75 916 51 901 q 126 935 99 931 q 176 937 153 940 q 213 924 199 933 q 228 899 228 914 q 222 838 228 885 q 210 721 217 792 q 265 728 224 722 q 365 744 307 735 q 370 817 368 785 q 374 871 372 849 q 408 956 375 926 q 481 992 442 985 q 551 989 519 1000 q 583 956 583 978 q 577 894 583 943 q 564 775 571 846 q 689 794 636 786 q 751 801 742 801 q 760 783 760 801 q 750 742 760 765 q 721 696 740 719 q 671 660 701 672 q 632 653 665 657 q 550 647 599 650 q 540 515 544 582 q 533 386 535 447 q 533 273 531 325 q 542 188 535 221 q 564 144 550 154 q 601 153 578 133 q 641 206 622 171 q 675 282 660 242 q 701 359 690 322 q 715 417 711 396 q 722 422 715 419 q 739 424 729 425 q 762 417 749 424 q 788 392 775 410 q 730 192 769 267 q 642 83 690 117 q 540 51 593 49 q 444 82 488 53 m 358 633 q 260 628 303 631 q 200 624 217 625 q 190 498 194 563 q 185 374 186 433 q 185 265 183 315 q 196 183 188 215 q 219 142 204 151 q 258 153 235 132 q 293 201 278 169 q 321 269 308 233 q 342 340 333 306 q 354 399 350 375 q 353 517 351 457 q 358 633 356 576 z "},"":{"ha":675,"x_min":-181,"x_max":786,"o":"m 699 414 q 708 419 699 417 q 730 422 717 422 q 758 414 743 421 q 786 389 774 407 q 701 149 756 231 q 589 43 647 67 q 476 46 531 19 q 392 129 422 72 q 293 41 349 67 q 185 19 238 15 q 92 56 133 24 q 38 143 51 88 q 22 241 28 182 q 15 367 17 300 q 13 499 13 433 q 15 617 14 565 q -92 608 -44 611 q -162 604 -139 604 q -168 624 -181 606 q -118 667 -156 642 q -66 689 -103 678 q 19 707 -29 700 q 21 758 21 726 q 22 807 21 789 q 38 875 24 849 q 74 915 53 901 q 120 933 96 929 q 166 936 144 938 q 201 929 188 935 q 215 919 215 924 q 216 890 217 911 q 214 842 215 869 q 210 782 213 814 q 206 719 208 750 q 236 724 215 721 q 280 731 257 726 q 323 740 303 735 q 351 749 343 744 q 363 831 347 797 q 404 883 379 864 q 459 908 429 903 q 515 905 489 914 q 559 872 542 896 q 576 811 576 849 q 556 722 578 765 q 486 664 533 679 q 422 651 460 656 q 342 643 383 646 q 262 638 301 640 q 196 633 222 636 q 187 465 190 556 q 186 295 183 374 q 200 167 189 217 q 235 121 211 117 q 281 158 261 126 q 315 229 300 189 q 339 312 329 269 q 354 381 349 354 q 353 489 353 439 q 354 563 354 539 q 382 588 354 579 q 442 598 410 597 q 503 589 475 599 q 532 558 531 579 q 531 523 532 551 q 526 454 529 494 q 522 367 524 414 q 522 278 521 321 q 530 201 524 235 q 549 154 536 168 q 583 144 565 135 q 617 180 601 154 q 647 242 633 206 q 672 315 661 279 q 690 378 683 350 q 699 414 697 406 z "},"":{"ha":683,"x_min":0,"x_max":788,"o":"m 700 411 q 709 417 700 414 q 731 420 718 421 q 760 413 744 419 q 788 389 775 407 q 732 214 767 283 q 656 104 697 144 q 570 52 614 64 q 488 51 526 40 q 419 95 449 63 q 376 176 389 128 q 360 265 365 218 q 354 354 356 311 q 353 433 353 397 q 354 493 354 469 q 382 519 354 510 q 442 529 410 529 q 503 520 475 529 q 533 490 531 511 q 529 436 533 481 q 523 338 525 392 q 525 233 521 283 q 549 163 529 183 q 583 152 565 143 q 617 186 601 161 q 648 246 633 211 q 674 315 663 281 q 692 376 685 349 q 700 411 699 403 m 1 601 q 53 615 24 610 q 110 621 83 621 q 157 613 138 621 q 178 583 176 604 q 178 553 178 579 q 180 492 179 526 q 181 426 181 458 q 181 378 181 393 q 193 454 185 408 q 215 551 201 500 q 246 653 228 601 q 286 749 264 706 q 335 822 308 792 q 393 858 361 851 q 480 858 444 869 q 537 821 515 846 q 565 762 558 796 q 565 695 571 728 q 538 635 558 663 q 486 596 518 607 q 410 596 446 581 q 358 646 374 611 q 326 622 343 653 q 292 541 308 592 q 259 428 275 490 q 231 308 243 365 q 213 208 219 251 q 207 151 206 164 q 203 101 210 119 q 167 79 196 83 q 129 80 150 76 q 88 97 108 83 q 50 133 67 110 q 28 194 33 157 q 17 272 22 229 q 9 360 13 315 q 4 449 6 406 q 1 526 3 492 q 0 581 0 560 q 1 601 0 601 z "},"":{"ha":674,"x_min":-15,"x_max":813,"o":"m 186 94 q 234 99 213 78 q 270 160 256 119 q 293 254 285 201 q 301 356 301 307 q 290 441 300 404 q 260 486 281 478 q 217 474 238 496 q 182 413 197 451 q 158 324 167 374 q 148 227 149 274 q 156 144 147 181 q 186 94 165 107 m 371 963 q 388 1025 372 1000 q 428 1065 404 1050 q 478 1084 451 1079 q 528 1086 506 1089 q 566 1073 551 1083 q 581 1047 581 1063 q 574 985 581 1036 q 560 858 568 933 q 544 692 553 783 q 528 511 535 601 q 520 339 522 421 q 524 200 518 257 q 544 118 529 143 q 586 117 558 93 q 625 178 607 135 q 658 269 643 221 q 682 362 672 318 q 696 426 692 406 q 710 433 696 429 q 742 438 724 438 q 781 432 761 438 q 813 408 800 426 q 769 217 796 294 q 709 90 742 139 q 639 19 676 42 q 565 -5 601 -3 q 492 8 528 -7 q 428 46 457 22 q 384 106 401 67 q 356 201 367 146 q 304 67 339 114 q 228 3 269 21 q 145 -8 188 -14 q 69 14 103 -3 q 12 83 32 33 q -12 194 -8 132 q -5 324 -15 257 q 27 450 6 392 q 80 548 49 508 q 149 593 111 588 q 206 594 176 597 q 263 580 236 592 q 310 547 289 568 q 342 492 331 525 q 347 633 343 563 q 356 765 351 703 q 365 878 361 828 q 371 963 369 929 z "},"":{"ha":346,"x_min":-1,"x_max":471,"o":"m 85 53 q 31 143 49 76 q 6 299 13 210 q 1 490 -1 389 q 8 685 3 592 q 20 855 14 779 q 28 968 26 931 q 45 1031 29 1006 q 85 1070 61 1056 q 135 1090 108 1085 q 185 1092 163 1094 q 223 1078 208 1089 q 238 1053 238 1068 q 231 990 238 1042 q 217 864 225 939 q 201 698 210 789 q 185 517 192 607 q 177 344 179 426 q 181 206 175 263 q 201 124 186 149 q 243 122 215 99 q 285 182 264 140 q 324 271 306 224 q 353 360 342 318 q 369 424 365 403 q 381 429 369 426 q 408 431 393 432 q 441 422 424 429 q 471 396 458 414 q 427 221 454 292 q 367 105 400 150 q 296 39 333 60 q 222 15 258 18 q 149 22 185 11 q 85 53 114 33 z "},"":{"ha":331,"x_min":1,"x_max":456,"o":"m 93 74 q 38 158 57 97 q 10 297 18 218 q 1 464 1 375 q 6 635 1 553 q 15 786 10 718 q 22 892 21 854 q 40 954 24 929 q 79 994 56 979 q 130 1013 103 1008 q 180 1015 157 1018 q 217 1002 203 1013 q 232 976 232 992 q 226 918 232 965 q 214 803 221 871 q 199 653 207 735 q 185 490 190 571 q 180 335 181 408 q 185 213 179 263 q 207 142 192 163 q 250 144 222 121 q 288 201 271 163 q 319 283 306 240 q 340 365 332 325 q 353 425 349 404 q 365 431 353 428 q 392 433 376 433 q 425 424 407 432 q 456 399 443 417 q 400 181 442 260 q 305 68 358 101 q 194 40 251 35 q 93 74 136 44 z "},"":{"ha":1024,"x_min":0,"x_max":904,"o":"m 589 1113 q 614 1122 593 1118 q 663 1123 635 1125 q 722 1113 690 1121 q 779 1092 753 1106 q 824 1056 806 1078 q 844 1006 843 1035 q 847 947 844 994 q 852 830 849 900 q 859 672 856 760 q 867 494 863 585 q 876 313 871 403 q 885 149 881 224 q 893 20 889 74 q 900 -54 897 -33 q 885 -92 904 -76 q 841 -113 867 -107 q 790 -116 815 -119 q 757 -97 765 -112 q 742 -31 750 -86 q 725 107 735 24 q 577 177 660 151 q 407 215 494 203 q 349 48 375 119 q 307 -51 322 -24 q 259 -107 286 -90 q 203 -126 232 -124 q 147 -119 174 -128 q 101 -99 121 -111 q 74 -75 82 -87 q 75 -57 65 -62 q 106 -24 89 -49 q 144 38 124 0 q 188 123 165 75 q 236 226 211 171 q 154 224 193 226 q 82 215 115 221 q 43 235 58 211 q 18 292 28 260 q 0 376 7 328 q 134 392 57 393 q 299 376 211 392 q 394 616 347 494 q 481 842 440 738 q 405 775 449 806 q 313 728 361 744 q 215 715 265 713 q 117 744 164 717 q 82 782 93 758 q 69 832 71 806 q 72 884 67 858 q 85 928 76 910 q 103 956 93 947 q 121 956 114 964 q 209 890 164 907 q 299 876 254 872 q 385 900 343 879 q 463 952 426 921 q 528 1019 500 983 q 576 1088 557 1054 q 589 1113 586 1106 m 713 235 q 693 440 703 332 q 676 647 683 547 q 662 828 668 746 q 654 960 656 911 q 631 899 650 957 q 583 753 613 842 q 519 556 554 665 q 450 342 485 447 q 588 294 521 321 q 713 235 654 267 z "},"":{"ha":1390,"x_min":0,"x_max":1393,"o":"m 1268 933 q 1267 797 1278 869 q 1219 659 1257 724 q 1115 545 1182 594 q 943 481 1047 496 q 917 476 924 478 q 913 475 910 475 q 943 472 925 475 q 981 459 961 468 q 1022 433 1001 450 q 1057 390 1042 417 q 1138 411 1092 400 q 1230 433 1183 422 q 1317 452 1276 443 q 1382 468 1358 461 q 1389 452 1385 468 q 1392 415 1393 436 q 1381 372 1390 393 q 1350 340 1372 350 q 1285 334 1322 338 q 1209 326 1247 331 q 1138 317 1171 322 q 1083 307 1104 313 q 1076 172 1092 242 q 1026 43 1060 101 q 935 -47 990 -19 q 826 -72 881 -75 q 728 -37 772 -68 q 668 51 683 -6 q 665 119 660 83 q 694 193 671 154 q 774 271 721 236 q 894 333 828 306 q 883 378 892 356 q 862 418 875 400 q 832 447 849 436 q 797 458 815 458 q 775 471 783 458 q 767 498 767 483 q 776 524 767 513 q 807 536 786 536 q 892 560 853 535 q 963 628 932 586 q 1016 722 994 669 q 1048 827 1038 774 q 1057 929 1058 881 q 1040 1012 1056 978 q 994 1060 1024 1046 q 917 1058 964 1075 q 836 994 874 1043 q 767 876 799 946 q 710 719 736 806 q 665 542 685 633 q 631 362 644 451 q 608 195 617 272 q 597 60 600 118 q 597 -28 594 1 q 578 -67 601 -50 q 544 -84 564 -78 q 506 -91 525 -90 q 472 -87 488 -92 q 451 -71 457 -82 q 442 -17 447 -61 q 433 96 438 28 q 425 249 429 164 q 418 426 421 335 q 413 608 415 517 q 408 778 410 699 q 363 684 393 731 q 292 603 333 638 q 201 550 251 568 q 96 542 151 532 q 49 565 68 546 q 19 607 31 583 q 4 657 8 631 q 1 703 0 683 q 9 735 3 724 q 25 742 15 747 q 133 710 83 711 q 223 730 182 710 q 296 786 264 750 q 351 865 328 822 q 388 953 374 908 q 407 1035 401 997 q 410 1039 407 1035 q 453 1081 419 1069 q 524 1090 488 1093 q 588 1073 560 1088 q 617 1038 617 1058 q 611 922 615 1015 q 603 649 607 828 q 638 803 615 719 q 697 960 661 886 q 787 1088 733 1035 q 914 1153 840 1142 q 1040 1156 981 1163 q 1147 1122 1100 1149 q 1226 1049 1194 1096 q 1268 933 1257 1003 m 790 6 q 826 26 808 6 q 857 81 843 47 q 881 156 871 114 q 896 242 892 199 q 806 185 836 214 q 765 129 776 157 q 755 86 757 108 q 757 46 753 64 q 770 17 761 28 q 790 6 779 6 z "},"":{"ha":1383,"x_min":0,"x_max":1438,"o":"m 1222 1029 q 1247 913 1239 982 q 1256 760 1256 843 q 1247 588 1256 678 q 1221 408 1239 497 q 1335 428 1282 422 q 1431 429 1389 433 q 1434 410 1431 429 q 1437 367 1438 390 q 1429 325 1436 344 q 1403 306 1422 306 q 1299 303 1353 306 q 1193 289 1246 301 q 1119 90 1163 176 q 1013 -51 1075 4 q 879 -124 946 -111 q 761 -116 813 -136 q 680 -49 710 -96 q 656 54 650 -3 q 692 152 660 106 q 769 236 724 199 q 867 300 815 274 q 964 338 919 326 q 993 506 981 421 q 1012 672 1006 592 q 1017 820 1018 751 q 1007 938 1017 889 q 977 1013 997 988 q 925 1033 957 1039 q 824 950 871 1022 q 740 772 778 878 q 673 540 701 665 q 626 300 644 415 q 599 94 607 185 q 596 -33 592 4 q 576 -72 600 -54 q 543 -89 563 -83 q 505 -95 524 -94 q 471 -91 486 -96 q 450 -75 456 -86 q 441 -21 446 -65 q 432 91 436 24 q 424 243 428 158 q 417 418 421 328 q 411 599 414 508 q 407 769 408 690 q 360 676 390 722 q 290 597 331 631 q 201 545 250 563 q 96 538 151 528 q 49 560 68 542 q 19 602 31 578 q 4 652 8 626 q 1 698 0 678 q 9 730 3 718 q 25 736 15 742 q 129 706 81 707 q 217 722 178 704 q 289 774 257 740 q 344 849 321 808 q 383 932 368 889 q 406 1013 399 975 l 406 1015 q 440 1071 407 1054 q 512 1087 472 1088 q 583 1071 551 1086 q 615 1033 615 1056 q 614 985 615 1022 q 610 891 613 949 q 606 758 608 833 q 601 593 603 682 q 661 831 628 735 q 735 994 694 926 q 797 1076 763 1042 q 871 1131 832 1110 q 972 1158 917 1156 q 1077 1147 1026 1161 q 1167 1101 1128 1132 q 1222 1029 1207 1071 m 935 218 q 873 190 908 211 q 806 141 838 169 q 755 78 775 113 q 739 11 735 44 q 757 -31 742 -12 q 792 -53 772 -50 q 835 -40 813 -57 q 876 24 857 -24 q 906 112 892 58 q 935 218 921 165 z "},"":{"ha":660,"x_min":-99,"x_max":1431,"o":"m -87 1010 q -98 1058 -99 1040 q -91 1083 -97 1075 q -76 1094 -85 1092 q -60 1097 -67 1097 q 94 1108 3 1104 q 292 1114 185 1111 q 518 1119 400 1117 q 752 1126 636 1122 q 975 1135 868 1129 q 1169 1151 1082 1142 q 1317 1174 1257 1160 q 1399 1208 1378 1189 q 1421 1203 1411 1221 q 1430 1153 1431 1185 q 1415 1082 1429 1121 q 1368 1013 1401 1043 q 1289 997 1357 1003 q 1122 987 1221 990 q 903 983 1022 983 q 670 984 783 983 q 461 988 557 985 q 313 994 365 990 q 310 901 311 958 q 306 776 308 844 q 302 630 304 707 q 299 475 300 553 q 408 494 361 483 q 479 522 454 504 q 501 510 492 531 q 508 459 510 489 q 490 400 506 429 q 440 365 475 371 q 377 359 414 360 q 297 358 340 358 q 294 224 296 288 q 293 108 293 160 q 294 19 293 56 q 296 -32 294 -17 q 278 -67 299 -53 q 233 -87 258 -82 q 182 -90 207 -93 q 150 -72 157 -87 q 142 -26 146 -64 q 133 72 138 13 q 126 206 129 131 q 118 364 122 282 q 62 365 88 365 q 18 363 36 365 q 15 403 13 388 q 24 426 18 418 q 38 438 31 435 q 50 442 46 440 q 83 447 67 444 q 115 451 100 449 q 110 622 113 536 q 106 781 107 707 q 104 915 104 856 q 104 1007 104 974 q -5 1011 44 1010 q -87 1010 -54 1013 z "},"":{"ha":917,"x_min":-1,"x_max":1900,"o":"m 176 1049 q 281 1110 222 1090 q 400 1129 339 1131 q 518 1107 461 1128 q 618 1047 575 1086 q 685 949 661 1007 q 701 815 708 890 q 683 788 700 797 q 648 777 667 779 q 615 780 629 775 q 600 796 600 785 q 572 960 606 900 q 490 1038 538 1019 q 395 1037 442 1057 q 329 960 349 1017 q 308 877 321 935 q 284 742 296 819 q 262 575 272 665 q 248 395 251 485 q 249 222 244 306 q 269 76 253 139 q 315 -23 285 14 q 394 -57 346 -60 q 449 -24 421 -56 q 500 56 476 7 q 540 165 524 104 q 563 288 557 226 q 560 389 561 340 q 557 475 558 438 q 555 537 556 513 q 554 568 554 561 q 569 586 554 578 q 608 599 585 594 q 658 603 631 603 q 709 599 686 604 q 748 583 732 593 q 764 554 764 572 q 763 389 765 481 q 754 200 760 297 q 742 7 749 103 q 729 -171 736 -89 q 938 -196 824 -185 q 1169 -214 1051 -207 q 1399 -224 1286 -221 q 1603 -222 1511 -226 q 1757 -208 1694 -218 q 1836 -178 1819 -197 q 1868 -165 1853 -158 q 1892 -195 1883 -172 q 1899 -251 1900 -218 q 1885 -317 1899 -285 q 1845 -373 1872 -349 q 1772 -403 1818 -397 q 1673 -402 1739 -407 q 1519 -386 1607 -397 q 1330 -358 1432 -375 q 1123 -324 1228 -342 q 915 -287 1018 -306 q 725 -253 813 -268 q 697 -393 717 -326 q 642 -508 678 -460 q 553 -576 607 -556 q 425 -578 500 -597 q 339 -526 369 -564 q 300 -438 308 -487 q 306 -336 292 -389 q 354 -240 319 -283 q 442 -172 389 -197 q 568 -150 496 -146 q 570 -76 571 -114 q 569 -3 569 -39 q 494 -103 536 -65 q 405 -144 458 -135 q 297 -144 351 -153 q 191 -112 242 -136 q 110 -54 140 -87 q 49 41 74 -15 q 14 174 25 97 q 1 324 4 243 q 2 490 -1 406 q 17 657 6 574 q 50 815 29 740 q 102 949 71 889 q 176 1049 133 1010 m 454 -517 q 495 -508 478 -521 q 524 -469 513 -494 q 544 -412 536 -444 q 556 -347 551 -379 q 561 -284 560 -314 q 564 -233 563 -254 q 498 -253 528 -233 q 446 -302 468 -272 q 412 -367 424 -332 q 400 -434 400 -403 q 413 -488 400 -465 q 454 -517 425 -511 z "},"":{"ha":1310,"x_min":0,"x_max":1193,"o":"m 451 -103 q 444 -64 447 -94 q 437 15 440 -33 q 430 125 433 63 q 424 258 426 188 q 365 254 393 257 q 310 247 336 251 q 272 268 286 243 q 249 324 257 293 q 240 383 242 356 q 238 410 238 410 q 418 422 311 429 q 412 626 414 525 q 407 814 410 726 q 362 721 392 767 q 292 641 332 675 q 201 590 251 607 q 96 582 151 572 q 49 605 68 588 q 19 647 31 622 q 4 697 8 671 q 1 742 0 722 q 9 774 3 763 q 25 781 15 786 q 131 750 82 751 q 219 767 179 749 q 292 821 260 786 q 347 897 324 856 q 384 981 369 938 q 406 1063 399 1025 q 407 1071 407 1065 l 408 1074 l 408 1076 q 452 1119 418 1107 q 522 1129 486 1132 q 587 1112 558 1126 q 615 1076 615 1097 q 613 998 615 1064 q 609 836 611 932 q 603 624 607 740 q 599 396 600 508 q 820 327 713 371 q 1003 226 928 283 q 997 388 1000 303 q 991 558 993 474 q 987 722 989 642 q 984 868 985 801 q 983 985 983 935 q 983 1058 982 1035 q 1018 1114 985 1097 q 1090 1130 1051 1131 q 1161 1114 1129 1129 q 1193 1076 1193 1099 q 1192 1015 1193 1065 q 1188 888 1190 964 q 1183 719 1186 813 q 1178 526 1181 625 q 1175 331 1176 428 q 1173 155 1174 235 q 1172 17 1172 75 q 1175 -60 1172 -40 q 1157 -97 1176 -82 q 1111 -119 1138 -112 q 1060 -122 1085 -125 q 1029 -103 1036 -118 q 1017 -8 1024 -89 q 969 115 1010 67 q 867 190 928 163 q 734 231 806 218 q 596 251 663 244 q 594 51 594 136 q 597 -60 594 -33 q 580 -97 600 -82 q 534 -119 560 -112 q 483 -122 508 -125 q 451 -103 458 -118 z "}}}
